<?xml version="1.0" encoding="UTF-8"?>
<svg xmlns="http://www.w3.org/2000/svg" xmlns:xlink="http://www.w3.org/1999/xlink" width="735pt" height="315pt" viewBox="0 0 735 315">
<rect x="-73.5" y="-31.5" width="882" height="378" fill="rgb(100%, 100%, 100%)" fill-opacity="1"/>
<path fill-rule="nonzero" fill="rgb(86.66687%, 86.66687%, 86.66687%)" fill-opacity="1" d="M 249 4 L 249 311 C 249 313.210938 250.789062 315 253 315 L 731 315 C 733.199219 315 735 313.210938 735 311 L 735 4 C 735 1.789062 733.199219 0 731 0 L 253 0 C 250.789062 0 249 1.789062 249 4 Z M 249 4 "/>
<path fill-rule="nonzero" fill="rgb(0%, 0%, 0%)" fill-opacity="1" d="M 300 35 L 300 85 C 300 87.210938 301.789062 89 304 89 L 444 89 C 446.210938 89 448 87.210938 448 85 L 448 35 C 448 32.789062 446.210938 31 444 31 L 304 31 C 301.789062 31 300 32.789062 300 35 Z M 300 35 "/>
<path fill-rule="nonzero" fill="rgb(100%, 100%, 100%)" fill-opacity="1" d="M 338.011719 68.308594 L 344.199219 52.421875 L 347.5 52.421875 L 353.691406 68.308594 L 350.300781 68.308594 L 348.640625 64.070312 L 342.070312 64.070312 L 340.410156 68.308594 Z M 342.890625 61.960938 L 347.828125 61.960938 L 345.359375 55.621094 Z M 364.648438 68.058594 C 363.328125 68.410156 362.109375 68.578125 360.988281 68.578125 C 359.101562 68.578125 357.609375 68.03125 356.519531 66.921875 C 355.429688 65.820312 354.878906 64.308594 354.878906 62.410156 C 354.878906 60.480469 355.449219 58.96875 356.570312 57.878906 C 357.699219 56.800781 359.25 56.25 361.230469 56.25 C 362.191406 56.25 363.300781 56.398438 364.550781 56.710938 L 364.550781 59.011719 C 363.25 58.589844 362.210938 58.378906 361.429688 58.378906 C 360.46875 58.378906 359.710938 58.738281 359.128906 59.46875 C 358.550781 60.199219 358.261719 61.171875 358.261719 62.378906 C 358.261719 63.621094 358.570312 64.621094 359.199219 65.359375 C 359.820312 66.109375 360.660156 66.480469 361.710938 66.480469 C 362.660156 66.480469 363.640625 66.269531 364.648438 65.851562 Z M 373.738281 68.25 C 372.980469 68.46875 372.378906 68.578125 371.941406 68.578125 C 369.191406 68.578125 367.808594 67.289062 367.808594 64.71875 L 367.808594 58.511719 L 366.488281 58.511719 L 366.488281 56.519531 L 367.808594 56.519531 L 367.808594 54.53125 L 370.988281 54.171875 L 370.988281 56.519531 L 373.511719 56.519531 L 373.511719 58.511719 L 370.988281 58.511719 L 370.988281 64.300781 C 370.988281 65.738281 371.578125 66.46875 372.761719 66.46875 C 373.03125 66.46875 373.359375 66.421875 373.738281 66.320312 Z M 376.570312 68.308594 L 376.570312 56.519531 L 379.75 56.519531 L 379.75 68.308594 Z M 376.570312 54.53125 L 376.570312 51.878906 L 379.75 51.878906 L 379.75 54.53125 Z M 388.679688 68.578125 C 386.839844 68.578125 385.378906 68.03125 384.289062 66.910156 C 383.210938 65.800781 382.660156 64.300781 382.660156 62.421875 C 382.660156 60.511719 383.210938 59.011719 384.300781 57.910156 C 385.390625 56.800781 386.878906 56.25 388.75 56.25 C 390.640625 56.25 392.128906 56.800781 393.21875 57.910156 C 394.308594 59.011719 394.859375 60.5 394.859375 62.398438 C 394.859375 64.328125 394.308594 65.839844 393.210938 66.941406 C 392.121094 68.039062 390.609375 68.578125 388.679688 68.578125 Z M 388.730469 66.601562 C 390.558594 66.601562 391.46875 65.199219 391.46875 62.398438 C 391.46875 61.109375 391.230469 60.101562 390.75 59.359375 C 390.261719 58.609375 389.601562 58.238281 388.75 58.238281 C 387.921875 58.238281 387.261719 58.609375 386.769531 59.359375 C 386.289062 60.101562 386.050781 61.121094 386.050781 62.421875 C 386.050781 63.699219 386.289062 64.71875 386.769531 65.46875 C 387.25 66.21875 387.898438 66.601562 388.730469 66.601562 Z M 397.78125 68.308594 L 397.78125 56.519531 L 400.960938 56.519531 L 400.960938 58.738281 C 402 57.078125 403.339844 56.25 404.980469 56.25 C 406.03125 56.25 406.859375 56.578125 407.46875 57.25 C 408.078125 57.921875 408.378906 58.828125 408.378906 59.980469 L 408.378906 68.308594 L 405.199219 68.308594 L 405.199219 60.761719 C 405.199219 59.421875 404.761719 58.75 403.871094 58.75 C 402.859375 58.75 401.890625 59.46875 400.960938 60.890625 L 400.960938 68.308594 Z M 397.78125 68.308594 "/>
<path fill-rule="nonzero" fill="rgb(0%, 0%, 0%)" fill-opacity="1" d="M 550 134 L 550 184 C 550 186.210938 551.789062 188 554 188 L 694 188 C 696.199219 188 698 186.210938 698 184 L 698 134 C 698 131.789062 696.199219 130 694 130 L 554 130 C 551.789062 130 550 131.789062 550 134 Z M 550 134 "/>
<path fill-rule="nonzero" fill="rgb(100%, 100%, 100%)" fill-opacity="1" d="M 580.101562 167.308594 L 580.101562 151.421875 L 586.101562 151.421875 C 589.300781 151.421875 590.898438 152.730469 590.898438 155.359375 C 590.898438 156.339844 590.699219 157.230469 590.101562 158.039062 C 589.601562 158.839844 588.800781 159.460938 587.898438 159.890625 L 593.101562 167.308594 L 589 167.308594 L 585.101562 160.820312 L 583.300781 160.820312 L 583.300781 167.308594 Z M 583.300781 158.628906 L 584 158.628906 C 586.398438 158.628906 587.601562 157.660156 587.601562 155.71875 C 587.601562 154.308594 586.5 153.601562 584.398438 153.601562 L 583.300781 153.601562 Z M 604.898438 166.921875 C 603.398438 167.359375 602 167.578125 600.601562 167.578125 C 598.699219 167.578125 597.101562 167.019531 596 165.910156 C 594.800781 164.789062 594.300781 163.261719 594.300781 161.328125 C 594.300781 159.5 594.800781 158.03125 595.800781 156.921875 C 596.898438 155.808594 598.199219 155.25 599.898438 155.25 C 601.699219 155.25 602.898438 155.800781 603.699219 156.878906 C 604.5 157.96875 604.898438 159.691406 604.898438 162.050781 L 597.601562 162.050781 C 597.800781 164.300781 599.101562 165.421875 601.300781 165.421875 C 602.398438 165.421875 603.601562 165.179688 604.898438 164.679688 Z M 597.601562 160.261719 L 601.800781 160.261719 C 601.800781 158.238281 601.101562 157.238281 599.898438 157.238281 C 598.5 157.238281 597.800781 158.238281 597.601562 160.261719 Z M 615.601562 167.308594 L 615.601562 165.089844 C 614.800781 166.75 613.5 167.578125 611.800781 167.578125 C 610.398438 167.578125 609.199219 167.058594 608.398438 166.03125 C 607.601562 164.988281 607.199219 163.558594 607.199219 161.738281 C 607.199219 159.761719 607.699219 158.191406 608.601562 157.011719 C 609.5 155.839844 610.699219 155.25 612.300781 155.25 C 613.5 155.25 614.601562 155.738281 615.601562 156.710938 L 615.601562 150.351562 L 618.800781 150.351562 L 618.800781 167.308594 Z M 615.601562 158.601562 C 614.898438 157.738281 614 157.308594 613.199219 157.308594 C 612.398438 157.308594 611.800781 157.691406 611.300781 158.441406 C 610.800781 159.191406 610.601562 160.199219 610.601562 161.46875 C 610.601562 163.878906 611.398438 165.089844 612.898438 165.089844 C 613.898438 165.089844 614.800781 164.488281 615.601562 163.28125 Z M 630.101562 167.308594 L 630.101562 165.089844 C 629 166.75 627.699219 167.578125 626.101562 167.578125 C 625 167.578125 624.199219 167.25 623.601562 166.578125 C 623 165.921875 622.699219 165.011719 622.699219 163.859375 L 622.699219 155.519531 L 625.800781 155.519531 L 625.800781 163.070312 C 625.800781 164.410156 626.300781 165.078125 627.199219 165.078125 C 628.199219 165.078125 629.101562 164.371094 630.101562 162.941406 L 630.101562 155.519531 L 633.300781 155.519531 L 633.300781 167.308594 Z M 645.898438 167.058594 C 644.601562 167.410156 643.398438 167.578125 642.300781 167.578125 C 640.398438 167.578125 638.898438 167.03125 637.800781 165.921875 C 636.699219 164.820312 636.199219 163.308594 636.199219 161.410156 C 636.199219 159.480469 636.699219 157.96875 637.898438 156.878906 C 639 155.800781 640.5 155.25 642.5 155.25 C 643.5 155.25 644.601562 155.398438 645.800781 155.710938 L 645.800781 158.011719 C 644.5 157.589844 643.5 157.378906 642.699219 157.378906 C 641.800781 157.378906 641 157.738281 640.398438 158.46875 C 639.800781 159.199219 639.5 160.171875 639.5 161.378906 C 639.5 162.621094 639.898438 163.621094 640.5 164.359375 C 641.101562 165.109375 641.898438 165.480469 643 165.480469 C 643.898438 165.480469 644.898438 165.269531 645.898438 164.851562 Z M 658.5 166.921875 C 657 167.359375 655.601562 167.578125 654.199219 167.578125 C 652.300781 167.578125 650.699219 167.019531 649.601562 165.910156 C 648.398438 164.789062 647.898438 163.261719 647.898438 161.328125 C 647.898438 159.5 648.398438 158.03125 649.398438 156.921875 C 650.5 155.808594 651.898438 155.25 653.601562 155.25 C 655.300781 155.25 656.601562 155.800781 657.398438 156.878906 C 658.101562 157.96875 658.5 159.691406 658.5 162.050781 L 651.199219 162.050781 C 651.398438 164.300781 652.699219 165.421875 654.898438 165.421875 C 656 165.421875 657.199219 165.179688 658.5 164.679688 Z M 651.199219 160.261719 L 655.398438 160.261719 C 655.398438 158.238281 654.800781 157.238281 653.5 157.238281 C 652.199219 157.238281 651.398438 158.238281 651.199219 160.261719 Z M 661.800781 167.308594 L 661.800781 155.519531 L 665 155.519531 L 665 157.738281 C 665.800781 156.078125 667.101562 155.25 668.800781 155.25 C 669 155.25 669.199219 155.269531 669.398438 155.320312 L 669.398438 158.148438 C 668.898438 157.988281 668.5 157.898438 668.101562 157.898438 C 666.800781 157.898438 665.800781 158.550781 665 159.828125 L 665 167.308594 Z M 661.800781 167.308594 "/>
<path fill-rule="nonzero" fill="rgb(50.195312%, 50.195312%, 50.195312%)" fill-opacity="1" d="M 300 233 L 300 283 C 300 285.210938 301.789062 287 304 287 L 444 287 C 446.210938 287 448 285.210938 448 283 L 448 233 C 448 230.789062 446.210938 229 444 229 L 304 229 C 301.789062 229 300 230.789062 300 233 Z M 300 233 "/>
<path fill-rule="nonzero" fill="rgb(100%, 100%, 100%)" fill-opacity="1" d="M 346.980469 266.171875 L 346.980469 263.449219 C 348.691406 264.160156 350.160156 264.519531 351.378906 264.519531 C 352.230469 264.519531 352.898438 264.328125 353.390625 263.949219 C 353.878906 263.570312 354.128906 263.058594 354.128906 262.398438 C 354.128906 261.890625 353.96875 261.449219 353.671875 261.101562 C 353.359375 260.738281 352.769531 260.320312 351.910156 259.839844 L 350.851562 259.25 C 349.429688 258.441406 348.421875 257.679688 347.828125 256.941406 C 347.238281 256.210938 346.949219 255.351562 346.949219 254.371094 C 346.949219 253.058594 347.429688 252.011719 348.398438 251.210938 C 349.359375 250.421875 350.628906 250.019531 352.210938 250.019531 C 353.480469 250.019531 354.910156 250.199219 356.5 250.570312 L 356.5 253.109375 C 354.878906 252.5 353.589844 252.199219 352.640625 252.199219 C 351.910156 252.199219 351.328125 252.359375 350.890625 252.691406 C 350.449219 253.011719 350.230469 253.441406 350.230469 253.96875 C 350.230469 254.410156 350.378906 254.789062 350.691406 255.121094 C 351 255.449219 351.578125 255.859375 352.429688 256.328125 L 353.570312 256.96875 C 355.101562 257.828125 356.160156 258.621094 356.738281 259.339844 C 357.320312 260.070312 357.609375 260.949219 357.609375 261.988281 C 357.609375 263.460938 357.058594 264.621094 355.960938 265.460938 C 354.871094 266.289062 353.359375 266.710938 351.429688 266.710938 C 350.160156 266.710938 348.671875 266.53125 346.980469 266.171875 Z M 366.519531 266.25 C 365.761719 266.46875 365.171875 266.578125 364.730469 266.578125 C 361.96875 266.578125 360.589844 265.289062 360.589844 262.71875 L 360.589844 256.511719 L 359.269531 256.511719 L 359.269531 254.519531 L 360.589844 254.519531 L 360.589844 252.53125 L 363.769531 252.171875 L 363.769531 254.519531 L 366.300781 254.519531 L 366.300781 256.511719 L 363.769531 256.511719 L 363.769531 262.300781 C 363.769531 263.738281 364.359375 264.46875 365.550781 264.46875 C 365.820312 264.46875 366.140625 264.421875 366.519531 264.320312 Z M 375.140625 265.050781 C 374.078125 266.070312 372.941406 266.578125 371.730469 266.578125 C 370.699219 266.578125 369.859375 266.269531 369.21875 265.640625 C 368.578125 265.011719 368.25 264.191406 368.25 263.191406 C 368.25 261.890625 368.769531 260.878906 369.820312 260.179688 C 370.859375 259.46875 372.351562 259.121094 374.289062 259.121094 L 375.140625 259.121094 L 375.140625 258.039062 C 375.140625 256.820312 374.441406 256.210938 373.039062 256.210938 C 371.808594 256.210938 370.550781 256.558594 369.28125 257.261719 L 369.28125 255.070312 C 370.71875 254.519531 372.148438 254.25 373.558594 254.25 C 376.648438 254.25 378.191406 255.480469 378.191406 257.941406 L 378.191406 263.160156 C 378.191406 264.078125 378.488281 264.539062 379.078125 264.539062 C 379.191406 264.539062 379.328125 264.53125 379.5 264.5 L 379.578125 266.28125 C 378.898438 266.480469 378.308594 266.578125 377.789062 266.578125 C 376.488281 266.578125 375.648438 266.070312 375.28125 265.050781 Z M 375.140625 263.339844 L 375.140625 260.941406 L 374.390625 260.941406 C 372.328125 260.941406 371.300781 261.589844 371.300781 262.878906 C 371.300781 263.308594 371.449219 263.679688 371.75 263.980469 C 372.050781 264.28125 372.410156 264.421875 372.851562 264.421875 C 373.601562 264.421875 374.359375 264.058594 375.140625 263.339844 Z M 388.371094 266.25 C 387.609375 266.46875 387.019531 266.578125 386.578125 266.578125 C 383.820312 266.578125 382.441406 265.289062 382.441406 262.71875 L 382.441406 256.511719 L 381.121094 256.511719 L 381.121094 254.519531 L 382.441406 254.519531 L 382.441406 252.53125 L 385.621094 252.171875 L 385.621094 254.519531 L 388.148438 254.519531 L 388.148438 256.511719 L 385.621094 256.511719 L 385.621094 262.300781 C 385.621094 263.738281 386.210938 264.46875 387.398438 264.46875 C 387.671875 264.46875 387.988281 264.421875 388.371094 264.320312 Z M 400.808594 265.921875 C 399.300781 266.359375 397.871094 266.578125 396.519531 266.578125 C 394.550781 266.578125 392.988281 266.019531 391.851562 264.910156 C 390.710938 263.789062 390.148438 262.261719 390.148438 260.328125 C 390.148438 258.5 390.671875 257.03125 391.710938 255.921875 C 392.75 254.808594 394.128906 254.25 395.839844 254.25 C 397.558594 254.25 398.828125 254.800781 399.621094 255.878906 C 400.421875 256.96875 400.808594 258.691406 400.808594 261.050781 L 393.5 261.050781 C 393.710938 263.300781 394.949219 264.421875 397.199219 264.421875 C 398.269531 264.421875 399.46875 264.179688 400.808594 263.679688 Z M 393.449219 259.261719 L 397.691406 259.261719 C 397.691406 257.238281 397.039062 256.238281 395.738281 256.238281 C 394.421875 256.238281 393.660156 257.238281 393.449219 259.261719 Z M 393.449219 259.261719 "/>
<path fill-rule="nonzero" fill="rgb(50.195312%, 50.195312%, 50.195312%)" fill-opacity="1" d="M 0 129 L 0 194 C 0 196.210938 1.789062 198 4 198 L 144 198 C 146.210938 198 148 196.210938 148 194 L 148 129 C 148 126.789062 146.210938 125 144 125 L 4 125 C 1.789062 125 0 126.789062 0 129 Z M 0 129 "/>
<path fill-rule="nonzero" fill="rgb(100%, 100%, 100%)" fill-opacity="1" d="M 32.75 167.78125 C 31.488281 168.351562 29.988281 168.628906 28.238281 168.628906 C 26.109375 168.628906 24.449219 168.03125 23.261719 166.828125 C 22.070312 165.621094 21.480469 163.949219 21.480469 161.800781 C 21.480469 159.609375 22.078125 157.921875 23.269531 156.738281 C 24.46875 155.558594 26.179688 154.96875 28.398438 154.96875 C 29.820312 154.96875 31.230469 155.140625 32.628906 155.46875 L 32.628906 157.589844 C 31.039062 157.03125 29.710938 156.75 28.640625 156.75 C 27.269531 156.75 26.210938 157.191406 25.46875 158.058594 C 24.71875 158.929688 24.351562 160.160156 24.351562 161.761719 C 24.351562 163.328125 24.75 164.558594 25.550781 165.441406 C 26.351562 166.320312 27.460938 166.761719 28.890625 166.761719 C 30.160156 166.761719 31.449219 166.429688 32.75 165.789062 Z M 39.160156 168.519531 C 37.648438 168.519531 36.460938 168.070312 35.570312 167.160156 C 34.679688 166.238281 34.238281 165.019531 34.238281 163.480469 C 34.238281 161.921875 34.691406 160.691406 35.578125 159.789062 C 36.46875 158.878906 37.691406 158.429688 39.21875 158.429688 C 40.761719 158.429688 41.980469 158.878906 42.871094 159.789062 C 43.769531 160.691406 44.210938 161.910156 44.210938 163.460938 C 44.210938 165.039062 43.769531 166.28125 42.871094 167.179688 C 41.96875 168.070312 40.738281 168.519531 39.160156 168.519531 Z M 39.199219 166.898438 C 40.699219 166.898438 41.449219 165.75 41.449219 163.460938 C 41.449219 162.410156 41.25 161.578125 40.851562 160.96875 C 40.460938 160.359375 39.910156 160.058594 39.21875 160.058594 C 38.539062 160.058594 38 160.359375 37.601562 160.96875 C 37.199219 161.578125 37.011719 162.421875 37.011719 163.480469 C 37.011719 164.53125 37.199219 165.359375 37.601562 165.96875 C 37.988281 166.589844 38.519531 166.898438 39.199219 166.898438 Z M 46.601562 168.300781 L 46.601562 158.648438 L 49.101562 158.648438 L 49.101562 160.46875 C 49.859375 159.109375 50.949219 158.429688 52.351562 158.429688 C 53.078125 158.429688 53.679688 158.609375 54.148438 158.96875 C 54.609375 159.328125 54.898438 159.828125 55.011719 160.46875 C 55.910156 159.109375 57 158.429688 58.28125 158.429688 C 60.039062 158.429688 60.921875 159.410156 60.921875 161.351562 L 60.921875 168.300781 L 58.429688 168.300781 L 58.429688 162.199219 C 58.429688 161.058594 58.039062 160.488281 57.28125 160.488281 C 56.5 160.488281 55.75 161.050781 55.011719 162.179688 L 55.011719 168.300781 L 52.511719 168.300781 L 52.511719 162.199219 C 52.511719 161.050781 52.128906 160.480469 51.359375 160.480469 C 50.589844 160.480469 49.839844 161.050781 49.101562 162.179688 L 49.101562 168.300781 Z M 64.058594 171.769531 L 64.058594 158.648438 L 66.660156 158.648438 L 66.660156 160.46875 C 67.328125 159.109375 68.378906 158.429688 69.820312 158.429688 C 70.980469 158.429688 71.890625 158.859375 72.550781 159.710938 C 73.21875 160.558594 73.550781 161.730469 73.550781 163.210938 C 73.550781 164.828125 73.179688 166.121094 72.429688 167.078125 C 71.679688 168.039062 70.671875 168.519531 69.410156 168.519531 C 68.398438 168.519531 67.480469 168.121094 66.660156 167.328125 L 66.660156 171.769531 Z M 66.660156 165.78125 C 67.289062 166.480469 67.96875 166.828125 68.679688 166.828125 C 69.320312 166.828125 69.828125 166.53125 70.210938 165.910156 C 70.589844 165.289062 70.78125 164.460938 70.78125 163.429688 C 70.78125 161.460938 70.148438 160.46875 68.878906 160.46875 C 68.109375 160.46875 67.371094 160.96875 66.660156 161.960938 Z M 80.039062 168.519531 C 78.53125 168.519531 77.339844 168.070312 76.449219 167.160156 C 75.558594 166.238281 75.121094 165.019531 75.121094 163.480469 C 75.121094 161.921875 75.558594 160.691406 76.460938 159.789062 C 77.351562 158.878906 78.558594 158.429688 80.101562 158.429688 C 81.640625 158.429688 82.859375 158.878906 83.75 159.789062 C 84.648438 160.691406 85.089844 161.910156 85.089844 163.460938 C 85.089844 165.039062 84.640625 166.28125 83.75 167.179688 C 82.851562 168.070312 81.609375 168.519531 80.039062 168.519531 Z M 80.078125 166.898438 C 81.578125 166.898438 82.320312 165.75 82.320312 163.460938 C 82.320312 162.410156 82.128906 161.578125 81.730469 160.96875 C 81.328125 160.359375 80.789062 160.058594 80.101562 160.058594 C 79.410156 160.058594 78.871094 160.359375 78.480469 160.96875 C 78.078125 161.578125 77.878906 162.421875 77.878906 163.480469 C 77.878906 164.53125 78.078125 165.359375 78.46875 165.96875 C 78.871094 166.589844 79.398438 166.898438 80.078125 166.898438 Z M 87.480469 168.300781 L 87.480469 158.648438 L 90.078125 158.648438 L 90.078125 160.46875 C 90.929688 159.109375 92.03125 158.429688 93.371094 158.429688 C 94.230469 158.429688 94.910156 158.710938 95.410156 159.25 C 95.910156 159.789062 96.160156 160.539062 96.160156 161.480469 L 96.160156 168.300781 L 93.558594 168.300781 L 93.558594 162.121094 C 93.558594 161.03125 93.191406 160.480469 92.46875 160.480469 C 91.640625 160.480469 90.851562 161.058594 90.078125 162.230469 L 90.078125 168.300781 Z M 107.160156 167.980469 C 105.921875 168.339844 104.75 168.519531 103.648438 168.519531 C 102.03125 168.519531 100.761719 168.070312 99.828125 167.148438 C 98.898438 166.238281 98.429688 164.988281 98.429688 163.410156 C 98.429688 161.910156 98.859375 160.710938 99.710938 159.800781 C 100.558594 158.890625 101.691406 158.429688 103.089844 158.429688 C 104.5 158.429688 105.539062 158.878906 106.191406 159.769531 C 106.839844 160.660156 107.160156 162.070312 107.160156 164 L 101.179688 164 C 101.351562 165.839844 102.359375 166.761719 104.210938 166.761719 C 105.078125 166.761719 106.070312 166.550781 107.160156 166.148438 Z M 101.140625 162.53125 L 104.601562 162.53125 C 104.601562 160.878906 104.070312 160.058594 103.011719 160.058594 C 101.929688 160.058594 101.308594 160.878906 101.140625 162.53125 Z M 109.851562 168.300781 L 109.851562 158.648438 L 112.449219 158.648438 L 112.449219 160.46875 C 113.300781 159.109375 114.398438 158.429688 115.738281 158.429688 C 116.601562 158.429688 117.28125 158.710938 117.78125 159.25 C 118.28125 159.789062 118.53125 160.539062 118.53125 161.480469 L 118.53125 168.300781 L 115.921875 168.300781 L 115.921875 162.121094 C 115.921875 161.03125 115.558594 160.480469 114.828125 160.480469 C 114.011719 160.480469 113.210938 161.058594 112.449219 162.230469 L 112.449219 168.300781 Z M 126.648438 168.25 C 126.03125 168.429688 125.539062 168.519531 125.179688 168.519531 C 122.921875 168.519531 121.789062 167.46875 121.789062 165.359375 L 121.789062 160.28125 L 120.710938 160.28125 L 120.710938 158.648438 L 121.789062 158.648438 L 121.789062 157.03125 L 124.398438 156.730469 L 124.398438 158.648438 L 126.460938 158.648438 L 126.460938 160.28125 L 124.398438 160.28125 L 124.398438 165.019531 C 124.398438 166.199219 124.878906 166.789062 125.851562 166.789062 C 126.070312 166.789062 126.339844 166.75 126.648438 166.671875 Z M 126.648438 168.25 "/>
<path fill-rule="nonzero" fill="rgb(0%, 0%, 0%)" fill-opacity="1" d="M 320.878906 172.359375 L 320.878906 167.398438 C 323.988281 168.699219 326.648438 169.359375 328.871094 169.359375 C 330.410156 169.359375 331.640625 169.011719 332.53125 168.320312 C 333.421875 167.628906 333.871094 166.691406 333.871094 165.511719 C 333.871094 164.570312 333.589844 163.78125 333.03125 163.128906 C 332.46875 162.488281 331.398438 161.730469 329.839844 160.839844 L 327.910156 159.769531 C 325.320312 158.308594 323.488281 156.910156 322.421875 155.578125 C 321.351562 154.238281 320.820312 152.679688 320.820312 150.898438 C 320.820312 148.519531 321.691406 146.601562 323.449219 145.160156 C 325.199219 143.710938 327.511719 142.988281 330.390625 142.988281 C 332.691406 142.988281 335.289062 143.320312 338.179688 143.980469 L 338.179688 148.609375 C 335.230469 147.511719 332.890625 146.949219 331.171875 146.949219 C 329.839844 146.949219 328.78125 147.25 327.980469 147.839844 C 327.179688 148.429688 326.78125 149.210938 326.78125 150.179688 C 326.78125 150.96875 327.058594 151.671875 327.621094 152.269531 C 328.179688 152.859375 329.230469 153.601562 330.78125 154.46875 L 332.851562 155.621094 C 335.640625 157.191406 337.558594 158.628906 338.609375 159.941406 C 339.671875 161.261719 340.191406 162.859375 340.191406 164.75 C 340.191406 167.429688 339.199219 169.53125 337.210938 171.050781 C 335.210938 172.578125 332.46875 173.339844 328.960938 173.339844 C 326.648438 173.339844 323.949219 173.011719 320.878906 172.359375 Z M 356.398438 172.5 C 355.019531 172.898438 353.941406 173.109375 353.140625 173.109375 C 348.128906 173.109375 345.621094 170.761719 345.621094 166.070312 L 345.621094 154.789062 L 343.21875 154.789062 L 343.21875 151.171875 L 345.621094 151.171875 L 345.621094 147.558594 L 351.398438 146.890625 L 351.398438 151.171875 L 355.988281 151.171875 L 355.988281 154.789062 L 351.398438 154.789062 L 351.398438 165.308594 C 351.398438 167.941406 352.480469 169.261719 354.628906 169.261719 C 355.121094 169.261719 355.710938 169.171875 356.398438 168.980469 Z M 370.558594 173.109375 C 367.21875 173.109375 364.558594 172.089844 362.589844 170.070312 C 360.609375 168.039062 359.628906 165.320312 359.628906 161.890625 C 359.628906 158.429688 360.621094 155.699219 362.609375 153.691406 C 364.589844 151.691406 367.289062 150.679688 370.699219 150.679688 C 374.128906 150.679688 376.828125 151.691406 378.820312 153.691406 C 380.800781 155.699219 381.789062 158.421875 381.789062 161.859375 C 381.789062 165.371094 380.800781 168.121094 378.808594 170.121094 C 376.808594 172.109375 374.070312 173.109375 370.558594 173.109375 Z M 370.660156 169.488281 C 373.980469 169.488281 375.640625 166.949219 375.640625 161.859375 C 375.640625 159.519531 375.199219 157.679688 374.320312 156.328125 C 373.449219 154.96875 372.238281 154.300781 370.699219 154.300781 C 369.179688 154.300781 367.980469 154.96875 367.101562 156.328125 C 366.21875 157.679688 365.78125 159.539062 365.78125 161.890625 C 365.78125 164.230469 366.21875 166.070312 367.089844 167.441406 C 367.960938 168.808594 369.148438 169.488281 370.660156 169.488281 Z M 387.109375 172.621094 L 387.109375 151.171875 L 392.890625 151.171875 L 392.890625 155.210938 C 394.390625 152.191406 396.660156 150.679688 399.71875 150.679688 C 400.089844 150.679688 400.449219 150.71875 400.800781 150.800781 L 400.800781 155.960938 C 399.980469 155.660156 399.21875 155.511719 398.511719 155.511719 C 396.210938 155.511719 394.328125 156.671875 392.890625 159 L 392.890625 172.621094 Z M 422.75 171.890625 C 420 172.699219 417.398438 173.109375 414.941406 173.109375 C 411.359375 173.109375 408.53125 172.089844 406.460938 170.058594 C 404.390625 168.03125 403.359375 165.25 403.359375 161.738281 C 403.359375 158.421875 404.300781 155.75 406.199219 153.71875 C 408.089844 151.699219 410.601562 150.679688 413.710938 150.679688 C 416.851562 150.679688 419.140625 151.671875 420.578125 153.648438 C 422.03125 155.628906 422.75 158.761719 422.75 163.050781 L 409.449219 163.050781 C 409.839844 167.140625 412.089844 169.179688 416.191406 169.179688 C 418.128906 169.179688 420.320312 168.730469 422.75 167.828125 Z M 409.371094 159.789062 L 417.070312 159.789062 C 417.070312 156.128906 415.890625 154.300781 413.53125 154.300781 C 411.140625 154.300781 409.75 156.128906 409.371094 159.789062 Z M 409.371094 159.789062 "/>
<path fill-rule="nonzero" fill="rgb(0%, 0%, 0%)" fill-opacity="1" d="M 519.660156 46.019531 C 518.78125 46.019531 518.101562 45.769531 517.601562 45.269531 C 517.109375 44.761719 516.859375 44.058594 516.859375 43.171875 L 516.859375 37.558594 L 515.671875 37.558594 L 515.671875 36.261719 L 516.859375 36.261719 L 516.859375 34.53125 L 518.601562 34.359375 L 518.601562 36.261719 L 521.089844 36.261719 L 521.089844 37.558594 L 518.601562 37.558594 L 518.601562 42.851562 C 518.601562 44.101562 519.140625 44.71875 520.210938 44.71875 C 520.441406 44.71875 520.71875 44.679688 521.050781 44.609375 L 521.050781 45.800781 C 520.519531 45.949219 520.050781 46.019531 519.660156 46.019531 Z M 523.53125 45.800781 L 523.53125 36.261719 L 525.261719 36.261719 L 525.261719 38.050781 C 525.941406 36.710938 526.941406 36.050781 528.25 36.050781 C 528.421875 36.050781 528.609375 36.058594 528.800781 36.089844 L 528.800781 37.710938 C 528.5 37.609375 528.238281 37.558594 528.011719 37.558594 C 526.910156 37.558594 526 38.210938 525.261719 39.511719 L 525.261719 45.800781 Z M 530.890625 45.800781 L 530.890625 36.261719 L 532.621094 36.261719 L 532.621094 45.800781 Z M 530.890625 34.53125 L 530.890625 32.789062 L 532.621094 32.789062 L 532.621094 34.53125 Z M 536.128906 48.980469 L 536.328125 47.46875 C 537.328125 47.949219 538.320312 48.179688 539.289062 48.179688 C 541.25 48.179688 542.21875 47.148438 542.21875 45.078125 L 542.21875 43.578125 C 541.578125 44.921875 540.53125 45.578125 539.070312 45.578125 C 537.929688 45.578125 537.019531 45.171875 536.351562 44.328125 C 535.679688 43.5 535.339844 42.378906 535.339844 40.96875 C 535.339844 39.519531 535.71875 38.328125 536.488281 37.421875 C 537.261719 36.5 538.25 36.050781 539.46875 36.050781 C 540.539062 36.050781 541.449219 36.480469 542.21875 37.351562 L 542.21875 36.261719 L 543.960938 36.261719 L 543.960938 43.199219 C 543.960938 44.699219 543.878906 45.800781 543.730469 46.519531 C 543.570312 47.238281 543.28125 47.820312 542.851562 48.28125 C 542.101562 49.078125 540.921875 49.488281 539.328125 49.488281 C 538.21875 49.488281 537.148438 49.320312 536.128906 48.980469 Z M 542.21875 42.5 L 542.21875 38.53125 C 541.460938 37.738281 540.628906 37.351562 539.730469 37.351562 C 538.941406 37.351562 538.308594 37.671875 537.859375 38.308594 C 537.410156 38.941406 537.191406 39.820312 537.191406 40.929688 C 537.191406 43.03125 537.921875 44.070312 539.390625 44.070312 C 540.390625 44.070312 541.339844 43.550781 542.21875 42.5 Z M 547.351562 48.980469 L 547.558594 47.46875 C 548.558594 47.949219 549.550781 48.179688 550.519531 48.179688 C 552.46875 48.179688 553.441406 47.148438 553.441406 45.078125 L 553.441406 43.578125 C 552.808594 44.921875 551.761719 45.578125 550.300781 45.578125 C 549.160156 45.578125 548.25 45.171875 547.570312 44.328125 C 546.898438 43.5 546.558594 42.378906 546.558594 40.96875 C 546.558594 39.519531 546.949219 38.328125 547.710938 37.421875 C 548.480469 36.5 549.480469 36.050781 550.691406 36.050781 C 551.761719 36.050781 552.679688 36.480469 553.441406 37.351562 L 553.441406 36.261719 L 555.191406 36.261719 L 555.191406 43.199219 C 555.191406 44.699219 555.109375 45.800781 554.949219 46.519531 C 554.800781 47.238281 554.511719 47.820312 554.078125 48.28125 C 553.320312 49.078125 552.148438 49.488281 550.550781 49.488281 C 549.441406 49.488281 548.371094 49.320312 547.351562 48.980469 Z M 553.441406 42.5 L 553.441406 38.53125 C 552.679688 37.738281 551.851562 37.351562 550.960938 37.351562 C 550.160156 37.351562 549.539062 37.671875 549.089844 38.308594 C 548.628906 38.941406 548.410156 39.820312 548.410156 40.929688 C 548.410156 43.03125 549.140625 44.070312 550.609375 44.070312 C 551.621094 44.070312 552.558594 43.550781 553.441406 42.5 Z M 565.5 45.5 C 564.398438 45.851562 563.398438 46.019531 562.601562 46.019531 C 561.199219 46.019531 560 45.558594 559.101562 44.621094 C 558.199219 43.691406 557.789062 42.46875 557.789062 40.988281 C 557.789062 39.539062 558.199219 38.351562 559 37.429688 C 559.699219 36.5 560.699219 36.039062 562 36.039062 C 563.101562 36.039062 564 36.449219 564.601562 37.269531 C 565.300781 38.089844 565.601562 39.25 565.601562 40.769531 L 565.601562 41.300781 L 559.601562 41.300781 C 559.800781 43.570312 560.898438 44.699219 562.898438 44.699219 C 563.601562 44.699219 564.5 44.511719 565.5 44.121094 Z M 559.601562 40 L 563.800781 40 C 563.800781 38.230469 563.199219 37.339844 561.898438 37.339844 C 560.5 37.339844 559.800781 38.230469 559.601562 40 Z M 568.601562 45.800781 L 568.601562 36.261719 L 570.300781 36.261719 L 570.300781 38.050781 C 571 36.710938 572 36.050781 573.300781 36.050781 C 573.5 36.050781 573.699219 36.058594 573.800781 36.089844 L 573.800781 37.710938 C 573.5 37.609375 573.300781 37.558594 573.101562 37.558594 C 572 37.558594 571 38.210938 570.300781 39.511719 L 570.300781 45.800781 Z M 578.800781 46.019531 C 577.898438 46.019531 577.199219 45.769531 576.699219 45.269531 C 576.300781 44.761719 576 44.058594 576 43.171875 L 576 37.558594 L 574.800781 37.558594 L 574.800781 36.261719 L 576 36.261719 L 576 34.53125 L 577.699219 34.359375 L 577.699219 36.261719 L 580.199219 36.261719 L 580.199219 37.558594 L 577.699219 37.558594 L 577.699219 42.851562 C 577.699219 44.101562 578.300781 44.71875 579.398438 44.71875 C 579.601562 44.71875 579.898438 44.679688 580.199219 44.609375 L 580.199219 45.800781 C 579.699219 45.949219 579.199219 46.019531 578.800781 46.019531 Z M 578.800781 46.019531 "/>
<path fill-rule="nonzero" fill="rgb(0%, 0%, 0%)" fill-opacity="1" d="M 523.289062 285.5 C 522.128906 285.851562 521.140625 286.019531 520.308594 286.019531 C 518.910156 286.019531 517.761719 285.558594 516.871094 284.621094 C 515.988281 283.691406 515.539062 282.46875 515.539062 280.988281 C 515.539062 279.539062 515.929688 278.351562 516.71875 277.429688 C 517.5 276.5 518.5 276.039062 519.71875 276.039062 C 520.871094 276.039062 521.761719 276.449219 522.390625 277.269531 C 523.019531 278.089844 523.339844 279.25 523.339844 280.769531 L 523.328125 281.300781 L 517.308594 281.300781 C 517.558594 283.570312 518.671875 284.699219 520.640625 284.699219 C 521.359375 284.699219 522.25 284.511719 523.289062 284.121094 Z M 517.390625 280 L 521.601562 280 C 521.601562 278.230469 520.941406 277.339844 519.609375 277.339844 C 518.28125 277.339844 517.539062 278.230469 517.390625 280 Z M 526.328125 285.800781 L 526.328125 276.261719 L 528.058594 276.261719 L 528.058594 278.050781 C 528.738281 276.710938 529.738281 276.050781 531.050781 276.050781 C 531.21875 276.050781 531.410156 276.058594 531.601562 276.089844 L 531.601562 277.710938 C 531.300781 277.609375 531.039062 277.558594 530.808594 277.558594 C 529.710938 277.558594 528.800781 278.210938 528.058594 279.511719 L 528.058594 285.800781 Z M 533.039062 285.800781 L 533.039062 284.5 L 538.949219 277.558594 L 533.308594 277.558594 L 533.308594 276.261719 L 541.078125 276.261719 L 541.078125 277.558594 L 535.179688 284.5 L 541.199219 284.5 L 541.199219 285.800781 Z M 551.011719 285.5 C 549.851562 285.851562 548.851562 286.019531 548.03125 286.019531 C 546.621094 286.019531 545.46875 285.558594 544.589844 284.621094 C 543.699219 283.691406 543.25 282.46875 543.25 280.988281 C 543.25 279.539062 543.648438 278.351562 544.429688 277.429688 C 545.210938 276.5 546.210938 276.039062 547.429688 276.039062 C 548.578125 276.039062 549.480469 276.449219 550.101562 277.269531 C 550.730469 278.089844 551.050781 279.25 551.050781 280.769531 L 551.039062 281.300781 L 545.019531 281.300781 C 545.269531 283.570312 546.378906 284.699219 548.351562 284.699219 C 549.070312 284.699219 549.960938 284.511719 551.011719 284.121094 Z M 545.101562 280 L 549.308594 280 C 549.308594 278.230469 548.648438 277.339844 547.320312 277.339844 C 545.988281 277.339844 545.25 278.230469 545.101562 280 Z M 560 285.800781 L 560 284.011719 C 559.101562 285.351562 557.96875 286.019531 556.660156 286.019531 C 555.828125 286.019531 555.160156 285.761719 554.671875 285.238281 C 554.179688 284.710938 553.929688 284 553.929688 283.109375 L 553.929688 276.261719 L 555.660156 276.261719 L 555.660156 282.550781 C 555.660156 283.269531 555.769531 283.769531 555.980469 284.078125 C 556.179688 284.378906 556.53125 284.53125 557.019531 284.53125 C 558.101562 284.53125 559.101562 283.828125 560 282.449219 L 560 276.261719 L 561.699219 276.261719 L 561.699219 285.800781 Z M 565.199219 288.980469 L 565.398438 287.46875 C 566.398438 287.949219 567.398438 288.179688 568.398438 288.179688 C 570.398438 288.179688 571.300781 287.148438 571.300781 285.078125 L 571.300781 283.578125 C 570.699219 284.921875 569.601562 285.578125 568.199219 285.578125 C 567 285.578125 566.101562 285.171875 565.5 284.328125 C 564.800781 283.5 564.5 282.378906 564.5 280.96875 C 564.5 279.519531 564.800781 278.328125 565.601562 277.421875 C 566.398438 276.5 567.398438 276.050781 568.601562 276.050781 C 569.699219 276.050781 570.601562 276.480469 571.300781 277.351562 L 571.300781 276.261719 L 573.101562 276.261719 L 573.101562 283.199219 C 573.101562 284.699219 573 285.800781 572.800781 286.519531 C 572.699219 287.238281 572.398438 287.820312 572 288.28125 C 571.199219 289.078125 570 289.488281 568.398438 289.488281 C 567.300781 289.488281 566.300781 289.320312 565.199219 288.980469 Z M 571.300781 282.5 L 571.300781 278.53125 C 570.601562 277.738281 569.699219 277.351562 568.800781 277.351562 C 568.101562 277.351562 567.398438 277.671875 567 278.308594 C 566.5 278.941406 566.300781 279.820312 566.300781 280.929688 C 566.300781 283.03125 567 284.070312 568.5 284.070312 C 569.5 284.070312 570.5 283.550781 571.300781 282.5 Z M 579.300781 286.019531 C 578.398438 286.019531 577.699219 285.769531 577.199219 285.269531 C 576.699219 284.761719 576.5 284.058594 576.5 283.171875 L 576.5 277.558594 L 575.300781 277.558594 L 575.300781 276.261719 L 576.5 276.261719 L 576.5 274.53125 L 578.199219 274.359375 L 578.199219 276.261719 L 580.699219 276.261719 L 580.699219 277.558594 L 578.199219 277.558594 L 578.199219 282.851562 C 578.199219 284.101562 578.800781 284.71875 579.898438 284.71875 C 580.101562 284.71875 580.398438 284.679688 580.699219 284.609375 L 580.699219 285.800781 C 580.199219 285.949219 579.699219 286.019531 579.300781 286.019531 Z M 579.300781 286.019531 "/>
<path fill-rule="nonzero" fill="rgb(0%, 0%, 0%)" fill-opacity="1" d="M 130.660156 45.800781 L 130.660156 31.921875 L 132.390625 31.921875 L 132.390625 45.800781 Z M 139.589844 46.019531 C 138.230469 46.019531 137.140625 45.570312 136.328125 44.660156 C 135.511719 43.761719 135.101562 42.550781 135.101562 41.03125 C 135.101562 39.5 135.511719 38.28125 136.328125 37.390625 C 137.148438 36.488281 138.261719 36.050781 139.660156 36.050781 C 141.058594 36.050781 142.171875 36.488281 142.980469 37.390625 C 143.800781 38.28125 144.210938 39.488281 144.210938 41.011719 C 144.210938 42.570312 143.800781 43.800781 142.980469 44.691406 C 142.160156 45.578125 141.03125 46.019531 139.589844 46.019531 Z M 139.621094 44.71875 C 141.460938 44.71875 142.371094 43.488281 142.371094 41.011719 C 142.371094 38.570312 141.46875 37.351562 139.660156 37.351562 C 137.851562 37.351562 136.949219 38.578125 136.949219 41.03125 C 136.949219 43.488281 137.839844 44.71875 139.621094 44.71875 Z M 137.160156 34.53125 L 137.160156 33.011719 L 138.679688 33.011719 L 138.679688 34.53125 Z M 140.628906 34.53125 L 140.628906 33.011719 L 142.148438 33.011719 L 142.148438 34.53125 Z M 149.449219 46.019531 C 148.660156 46.019531 147.699219 45.839844 146.558594 45.46875 L 146.558594 43.878906 C 147.699219 44.441406 148.679688 44.71875 149.519531 44.71875 C 150.019531 44.71875 150.429688 44.589844 150.761719 44.320312 C 151.078125 44.050781 151.25 43.710938 151.25 43.308594 C 151.25 42.710938 150.789062 42.230469 149.871094 41.839844 L 148.859375 41.410156 C 147.359375 40.789062 146.621094 39.890625 146.621094 38.730469 C 146.621094 37.898438 146.910156 37.238281 147.5 36.761719 C 148.089844 36.289062 148.898438 36.050781 149.921875 36.050781 C 150.460938 36.050781 151.109375 36.121094 151.898438 36.269531 L 152.261719 36.339844 L 152.261719 37.78125 C 151.289062 37.488281 150.53125 37.351562 149.960938 37.351562 C 148.839844 37.351562 148.289062 37.75 148.289062 38.558594 C 148.289062 39.078125 148.710938 39.519531 149.550781 39.878906 L 150.390625 40.230469 C 151.328125 40.628906 152 41.050781 152.390625 41.488281 C 152.78125 41.929688 152.980469 42.488281 152.980469 43.148438 C 152.980469 43.988281 152.648438 44.671875 151.988281 45.210938 C 151.328125 45.75 150.480469 46.019531 149.449219 46.019531 Z M 158.960938 46.019531 C 158.078125 46.019531 157.390625 45.769531 156.898438 45.269531 C 156.410156 44.761719 156.160156 44.058594 156.160156 43.171875 L 156.160156 37.558594 L 154.96875 37.558594 L 154.96875 36.261719 L 156.160156 36.261719 L 156.160156 34.53125 L 157.890625 34.359375 L 157.890625 36.261719 L 160.390625 36.261719 L 160.390625 37.558594 L 157.890625 37.558594 L 157.890625 42.851562 C 157.890625 44.101562 158.429688 44.71875 159.511719 44.71875 C 159.738281 44.71875 160.019531 44.679688 160.351562 44.609375 L 160.351562 45.800781 C 159.808594 45.949219 159.351562 46.019531 158.960938 46.019531 Z M 173.441406 44.589844 C 172.398438 45.539062 171.410156 46.019531 170.441406 46.019531 C 169.648438 46.019531 169 45.769531 168.480469 45.28125 C 167.949219 44.78125 167.691406 44.160156 167.691406 43.398438 C 167.691406 42.359375 168.128906 41.558594 169.011719 41 C 169.878906 40.441406 171.140625 40.160156 172.769531 40.160156 L 173.191406 40.160156 L 173.191406 39.011719 C 173.191406 37.898438 172.621094 37.351562 171.480469 37.351562 C 170.570312 37.351562 169.578125 37.628906 168.519531 38.191406 L 168.519531 36.761719 C 169.691406 36.28125 170.78125 36.050781 171.800781 36.050781 C 172.859375 36.050781 173.648438 36.289062 174.160156 36.769531 C 174.660156 37.25 174.921875 38 174.921875 39.011719 L 174.921875 43.328125 C 174.921875 44.320312 175.21875 44.820312 175.828125 44.820312 C 175.910156 44.820312 176.019531 44.808594 176.171875 44.78125 L 176.289062 45.738281 C 175.898438 45.929688 175.460938 46.019531 174.988281 46.019531 C 174.179688 46.019531 173.660156 45.539062 173.441406 44.589844 Z M 173.191406 43.648438 L 173.191406 41.179688 L 172.609375 41.160156 C 171.660156 41.160156 170.890625 41.339844 170.300781 41.699219 C 169.71875 42.058594 169.421875 42.539062 169.421875 43.121094 C 169.421875 43.539062 169.570312 43.890625 169.859375 44.179688 C 170.160156 44.460938 170.511719 44.609375 170.941406 44.609375 C 171.660156 44.609375 172.410156 44.289062 173.191406 43.648438 Z M 184.429688 45.800781 L 184.429688 44.011719 C 183.511719 45.351562 182.390625 46.019531 181.078125 46.019531 C 180.25 46.019531 179.578125 45.761719 179.089844 45.238281 C 178.601562 44.710938 178.351562 44 178.351562 43.109375 L 178.351562 36.261719 L 180.089844 36.261719 L 180.089844 42.550781 C 180.089844 43.269531 180.191406 43.769531 180.398438 44.078125 C 180.609375 44.378906 180.949219 44.53125 181.441406 44.53125 C 182.488281 44.53125 183.488281 43.828125 184.429688 42.449219 L 184.429688 36.261719 L 186.160156 36.261719 L 186.160156 45.800781 Z M 192.160156 46.019531 C 191.371094 46.019531 190.410156 45.839844 189.28125 45.46875 L 189.28125 43.878906 C 190.410156 44.441406 191.390625 44.71875 192.230469 44.71875 C 192.730469 44.71875 193.140625 44.589844 193.46875 44.320312 C 193.800781 44.050781 193.960938 43.710938 193.960938 43.308594 C 193.960938 42.710938 193.5 42.230469 192.578125 41.839844 L 191.570312 41.410156 C 190.078125 40.789062 189.328125 39.890625 189.328125 38.730469 C 189.328125 37.898438 189.628906 37.238281 190.21875 36.761719 C 190.800781 36.289062 191.609375 36.050781 192.640625 36.050781 C 193.171875 36.050781 193.828125 36.121094 194.609375 36.269531 L 194.96875 36.339844 L 194.96875 37.78125 C 194.011719 37.488281 193.238281 37.351562 192.671875 37.351562 C 191.558594 37.351562 191 37.75 191 38.558594 C 191 39.078125 191.421875 39.519531 192.269531 39.878906 L 193.101562 40.230469 C 194.050781 40.628906 194.710938 41.050781 195.109375 41.488281 C 195.5 41.929688 195.699219 42.488281 195.699219 43.148438 C 195.699219 43.988281 195.359375 44.671875 194.699219 45.210938 C 194.039062 45.75 193.191406 46.019531 192.160156 46.019531 Z M 192.160156 46.019531 "/>
<path fill-rule="nonzero" fill="rgb(0%, 0%, 0%)" fill-opacity="1" d="M 89.289062 290.800781 L 86.558594 281.261719 L 88.25 281.261719 L 90.339844 288.648438 L 92.601562 281.261719 L 94.328125 281.261719 L 96.308594 288.648438 L 98.710938 281.261719 L 100.199219 281.261719 L 97.078125 290.800781 L 95.339844 290.800781 L 93.320312 283.410156 L 91.039062 290.800781 Z M 102.050781 290.800781 L 102.050781 281.261719 L 103.78125 281.261719 L 103.78125 290.800781 Z M 102.050781 279.53125 L 102.050781 277.789062 L 103.78125 277.789062 L 103.78125 279.53125 Z M 107.25 290.800781 L 107.25 281.261719 L 108.988281 281.261719 L 108.988281 283.050781 C 109.671875 281.710938 110.671875 281.050781 111.96875 281.050781 C 112.148438 281.050781 112.328125 281.058594 112.53125 281.089844 L 112.53125 282.710938 C 112.230469 282.609375 111.960938 282.558594 111.738281 282.558594 C 110.640625 282.558594 109.71875 283.210938 108.988281 284.511719 L 108.988281 290.800781 Z M 120.75 290.800781 L 120.75 289.011719 C 120.039062 290.351562 118.980469 291.019531 117.558594 291.019531 C 116.421875 291.019531 115.511719 290.601562 114.851562 289.769531 C 114.191406 288.929688 113.859375 287.78125 113.859375 286.328125 C 113.859375 284.738281 114.238281 283.460938 114.980469 282.5 C 115.730469 281.53125 116.710938 281.050781 117.929688 281.050781 C 119.058594 281.050781 120 281.480469 120.75 282.351562 L 120.75 276.921875 L 122.488281 276.921875 L 122.488281 290.800781 Z M 120.75 283.53125 C 119.851562 282.738281 119 282.351562 118.199219 282.351562 C 116.539062 282.351562 115.710938 283.621094 115.710938 286.148438 C 115.710938 288.390625 116.449219 289.5 117.921875 289.5 C 118.878906 289.5 119.828125 288.980469 120.75 287.929688 Z M 131.679688 293.980469 L 131.878906 292.46875 C 132.878906 292.949219 133.871094 293.179688 134.839844 293.179688 C 136.789062 293.179688 137.769531 292.148438 137.769531 290.078125 L 137.769531 288.578125 C 137.128906 289.921875 136.078125 290.578125 134.621094 290.578125 C 133.480469 290.578125 132.570312 290.171875 131.898438 289.328125 C 131.21875 288.5 130.890625 287.378906 130.890625 285.96875 C 130.890625 284.519531 131.269531 283.328125 132.039062 282.421875 C 132.808594 281.5 133.800781 281.050781 135.019531 281.050781 C 136.078125 281.050781 137 281.480469 137.769531 282.351562 L 137.769531 281.261719 L 139.511719 281.261719 L 139.511719 288.199219 C 139.511719 289.699219 139.429688 290.800781 139.28125 291.519531 C 139.121094 292.238281 138.828125 292.820312 138.398438 293.28125 C 137.648438 294.078125 136.46875 294.488281 134.878906 294.488281 C 133.761719 294.488281 132.699219 294.320312 131.679688 293.980469 Z M 137.769531 287.5 L 137.769531 283.53125 C 137.011719 282.738281 136.179688 282.351562 135.28125 282.351562 C 134.488281 282.351562 133.859375 282.671875 133.410156 283.308594 C 132.960938 283.941406 132.730469 284.820312 132.730469 285.929688 C 132.730469 288.03125 133.46875 289.070312 134.941406 289.070312 C 135.941406 289.070312 136.878906 288.550781 137.769531 287.5 Z M 149.859375 290.5 C 148.699219 290.851562 147.710938 291.019531 146.878906 291.019531 C 145.480469 291.019531 144.328125 290.558594 143.441406 289.621094 C 142.558594 288.691406 142.109375 287.46875 142.109375 285.988281 C 142.109375 284.539062 142.5 283.351562 143.28125 282.429688 C 144.070312 281.5 145.070312 281.039062 146.289062 281.039062 C 147.441406 281.039062 148.328125 281.449219 148.960938 282.269531 C 149.589844 283.089844 149.910156 284.25 149.910156 285.769531 L 149.898438 286.300781 L 143.878906 286.300781 C 144.128906 288.570312 145.238281 289.699219 147.210938 289.699219 C 147.929688 289.699219 148.808594 289.511719 149.859375 289.121094 Z M 143.960938 285 L 148.171875 285 C 148.171875 283.230469 147.5 282.339844 146.179688 282.339844 C 144.851562 282.339844 144.109375 283.230469 143.960938 285 Z M 152.898438 294.269531 L 152.898438 281.261719 L 154.628906 281.261719 L 154.628906 283.050781 C 155.339844 281.710938 156.398438 281.050781 157.820312 281.050781 C 158.96875 281.050781 159.871094 281.46875 160.53125 282.300781 C 161.191406 283.140625 161.519531 284.289062 161.519531 285.738281 C 161.519531 287.320312 161.140625 288.601562 160.398438 289.570312 C 159.648438 290.539062 158.671875 291.019531 157.449219 291.019531 C 156.320312 291.019531 155.378906 290.589844 154.628906 289.71875 L 154.628906 294.269531 Z M 154.628906 288.53125 C 155.519531 289.320312 156.371094 289.71875 157.179688 289.71875 C 158.839844 289.71875 159.671875 288.449219 159.671875 285.921875 C 159.671875 283.679688 158.929688 282.558594 157.460938 282.558594 C 156.488281 282.558594 155.550781 283.078125 154.628906 284.128906 Z M 170.191406 290.800781 L 170.191406 289.011719 C 169.269531 290.351562 168.160156 291.019531 166.839844 291.019531 C 166.011719 291.019531 165.351562 290.761719 164.859375 290.238281 C 164.371094 289.710938 164.121094 289 164.121094 288.109375 L 164.121094 281.261719 L 165.851562 281.261719 L 165.851562 287.550781 C 165.851562 288.269531 165.949219 288.769531 166.160156 289.078125 C 166.371094 289.378906 166.71875 289.53125 167.199219 289.53125 C 168.261719 289.53125 169.25 288.828125 170.191406 287.449219 L 170.191406 281.261719 L 171.921875 281.261719 L 171.921875 290.800781 Z M 177.929688 291.019531 C 177.140625 291.019531 176.171875 290.839844 175.039062 290.46875 L 175.039062 288.878906 C 176.171875 289.441406 177.160156 289.71875 178 289.71875 C 178.5 289.71875 178.910156 289.589844 179.238281 289.320312 C 179.558594 289.050781 179.730469 288.710938 179.730469 288.308594 C 179.730469 287.710938 179.269531 287.230469 178.351562 286.839844 L 177.339844 286.410156 C 175.839844 285.789062 175.101562 284.890625 175.101562 283.730469 C 175.101562 282.898438 175.390625 282.238281 175.980469 281.761719 C 176.570312 281.289062 177.378906 281.050781 178.398438 281.050781 C 178.929688 281.050781 179.589844 281.121094 180.378906 281.269531 L 180.738281 281.339844 L 180.738281 282.78125 C 179.769531 282.488281 179 282.351562 178.441406 282.351562 C 177.320312 282.351562 176.769531 282.75 176.769531 283.558594 C 176.769531 284.078125 177.191406 284.519531 178.03125 284.878906 L 178.871094 285.230469 C 179.808594 285.628906 180.480469 286.050781 180.871094 286.488281 C 181.261719 286.929688 181.460938 287.488281 181.460938 288.148438 C 181.460938 288.988281 181.128906 289.671875 180.46875 290.210938 C 179.800781 290.75 178.960938 291.019531 177.929688 291.019531 Z M 184.570312 290.800781 L 184.570312 276.921875 L 186.300781 276.921875 L 186.300781 283.050781 C 187.21875 281.710938 188.339844 281.050781 189.660156 281.050781 C 190.488281 281.050781 191.148438 281.308594 191.640625 281.828125 C 192.128906 282.359375 192.378906 283.058594 192.378906 283.949219 L 192.378906 290.800781 L 190.640625 290.800781 L 190.640625 284.511719 C 190.640625 283.800781 190.539062 283.300781 190.328125 282.988281 C 190.121094 282.691406 189.78125 282.539062 189.300781 282.539062 C 188.238281 282.539062 187.238281 283.238281 186.300781 284.621094 L 186.300781 290.800781 Z M 198.609375 291.019531 C 197.730469 291.019531 197.039062 290.769531 196.550781 290.269531 C 196.058594 289.761719 195.808594 289.058594 195.808594 288.171875 L 195.808594 282.558594 L 194.621094 282.558594 L 194.621094 281.261719 L 195.808594 281.261719 L 195.808594 279.53125 L 197.539062 279.359375 L 197.539062 281.261719 L 200.039062 281.261719 L 200.039062 282.558594 L 197.539062 282.558594 L 197.539062 287.851562 C 197.539062 289.101562 198.078125 289.71875 199.160156 289.71875 C 199.390625 289.71875 199.671875 289.679688 200 289.609375 L 200 290.800781 C 199.460938 290.949219 199 291.019531 198.609375 291.019531 Z M 213.089844 289.589844 C 212.050781 290.539062 211.058594 291.019531 210.089844 291.019531 C 209.300781 291.019531 208.648438 290.769531 208.128906 290.28125 C 207.601562 289.78125 207.339844 289.160156 207.339844 288.398438 C 207.339844 287.359375 207.78125 286.558594 208.660156 286 C 209.53125 285.441406 210.789062 285.160156 212.421875 285.160156 L 212.839844 285.160156 L 212.839844 284.011719 C 212.839844 282.898438 212.269531 282.351562 211.128906 282.351562 C 210.21875 282.351562 209.230469 282.628906 208.171875 283.191406 L 208.171875 281.761719 C 209.339844 281.28125 210.429688 281.050781 211.449219 281.050781 C 212.511719 281.050781 213.300781 281.289062 213.808594 281.769531 C 214.308594 282.25 214.570312 283 214.570312 284.011719 L 214.570312 288.328125 C 214.570312 289.320312 214.871094 289.820312 215.480469 289.820312 C 215.558594 289.820312 215.671875 289.808594 215.820312 289.78125 L 215.941406 290.738281 C 215.550781 290.929688 215.109375 291.019531 214.640625 291.019531 C 213.828125 291.019531 213.308594 290.539062 213.089844 289.589844 Z M 212.839844 288.648438 L 212.839844 286.179688 L 212.261719 286.160156 C 211.308594 286.160156 210.539062 286.339844 209.949219 286.699219 C 209.371094 287.058594 209.078125 287.539062 209.078125 288.121094 C 209.078125 288.539062 209.21875 288.890625 209.511719 289.179688 C 209.808594 289.460938 210.171875 289.609375 210.589844 289.609375 C 211.308594 289.609375 212.058594 289.289062 212.839844 288.648438 Z M 218.109375 290.800781 L 218.109375 281.261719 L 219.839844 281.261719 L 219.839844 283.050781 C 220.761719 281.710938 221.878906 281.050781 223.199219 281.050781 C 224.03125 281.050781 224.679688 281.308594 225.179688 281.828125 C 225.671875 282.359375 225.921875 283.058594 225.921875 283.949219 L 225.921875 290.800781 L 224.179688 290.800781 L 224.179688 284.511719 C 224.179688 283.800781 224.078125 283.300781 223.871094 282.988281 C 223.660156 282.691406 223.320312 282.539062 222.839844 282.539062 C 221.78125 282.539062 220.78125 283.238281 219.839844 284.621094 L 219.839844 290.800781 Z M 218.109375 290.800781 "/>
<path fill="none" stroke-width="5" stroke-linecap="butt" stroke-linejoin="miter" stroke="rgb(0%, 0%, 0%)" stroke-opacity="1" stroke-miterlimit="1.45" d="M 890.011719 312 L 1066 312 L 1066 370.039062 " transform="matrix(1, 0, 0, 1, -442, -252)"/>
<path fill-rule="nonzero" fill="rgb(0%, 0%, 0%)" fill-opacity="1" d="M 624 130.039062 L 631.5 112.039062 L 624 116.539062 L 616.5 112.039062 Z M 624 130.039062 "/>
<path fill="none" stroke-width="5" stroke-linecap="butt" stroke-linejoin="miter" stroke="rgb(0%, 0%, 0%)" stroke-opacity="1" stroke-miterlimit="1.45" d="M 1066 439.960938 L 1066 510 L 902.011719 510 " transform="matrix(1, 0, 0, 1, -442, -252)"/>
<path fill-rule="nonzero" fill="rgb(0%, 0%, 0%)" fill-opacity="1" d="M 448.011719 258 L 466.011719 265.5 L 461.511719 258 L 466.011719 250.5 Z M 448.011719 258 "/>
<path fill="none" stroke-width="5" stroke-linecap="butt" stroke-linejoin="miter" stroke="rgb(0%, 0%, 0%)" stroke-opacity="1" stroke-miterlimit="1.45" d="M 741.988281 510 L 516 510 L 516 462.019531 " transform="matrix(1, 0, 0, 1, -442, -252)"/>
<path fill-rule="nonzero" fill="rgb(0%, 0%, 0%)" fill-opacity="1" d="M 74 198.019531 L 66.5 216.019531 L 74 211.519531 L 81.5 216.019531 Z M 74 198.019531 "/>
<path fill="none" stroke-width="5" stroke-linecap="butt" stroke-linejoin="miter" stroke="rgb(0%, 0%, 0%)" stroke-opacity="1" stroke-miterlimit="1.45" d="M 516 376.96875 L 516 312 L 729.988281 312 " transform="matrix(1, 0, 0, 1, -442, -252)"/>
<path fill-rule="nonzero" fill="rgb(0%, 0%, 0%)" fill-opacity="1" d="M 299.988281 60 L 281.988281 52.5 L 286.488281 60 L 281.988281 67.5 Z M 299.988281 60 "/>
</svg>
