<?xml version="1.0" encoding="UTF-8"?><svg xmlns="http://www.w3.org/2000/svg" xmlns:xlink="http://www.w3.org/1999/xlink" fill-opacity="1" color-rendering="auto" color-interpolation="auto" text-rendering="auto" stroke="black" stroke-linecap="square" width="1018" stroke-miterlimit="10" shape-rendering="auto" stroke-opacity="1" fill="black" stroke-dasharray="none" font-weight="normal" stroke-width="1" height="384" font-family="'Dialog'" font-style="normal" stroke-linejoin="miter" font-size="12px" stroke-dashoffset="0" image-rendering="auto">
  <!--Generated by ySVG 2.6-->
  <defs id="genericDefs"/>
  <g>
    <defs id="defs1">
      <clipPath clipPathUnits="userSpaceOnUse" id="clipPath1">
        <path d="M0 0 L1018 0 L1018 384 L0 384 L0 0 Z"/>
      </clipPath>
      <clipPath clipPathUnits="userSpaceOnUse" id="clipPath2">
        <path d="M-5 182 L1013 182 L1013 566 L-5 566 L-5 182 Z"/>
      </clipPath>
      <clipPath clipPathUnits="userSpaceOnUse" id="clipPath3">
        <path d="M-41.294 1002.4232 L-41.294 -15.5769 L342.706 -15.5769 L342.706 1002.4232 L-41.294 1002.4232 Z"/>
      </clipPath>
    </defs>
    <g fill="white" text-rendering="geometricPrecision" shape-rendering="geometricPrecision" transform="translate(5,-182)" stroke="white">
      <rect x="-5" width="1018" height="384" y="182" clip-path="url(#clipPath2)" stroke="none"/>
    </g>
    <g text-rendering="geometricPrecision" shape-rendering="geometricPrecision" transform="matrix(1,0,0,1,5,-182)">
      <circle r="15" clip-path="url(#clipPath2)" cx="486.4865" cy="212.3757" stroke="none"/>
    </g>
    <g stroke-linecap="butt" font-size="16px" transform="matrix(1,0,0,1,5,-182)" fill="white" text-rendering="geometricPrecision" font-family="sans-serif" shape-rendering="geometricPrecision" stroke="white" font-weight="bold" stroke-miterlimit="1.45">
      <text x="481.2091" xml:space="preserve" y="218.4226" clip-path="url(#clipPath2)" stroke="none">1</text>
    </g>
    <g text-rendering="geometricPrecision" stroke-miterlimit="1.45" shape-rendering="geometricPrecision" transform="matrix(1,0,0,1,5,-182)" stroke-linecap="butt">
      <circle fill="none" r="15" clip-path="url(#clipPath2)" cx="486.4865" cy="212.3757"/>
    </g>
    <g fill="rgb(230,230,230)" text-rendering="geometricPrecision" shape-rendering="geometricPrecision" transform="matrix(1,0,0,1,5,-182)" stroke="rgb(230,230,230)">
      <rect x="339.9865" y="231.9136" clip-path="url(#clipPath2)" width="293" rx="4" ry="4" height="95" stroke="none"/>
    </g>
    <g font-size="17px" stroke-linecap="butt" transform="matrix(1,0,0,1,5,-182)" text-rendering="geometricPrecision" font-family="sans-serif" shape-rendering="geometricPrecision" font-weight="bold" stroke-miterlimit="1.45">
      <text x="397.859" xml:space="preserve" y="265.8169" clip-path="url(#clipPath2)" stroke="none">Nachrichten mit den</text>
      <text x="396.8505" xml:space="preserve" y="285.8383" clip-path="url(#clipPath2)" stroke="none">       -Attributen und</text>
      <text x="394.2067" xml:space="preserve" y="305.8598" clip-path="url(#clipPath2)" stroke="none">                 markieren</text>
      <rect x="339.9865" y="231.9136" clip-path="url(#clipPath2)" fill="none" width="293" rx="4" ry="4" height="95"/>
    </g>
    <g text-rendering="geometricPrecision" shape-rendering="geometricPrecision" transform="matrix(1,0,0,1,5,-182)">
      <circle r="15" clip-path="url(#clipPath2)" cx="802.9097" cy="212.3757" stroke="none"/>
    </g>
    <g stroke-linecap="butt" font-size="16px" transform="matrix(1,0,0,1,5,-182)" fill="white" text-rendering="geometricPrecision" font-family="sans-serif" shape-rendering="geometricPrecision" stroke="white" font-weight="bold" stroke-miterlimit="1.45">
      <text x="797.6324" xml:space="preserve" y="218.4226" clip-path="url(#clipPath2)" stroke="none">2</text>
    </g>
    <g text-rendering="geometricPrecision" stroke-miterlimit="1.45" shape-rendering="geometricPrecision" transform="matrix(1,0,0,1,5,-182)" stroke-linecap="butt">
      <circle fill="none" r="15" clip-path="url(#clipPath2)" cx="802.9097" cy="212.3757"/>
    </g>
    <g fill="rgb(230,230,230)" text-rendering="geometricPrecision" shape-rendering="geometricPrecision" transform="matrix(1,0,0,1,5,-182)" stroke="rgb(230,230,230)">
      <rect x="656.4097" y="231.9136" clip-path="url(#clipPath2)" width="293" rx="4" ry="4" height="95" stroke="none"/>
    </g>
    <g font-size="17px" stroke-linecap="butt" transform="matrix(1,0,0,1,5,-182)" text-rendering="geometricPrecision" font-family="sans-serif" shape-rendering="geometricPrecision" font-weight="bold" stroke-miterlimit="1.45">
      <text x="733.2537" xml:space="preserve" y="275.8276" clip-path="url(#clipPath2)" stroke="none">Nachrichten per</text>
      <text x="708.0235" xml:space="preserve" y="295.8491" clip-path="url(#clipPath2)" stroke="none">                extrahieren</text>
      <rect x="656.4097" y="231.9136" clip-path="url(#clipPath2)" fill="none" width="293" rx="4" ry="4" height="95"/>
    </g>
    <g text-rendering="geometricPrecision" shape-rendering="geometricPrecision" transform="matrix(1,0,0,1,5,-182)">
      <circle r="15" clip-path="url(#clipPath2)" cx="799.3257" cy="371.9136" stroke="none"/>
    </g>
    <g stroke-linecap="butt" font-size="16px" transform="matrix(1,0,0,1,5,-182)" fill="white" text-rendering="geometricPrecision" font-family="sans-serif" shape-rendering="geometricPrecision" stroke="white" font-weight="bold" stroke-miterlimit="1.45">
      <text x="794.0483" xml:space="preserve" y="377.9604" clip-path="url(#clipPath2)" stroke="none">3</text>
    </g>
    <g text-rendering="geometricPrecision" stroke-miterlimit="1.45" shape-rendering="geometricPrecision" transform="matrix(1,0,0,1,5,-182)" stroke-linecap="butt">
      <circle fill="none" r="15" clip-path="url(#clipPath2)" cx="799.3257" cy="371.9136"/>
    </g>
    <g fill="rgb(230,230,230)" text-rendering="geometricPrecision" shape-rendering="geometricPrecision" transform="matrix(1,0,0,1,5,-182)" stroke="rgb(230,230,230)">
      <rect x="656.4097" y="391.9167" clip-path="url(#clipPath2)" width="293" rx="4" ry="4" height="95" stroke="none"/>
    </g>
    <g font-size="17px" stroke-linecap="butt" transform="matrix(1,0,0,1,5,-182)" text-rendering="geometricPrecision" font-family="sans-serif" shape-rendering="geometricPrecision" font-weight="bold" stroke-miterlimit="1.45">
      <text x="741.7952" xml:space="preserve" y="422.4435" clip-path="url(#clipPath2)" stroke="none">Alle Texte mit</text>
      <text x="670.7986" xml:space="preserve" y="442.465" clip-path="url(#clipPath2)" stroke="none">Übersetzungstool übersetzen </text>
      <text x="718.9598" xml:space="preserve" y="462.4865" clip-path="url(#clipPath2)" stroke="none">(z. B. poeditor.com)</text>
      <rect x="656.4097" y="391.9167" clip-path="url(#clipPath2)" fill="none" width="293" rx="4" ry="4" height="95"/>
    </g>
    <g text-rendering="geometricPrecision" shape-rendering="geometricPrecision" transform="matrix(1,0,0,1,5,-182)">
      <circle r="15" clip-path="url(#clipPath2)" cx="487.9062" cy="371.9136" stroke="none"/>
    </g>
    <g stroke-linecap="butt" font-size="16px" transform="matrix(1,0,0,1,5,-182)" fill="white" text-rendering="geometricPrecision" font-family="sans-serif" shape-rendering="geometricPrecision" stroke="white" font-weight="bold" stroke-miterlimit="1.45">
      <text x="482.6289" xml:space="preserve" y="377.9604" clip-path="url(#clipPath2)" stroke="none">4</text>
    </g>
    <g text-rendering="geometricPrecision" stroke-miterlimit="1.45" shape-rendering="geometricPrecision" transform="matrix(1,0,0,1,5,-182)" stroke-linecap="butt">
      <circle fill="none" r="15" clip-path="url(#clipPath2)" cx="487.9062" cy="371.9136"/>
      <circle stroke-linecap="square" clip-path="url(#clipPath2)" r="15" cx="170.0632" cy="371.9136" stroke="none" stroke-miterlimit="10"/>
    </g>
    <g stroke-linecap="butt" font-size="16px" transform="matrix(1,0,0,1,5,-182)" fill="white" text-rendering="geometricPrecision" font-family="sans-serif" shape-rendering="geometricPrecision" stroke="white" font-weight="bold" stroke-miterlimit="1.45">
      <text x="164.7859" xml:space="preserve" y="377.9604" clip-path="url(#clipPath2)" stroke="none">5</text>
    </g>
    <g text-rendering="geometricPrecision" stroke-miterlimit="1.45" shape-rendering="geometricPrecision" transform="matrix(1,0,0,1,5,-182)" stroke-linecap="butt">
      <circle fill="none" r="15" clip-path="url(#clipPath2)" cx="170.0632" cy="371.9136"/>
      <text x="502.1664" font-size="18px" y="544.9606" clip-path="url(#clipPath2)" font-family="sans-serif" stroke="none" font-weight="bold" xml:space="preserve">Übersetzungsdatei (z. B. XLIFF)</text>
    </g>
    <g font-size="18px" stroke-linecap="butt" transform="matrix(0,1,-1,0,1002.4231,41.294)" text-rendering="geometricPrecision" font-family="sans-serif" shape-rendering="geometricPrecision" font-weight="bold" stroke-miterlimit="1.45">
      <text x="2" xml:space="preserve" y="19.4023" clip-path="url(#clipPath3)" stroke="none">Nachrichtendatei (z. B. XLIFF)</text>
    </g>
    <g font-size="18px" stroke-linecap="butt" transform="matrix(1,0,0,1,5,-182)" text-rendering="geometricPrecision" shape-rendering="geometricPrecision" font-weight="bold" stroke-miterlimit="1.45">
      <text x="393.3372" xml:space="preserve" y="286.2163" clip-path="url(#clipPath2)" stroke="none">i18n</text>
      <text x="711.2939" xml:space="preserve" y="295.2256" clip-path="url(#clipPath2)" stroke="none">﻿ng xi18n</text>
    </g>
    <g fill="rgb(230,230,230)" text-rendering="geometricPrecision" shape-rendering="geometricPrecision" transform="matrix(1,0,0,1,5,-182)" stroke="rgb(230,230,230)">
      <rect x="341.4062" y="391.9167" clip-path="url(#clipPath2)" width="293" rx="4" ry="4" height="95" stroke="none"/>
    </g>
    <g font-size="17px" stroke-linecap="butt" transform="matrix(1,0,0,1,5,-182)" text-rendering="geometricPrecision" font-family="sans-serif" shape-rendering="geometricPrecision" font-weight="bold" stroke-miterlimit="1.45">
      <text x="432.1458" xml:space="preserve" y="435.8307" clip-path="url(#clipPath2)" stroke="none">Übersetzung</text>
      <text x="445.1904" xml:space="preserve" y="455.8522" clip-path="url(#clipPath2)" stroke="none">speichern</text>
      <rect x="341.4062" y="391.9167" clip-path="url(#clipPath2)" fill="none" width="293" rx="4" ry="4" height="95"/>
    </g>
    <g fill="white" text-rendering="geometricPrecision" shape-rendering="geometricPrecision" transform="matrix(1,0,0,1,5,-182)" stroke="white">
      <rect x="23.5632" y="231.9136" clip-path="url(#clipPath2)" width="293" rx="4" ry="4" height="95" stroke="none"/>
    </g>
    <g font-size="17px" stroke-linecap="butt" transform="matrix(1,0,0,1,5,-182)" text-rendering="geometricPrecision" font-family="sans-serif" shape-rendering="geometricPrecision" font-weight="bold" stroke-miterlimit="1.45">
      <text x="57.5005" xml:space="preserve" y="285.8383" clip-path="url(#clipPath2)" stroke="none">Neue Inhalte im Template</text>
      <rect x="23.5632" y="231.9136" clip-path="url(#clipPath2)" fill="none" width="293" rx="4" ry="4" height="95"/>
      <text x="400.1533" font-size="18px" y="306.3332" clip-path="url(#clipPath2)" font-family="'Dialog'" stroke="none" xml:space="preserve">﻿$localize</text>
    </g>
    <g fill="rgb(230,230,230)" text-rendering="geometricPrecision" shape-rendering="geometricPrecision" transform="matrix(1,0,0,1,5,-182)" stroke="rgb(230,230,230)">
      <rect x="26.4028" y="391.9167" clip-path="url(#clipPath2)" width="293" rx="4" ry="4" height="95" stroke="none"/>
    </g>
    <g font-size="17px" stroke-linecap="butt" transform="matrix(1,0,0,1,5,-182)" text-rendering="geometricPrecision" font-family="sans-serif" shape-rendering="geometricPrecision" font-weight="bold" stroke-miterlimit="1.45">
      <text x="57.165" xml:space="preserve" y="435.8307" clip-path="url(#clipPath2)" stroke="none">Übersetztes Projekt bauen</text>
      <text x="56.9326" xml:space="preserve" y="455.8522" clip-path="url(#clipPath2)" stroke="none">bzw. Übersetzungen laden</text>
      <rect x="26.4028" y="391.9167" clip-path="url(#clipPath2)" fill="none" width="293" rx="4" ry="4" height="95"/>
    </g>
    <g text-rendering="geometricPrecision" stroke-miterlimit="1.45" stroke-width="2" shape-rendering="geometricPrecision" transform="matrix(1,0,0,1,5,-182)" stroke-linecap="butt">
      <path fill="none" d="M544.7729 231.9254 L545.8159 231.2084 L565.5923 220.0842 L585.3688 211.432 L605.1452 205.2518 L624.9216 201.5438 L644.6981 200.3077 L664.4745 201.5438 L684.251 205.2518 L704.0275 211.432 L723.8039 220.0842 L736.8354 227.4144 L736.9178 227.4711" clip-path="url(#clipPath2)"/>
      <path d="M744.7096 231.9753 L735.8371 220.3491 L735.9438 226.908 L730.2068 230.0888 Z" clip-path="url(#clipPath2)" stroke="none"/>
      <path fill="none" d="M949.4017 310.6574 L952.261 316.3426 L956.5148 327.1139 L959.5184 337.7139 L961.2722 348.1424 L961.7758 358.3995 L961.0295 368.4852 L959.0332 378.3995 L955.7869 388.1424 L953.604 392.7893 L953.5518 392.8746" clip-path="url(#clipPath2)"/>
      <path d="M949.3812 400.85 L960.6217 391.4935 L954.0731 391.8777 L950.6525 386.2803 Z" clip-path="url(#clipPath2)" stroke="none"/>
      <path fill="none" d="M744.5771 486.9032 L743.8466 487.4055 L724.1589 498.4798 L704.4711 507.0932 L684.7834 513.2456 L665.0957 516.9371 L645.408 518.1675 L625.7203 516.9371 L606.0325 513.2456 L586.3448 507.0932 L566.6571 498.4798 L554.0437 491.3847 L553.9613 491.3281" clip-path="url(#clipPath2)"/>
      <path d="M546.1524 486.8536 L555.0693 498.4459 L554.9374 491.8874 L560.6623 488.6848 Z" clip-path="url(#clipPath2)" stroke="none"/>
      <path fill="none" d="M228.3497 231.9254 L229.3926 231.2084 L249.169 220.0842 L268.9455 211.432 L288.722 205.2518 L308.4984 201.5438 L328.2748 200.3077 L348.0513 201.5438 L367.8278 205.2518 L387.6042 211.432 L407.3807 220.0842 L420.4122 227.4144 L420.4946 227.4711" clip-path="url(#clipPath2)"/>
      <path d="M428.2863 231.9753 L419.4138 220.3491 L419.5206 226.908 L413.7835 230.0888 Z" clip-path="url(#clipPath2)" stroke="none"/>
      <path fill="none" d="M433.8603 486.924 L431.7673 488.4764 L412.8813 500.0108 L393.9088 509.1358 L374.8499 515.8514 L355.7043 520.1576 L336.4723 522.0544 L317.1537 521.5417 L297.7487 518.6198 L278.2571 513.2883 L258.6791 505.5474 L239.0145 495.3972 L233.3002 491.7635" clip-path="url(#clipPath2)"/>
      <path d="M225.7057 486.9341 L234.0792 498.9247 L234.2496 492.3671 L240.1159 489.4315 Z" clip-path="url(#clipPath2)" stroke="none"/>
      <path fill="none" d="M26.4131 417.5553 L26.3296 417.4391 L20.5305 407.3747 L16.0534 397.1638 L12.8985 386.8065 L11.0658 376.3028 L10.5551 365.6526 L11.3666 354.8559 L13.5002 343.9127 L16.9559 332.8231 L19.7185 326.3262 L19.7658 326.2381" clip-path="url(#clipPath2)"/>
      <path d="M23.5991 318.0952 L12.7598 327.9136 L19.2866 327.2559 L22.9383 332.7053 Z" clip-path="url(#clipPath2)" stroke="none"/>
    </g>
  </g>
</svg>
