<?xml version="1.0" encoding="UTF-8"?>
<svg xmlns="http://www.w3.org/2000/svg" xmlns:xlink="http://www.w3.org/1999/xlink" width="721pt" height="316pt" viewBox="0 0 721 316">
<rect x="-72.1" y="-31.6" width="865.2" height="379.2" fill="rgb(100%, 100%, 100%)" fill-opacity="1"/>
<path fill-rule="nonzero" fill="rgb(86.66687%, 86.66687%, 86.66687%)" fill-opacity="1" d="M 376.28125 5 L 376.28125 312 C 376.28125 314.210938 378.070312 316 380.28125 316 L 716.699219 316 C 718.898438 316 720.699219 314.210938 720.699219 312 L 720.699219 5 C 720.699219 2.789062 718.898438 1 716.699219 1 L 380.28125 1 C 378.070312 1 376.28125 2.789062 376.28125 5 Z M 376.28125 5 "/>
<path fill-rule="nonzero" fill="rgb(50.195312%, 50.195312%, 50.195312%)" fill-opacity="1" d="M 406.28125 44.320312 L 406.28125 77.679688 C 406.28125 79.890625 408.070312 81.679688 410.28125 81.679688 L 550.28125 81.679688 C 552.488281 81.679688 554.28125 79.890625 554.28125 77.679688 L 554.28125 44.320312 C 554.28125 42.109375 552.488281 40.320312 550.28125 40.320312 L 410.28125 40.320312 C 408.070312 40.320312 406.28125 42.109375 406.28125 44.320312 Z M 406.28125 44.320312 "/>
<path fill-rule="nonzero" fill="rgb(100%, 100%, 100%)" fill-opacity="1" d="M 454.101562 67.050781 L 458.601562 55.480469 L 461.011719 55.480469 L 465.511719 67.050781 L 463.039062 67.050781 L 461.839844 63.960938 L 457.058594 63.960938 L 455.851562 67.050781 Z M 457.648438 62.421875 L 461.238281 62.421875 L 459.449219 57.808594 Z M 473.480469 66.859375 C 472.519531 67.109375 471.628906 67.238281 470.820312 67.238281 C 469.449219 67.238281 468.359375 66.839844 467.570312 66.039062 C 466.769531 65.230469 466.378906 64.140625 466.378906 62.75 C 466.378906 61.351562 466.789062 60.25 467.601562 59.460938 C 468.421875 58.671875 469.550781 58.269531 470.988281 58.269531 C 471.691406 58.269531 472.5 58.390625 473.410156 58.609375 L 473.410156 60.28125 C 472.460938 59.96875 471.699219 59.820312 471.140625 59.820312 C 470.441406 59.820312 469.890625 60.089844 469.460938 60.621094 C 469.039062 61.148438 468.828125 61.851562 468.828125 62.730469 C 468.828125 63.640625 469.058594 64.359375 469.511719 64.898438 C 469.96875 65.441406 470.578125 65.710938 471.339844 65.710938 C 472.03125 65.710938 472.738281 65.558594 473.480469 65.261719 Z M 480.089844 67 C 479.539062 67.160156 479.101562 67.238281 478.78125 67.238281 C 476.78125 67.238281 475.78125 66.300781 475.78125 64.429688 L 475.78125 59.910156 L 474.820312 59.910156 L 474.820312 58.46875 L 475.78125 58.46875 L 475.78125 57.019531 L 478.089844 56.761719 L 478.089844 58.46875 L 479.921875 58.46875 L 479.921875 59.910156 L 478.089844 59.910156 L 478.089844 64.121094 C 478.089844 65.179688 478.519531 65.699219 479.378906 65.699219 C 479.578125 65.699219 479.808594 65.671875 480.089844 65.589844 Z M 482.148438 67.050781 L 482.148438 58.46875 L 484.460938 58.46875 L 484.460938 67.050781 Z M 482.148438 57.019531 L 482.148438 55.089844 L 484.460938 55.089844 L 484.460938 57.019531 Z M 490.960938 67.238281 C 489.621094 67.238281 488.550781 66.839844 487.761719 66.03125 C 486.980469 65.21875 486.578125 64.128906 486.578125 62.761719 C 486.578125 61.371094 486.980469 60.28125 487.769531 59.480469 C 488.570312 58.671875 489.648438 58.269531 491.011719 58.269531 C 492.378906 58.269531 493.460938 58.671875 494.261719 59.480469 C 495.050781 60.28125 495.449219 61.371094 495.449219 62.738281 C 495.449219 64.148438 495.050781 65.25 494.25 66.050781 C 493.460938 66.839844 492.359375 67.238281 490.960938 67.238281 Z M 490.988281 65.800781 C 492.320312 65.800781 492.988281 64.78125 492.988281 62.738281 C 492.988281 61.808594 492.808594 61.070312 492.460938 60.53125 C 492.109375 59.988281 491.628906 59.71875 491.011719 59.71875 C 490.398438 59.71875 489.921875 59.988281 489.570312 60.53125 C 489.21875 61.070312 489.039062 61.820312 489.039062 62.761719 C 489.039062 63.691406 489.21875 64.429688 489.570312 64.980469 C 489.910156 65.519531 490.390625 65.800781 490.988281 65.800781 Z M 497.570312 67.050781 L 497.570312 58.46875 L 499.890625 58.46875 L 499.890625 60.089844 C 500.640625 58.878906 501.609375 58.269531 502.808594 58.269531 C 503.570312 58.269531 504.179688 58.519531 504.621094 59 C 505.058594 59.480469 505.28125 60.148438 505.28125 60.980469 L 505.28125 67.050781 L 502.96875 67.050781 L 502.96875 61.550781 C 502.96875 60.578125 502.648438 60.089844 502 60.089844 C 501.269531 60.089844 500.558594 60.609375 499.890625 61.648438 L 499.890625 67.050781 Z M 497.570312 67.050781 "/>
<path fill-rule="nonzero" fill="rgb(50.195312%, 50.195312%, 50.195312%)" fill-opacity="1" d="M 572.679688 143.320312 L 572.679688 180.519531 C 572.679688 182.730469 574.46875 184.519531 576.679688 184.519531 L 694.898438 184.519531 C 697.101562 184.519531 698.898438 182.730469 698.898438 180.519531 L 698.898438 143.320312 C 698.898438 141.109375 697.101562 139.320312 694.898438 139.320312 L 576.679688 139.320312 C 574.46875 139.320312 572.679688 141.109375 572.679688 143.320312 Z M 572.679688 143.320312 "/>
<path fill-rule="nonzero" fill="rgb(100%, 100%, 100%)" fill-opacity="1" d="M 603.898438 167.96875 L 603.898438 156.398438 L 608.230469 156.398438 C 610.578125 156.398438 611.75 157.359375 611.75 159.269531 C 611.75 159.988281 611.550781 160.628906 611.160156 161.21875 C 610.761719 161.808594 610.210938 162.261719 609.511719 162.570312 L 613.289062 167.96875 L 610.359375 167.96875 L 607.5 163.238281 L 606.171875 163.238281 L 606.171875 167.96875 Z M 606.171875 161.648438 L 606.71875 161.648438 C 608.46875 161.648438 609.339844 160.949219 609.339844 159.539062 C 609.339844 158.511719 608.558594 157.988281 607 157.988281 L 606.171875 157.988281 Z M 621.921875 167.679688 C 620.828125 168 619.78125 168.160156 618.800781 168.160156 C 617.371094 168.160156 616.238281 167.761719 615.410156 166.941406 C 614.578125 166.128906 614.171875 165.019531 614.171875 163.621094 C 614.171875 162.289062 614.550781 161.21875 615.300781 160.410156 C 616.058594 159.601562 617.058594 159.191406 618.308594 159.191406 C 619.558594 159.191406 620.480469 159.589844 621.058594 160.378906 C 621.640625 161.171875 621.921875 162.429688 621.921875 164.140625 L 616.601562 164.140625 C 616.761719 165.769531 617.660156 166.589844 619.300781 166.589844 C 620.078125 166.589844 620.949219 166.410156 621.921875 166.050781 Z M 616.570312 162.828125 L 619.648438 162.828125 C 619.648438 161.371094 619.179688 160.640625 618.238281 160.640625 C 617.28125 160.640625 616.71875 161.371094 616.570312 162.828125 Z M 629.710938 167.96875 L 629.710938 166.351562 C 629.121094 167.558594 628.191406 168.160156 626.910156 168.160156 C 625.878906 168.160156 625.070312 167.78125 624.480469 167.03125 C 623.890625 166.269531 623.601562 165.238281 623.601562 163.910156 C 623.601562 162.46875 623.929688 161.328125 624.589844 160.46875 C 625.261719 159.621094 626.148438 159.191406 627.269531 159.191406 C 628.160156 159.191406 628.980469 159.550781 629.710938 160.261719 L 629.710938 155.628906 L 632.03125 155.628906 L 632.03125 167.96875 Z M 629.710938 161.628906 C 629.160156 161.011719 628.558594 160.691406 627.921875 160.691406 C 627.359375 160.691406 626.898438 160.96875 626.570312 161.511719 C 626.230469 162.058594 626.058594 162.800781 626.058594 163.71875 C 626.058594 165.46875 626.621094 166.351562 627.75 166.351562 C 628.429688 166.351562 629.089844 165.910156 629.710938 165.03125 Z M 640.21875 167.96875 L 640.21875 166.351562 C 639.46875 167.558594 638.5 168.160156 637.300781 168.160156 C 636.53125 168.160156 635.929688 167.921875 635.488281 167.441406 C 635.039062 166.949219 634.820312 166.289062 634.820312 165.449219 L 634.820312 159.390625 L 637.140625 159.390625 L 637.140625 164.878906 C 637.140625 165.851562 637.460938 166.339844 638.109375 166.339844 C 638.839844 166.339844 639.539062 165.820312 640.21875 164.789062 L 640.21875 159.390625 L 642.53125 159.390625 L 642.53125 167.96875 Z M 651.75 167.78125 C 650.789062 168.03125 649.910156 168.160156 649.089844 168.160156 C 647.71875 168.160156 646.640625 167.761719 645.839844 166.960938 C 645.050781 166.148438 644.648438 165.058594 644.648438 163.671875 C 644.648438 162.269531 645.058594 161.171875 645.878906 160.378906 C 646.699219 159.589844 647.828125 159.191406 649.269531 159.191406 C 649.96875 159.191406 650.769531 159.308594 651.679688 159.53125 L 651.679688 161.199219 C 650.730469 160.890625 649.980469 160.738281 649.410156 160.738281 C 648.71875 160.738281 648.160156 161.011719 647.738281 161.539062 C 647.320312 162.070312 647.101562 162.769531 647.101562 163.648438 C 647.101562 164.558594 647.328125 165.28125 647.789062 165.820312 C 648.238281 166.359375 648.851562 166.628906 649.609375 166.628906 C 650.308594 166.628906 651.019531 166.480469 651.75 166.179688 Z M 660.921875 167.679688 C 659.828125 168 658.78125 168.160156 657.800781 168.160156 C 656.371094 168.160156 655.238281 167.761719 654.410156 166.941406 C 653.578125 166.128906 653.171875 165.019531 653.171875 163.621094 C 653.171875 162.289062 653.550781 161.21875 654.300781 160.410156 C 655.058594 159.601562 656.058594 159.191406 657.308594 159.191406 C 658.558594 159.191406 659.480469 159.589844 660.058594 160.378906 C 660.640625 161.171875 660.921875 162.429688 660.921875 164.140625 L 655.601562 164.140625 C 655.761719 165.769531 656.660156 166.589844 658.300781 166.589844 C 659.078125 166.589844 659.949219 166.410156 660.921875 166.050781 Z M 655.570312 162.828125 L 658.648438 162.828125 C 658.648438 161.371094 658.179688 160.640625 657.238281 160.640625 C 656.28125 160.640625 655.71875 161.371094 655.570312 162.828125 Z M 663.320312 167.96875 L 663.320312 159.390625 L 665.628906 159.390625 L 665.628906 161.011719 C 666.230469 159.800781 667.140625 159.191406 668.359375 159.191406 C 668.511719 159.191406 668.648438 159.210938 668.789062 159.238281 L 668.789062 161.300781 C 668.460938 161.179688 668.160156 161.121094 667.878906 161.121094 C 666.960938 161.121094 666.210938 161.589844 665.628906 162.519531 L 665.628906 167.96875 Z M 663.320312 167.96875 "/>
<path fill-rule="nonzero" fill="rgb(50.195312%, 50.195312%, 50.195312%)" fill-opacity="1" d="M 406.28125 241.039062 L 406.28125 278.238281 C 406.28125 280.449219 408.070312 282.238281 410.28125 282.238281 L 550.28125 282.238281 C 552.488281 282.238281 554.28125 280.449219 554.28125 278.238281 L 554.28125 241.039062 C 554.28125 238.828125 552.488281 237.039062 550.28125 237.039062 L 410.28125 237.039062 C 408.070312 237.039062 406.28125 238.828125 406.28125 241.039062 Z M 406.28125 241.039062 "/>
<path fill-rule="nonzero" fill="rgb(100%, 100%, 100%)" fill-opacity="1" d="M 460.628906 265.589844 L 460.628906 263.601562 C 461.878906 264.121094 462.941406 264.378906 463.828125 264.378906 C 464.449219 264.378906 464.929688 264.238281 465.289062 263.96875 C 465.648438 263.691406 465.828125 263.320312 465.828125 262.839844 C 465.828125 262.46875 465.710938 262.148438 465.488281 261.890625 C 465.269531 261.640625 464.839844 261.328125 464.21875 260.980469 L 463.441406 260.550781 C 462.410156 259.960938 461.679688 259.398438 461.25 258.871094 C 460.820312 258.339844 460.609375 257.710938 460.609375 257 C 460.609375 256.050781 460.960938 255.28125 461.660156 254.699219 C 462.359375 254.121094 463.289062 253.839844 464.441406 253.839844 C 465.359375 253.839844 466.398438 253.96875 467.550781 254.230469 L 467.550781 256.089844 C 466.371094 255.640625 465.441406 255.421875 464.75 255.421875 C 464.21875 255.421875 463.789062 255.539062 463.46875 255.78125 C 463.148438 256.011719 462.988281 256.320312 462.988281 256.710938 C 462.988281 257.03125 463.101562 257.308594 463.328125 257.550781 C 463.550781 257.789062 463.96875 258.078125 464.589844 258.429688 L 465.421875 258.890625 C 466.539062 259.519531 467.300781 260.089844 467.730469 260.621094 C 468.148438 261.140625 468.359375 261.78125 468.359375 262.539062 C 468.359375 263.609375 467.960938 264.449219 467.160156 265.058594 C 466.371094 265.671875 465.269531 265.980469 463.871094 265.980469 C 462.941406 265.980469 461.859375 265.851562 460.628906 265.589844 Z M 474.839844 265.640625 C 474.289062 265.800781 473.859375 265.878906 473.539062 265.878906 C 471.53125 265.878906 470.53125 264.941406 470.53125 263.070312 L 470.53125 258.550781 L 469.570312 258.550781 L 469.570312 257.109375 L 470.53125 257.109375 L 470.53125 255.660156 L 472.839844 255.398438 L 472.839844 257.109375 L 474.679688 257.109375 L 474.679688 258.550781 L 472.839844 258.550781 L 472.839844 262.769531 C 472.839844 263.820312 473.269531 264.339844 474.128906 264.339844 C 474.328125 264.339844 474.570312 264.308594 474.839844 264.230469 Z M 481.109375 264.769531 C 480.339844 265.511719 479.511719 265.878906 478.628906 265.878906 C 477.878906 265.878906 477.269531 265.648438 476.800781 265.191406 C 476.328125 264.738281 476.101562 264.140625 476.101562 263.410156 C 476.101562 262.46875 476.480469 261.738281 477.238281 261.21875 C 477.988281 260.710938 479.078125 260.449219 480.488281 260.449219 L 481.109375 260.449219 L 481.109375 259.671875 C 481.109375 258.78125 480.601562 258.339844 479.578125 258.339844 C 478.679688 258.339844 477.769531 258.589844 476.851562 259.101562 L 476.851562 257.511719 C 477.898438 257.109375 478.929688 256.910156 479.960938 256.910156 C 482.199219 256.910156 483.328125 257.808594 483.328125 259.589844 L 483.328125 263.390625 C 483.328125 264.058594 483.539062 264.398438 483.980469 264.398438 C 484.050781 264.398438 484.160156 264.390625 484.28125 264.371094 L 484.328125 265.660156 C 483.851562 265.808594 483.410156 265.878906 483.039062 265.878906 C 482.089844 265.878906 481.480469 265.511719 481.210938 264.769531 Z M 481.109375 263.519531 L 481.109375 261.78125 L 480.558594 261.78125 C 479.070312 261.78125 478.320312 262.25 478.320312 263.191406 C 478.320312 263.5 478.429688 263.769531 478.640625 263.988281 C 478.859375 264.199219 479.128906 264.308594 479.441406 264.308594 C 479.988281 264.308594 480.539062 264.050781 481.109375 263.519531 Z M 490.730469 265.640625 C 490.179688 265.800781 489.75 265.878906 489.429688 265.878906 C 487.421875 265.878906 486.421875 264.941406 486.421875 263.070312 L 486.421875 258.550781 L 485.460938 258.550781 L 485.460938 257.109375 L 486.421875 257.109375 L 486.421875 255.660156 L 488.730469 255.398438 L 488.730469 257.109375 L 490.570312 257.109375 L 490.570312 258.550781 L 488.730469 258.550781 L 488.730469 262.769531 C 488.730469 263.820312 489.160156 264.339844 490.019531 264.339844 C 490.21875 264.339844 490.460938 264.308594 490.730469 264.230469 Z M 499.78125 265.398438 C 498.679688 265.71875 497.640625 265.878906 496.660156 265.878906 C 495.21875 265.878906 494.089844 265.480469 493.261719 264.660156 C 492.441406 263.851562 492.019531 262.738281 492.019531 261.339844 C 492.019531 260.011719 492.398438 258.941406 493.160156 258.128906 C 493.921875 257.320312 494.921875 256.910156 496.160156 256.910156 C 497.421875 256.910156 498.328125 257.308594 498.910156 258.101562 C 499.488281 258.890625 499.78125 260.148438 499.78125 261.859375 L 494.460938 261.859375 C 494.621094 263.488281 495.511719 264.308594 497.160156 264.308594 C 497.929688 264.308594 498.808594 264.128906 499.78125 263.769531 Z M 494.429688 260.550781 L 497.511719 260.550781 C 497.511719 259.089844 497.039062 258.359375 496.089844 258.359375 C 495.128906 258.359375 494.578125 259.089844 494.429688 260.550781 Z M 494.429688 260.550781 "/>
<path fill-rule="nonzero" fill="rgb(50.195312%, 50.195312%, 50.195312%)" fill-opacity="1" d="M 0.359375 130 L 0.359375 195 C 0.359375 197.210938 2.148438 199 4.359375 199 L 129.640625 199 C 131.851562 199 133.640625 197.210938 133.640625 195 L 133.640625 130 C 133.640625 127.789062 131.851562 126 129.640625 126 L 4.359375 126 C 2.148438 126 0.359375 127.789062 0.359375 130 Z M 0.359375 130 "/>
<path fill-rule="nonzero" fill="rgb(100%, 100%, 100%)" fill-opacity="1" d="M 25.75 168.78125 C 24.488281 169.351562 22.988281 169.628906 21.238281 169.628906 C 19.109375 169.628906 17.449219 169.03125 16.261719 167.828125 C 15.070312 166.621094 14.480469 164.949219 14.480469 162.800781 C 14.480469 160.609375 15.078125 158.921875 16.269531 157.738281 C 17.46875 156.558594 19.179688 155.96875 21.398438 155.96875 C 22.820312 155.96875 24.230469 156.140625 25.628906 156.46875 L 25.628906 158.589844 C 24.039062 158.03125 22.710938 157.75 21.640625 157.75 C 20.269531 157.75 19.210938 158.191406 18.46875 159.058594 C 17.71875 159.929688 17.351562 161.160156 17.351562 162.761719 C 17.351562 164.328125 17.75 165.558594 18.550781 166.441406 C 19.351562 167.320312 20.460938 167.761719 21.890625 167.761719 C 23.160156 167.761719 24.449219 167.429688 25.75 166.789062 Z M 32.160156 169.519531 C 30.648438 169.519531 29.460938 169.070312 28.570312 168.160156 C 27.679688 167.238281 27.238281 166.019531 27.238281 164.480469 C 27.238281 162.921875 27.691406 161.691406 28.578125 160.789062 C 29.46875 159.878906 30.691406 159.429688 32.21875 159.429688 C 33.761719 159.429688 34.980469 159.878906 35.871094 160.789062 C 36.769531 161.691406 37.210938 162.910156 37.210938 164.460938 C 37.210938 166.039062 36.769531 167.28125 35.871094 168.179688 C 34.96875 169.070312 33.738281 169.519531 32.160156 169.519531 Z M 32.199219 167.898438 C 33.699219 167.898438 34.449219 166.75 34.449219 164.460938 C 34.449219 163.410156 34.25 162.578125 33.851562 161.96875 C 33.460938 161.359375 32.910156 161.058594 32.21875 161.058594 C 31.539062 161.058594 31 161.359375 30.601562 161.96875 C 30.199219 162.578125 30.011719 163.421875 30.011719 164.480469 C 30.011719 165.53125 30.199219 166.359375 30.601562 166.96875 C 30.988281 167.589844 31.519531 167.898438 32.199219 167.898438 Z M 39.601562 169.300781 L 39.601562 159.648438 L 42.101562 159.648438 L 42.101562 161.46875 C 42.859375 160.109375 43.949219 159.429688 45.351562 159.429688 C 46.078125 159.429688 46.679688 159.609375 47.148438 159.96875 C 47.609375 160.328125 47.898438 160.828125 48.011719 161.46875 C 48.910156 160.109375 50 159.429688 51.28125 159.429688 C 53.039062 159.429688 53.921875 160.410156 53.921875 162.351562 L 53.921875 169.300781 L 51.429688 169.300781 L 51.429688 163.199219 C 51.429688 162.058594 51.039062 161.488281 50.28125 161.488281 C 49.5 161.488281 48.75 162.050781 48.011719 163.179688 L 48.011719 169.300781 L 45.511719 169.300781 L 45.511719 163.199219 C 45.511719 162.050781 45.128906 161.480469 44.359375 161.480469 C 43.589844 161.480469 42.839844 162.050781 42.101562 163.179688 L 42.101562 169.300781 Z M 57.058594 172.769531 L 57.058594 159.648438 L 59.660156 159.648438 L 59.660156 161.46875 C 60.328125 160.109375 61.378906 159.429688 62.820312 159.429688 C 63.980469 159.429688 64.890625 159.859375 65.550781 160.710938 C 66.21875 161.558594 66.550781 162.730469 66.550781 164.210938 C 66.550781 165.828125 66.179688 167.121094 65.429688 168.078125 C 64.679688 169.039062 63.671875 169.519531 62.410156 169.519531 C 61.398438 169.519531 60.480469 169.121094 59.660156 168.328125 L 59.660156 172.769531 Z M 59.660156 166.78125 C 60.289062 167.480469 60.96875 167.828125 61.679688 167.828125 C 62.320312 167.828125 62.828125 167.53125 63.210938 166.910156 C 63.589844 166.289062 63.78125 165.460938 63.78125 164.429688 C 63.78125 162.460938 63.148438 161.46875 61.878906 161.46875 C 61.109375 161.46875 60.371094 161.96875 59.660156 162.960938 Z M 73.039062 169.519531 C 71.53125 169.519531 70.339844 169.070312 69.449219 168.160156 C 68.558594 167.238281 68.121094 166.019531 68.121094 164.480469 C 68.121094 162.921875 68.558594 161.691406 69.460938 160.789062 C 70.351562 159.878906 71.558594 159.429688 73.101562 159.429688 C 74.640625 159.429688 75.859375 159.878906 76.75 160.789062 C 77.648438 161.691406 78.089844 162.910156 78.089844 164.460938 C 78.089844 166.039062 77.640625 167.28125 76.75 168.179688 C 75.851562 169.070312 74.609375 169.519531 73.039062 169.519531 Z M 73.078125 167.898438 C 74.578125 167.898438 75.320312 166.75 75.320312 164.460938 C 75.320312 163.410156 75.128906 162.578125 74.730469 161.96875 C 74.328125 161.359375 73.789062 161.058594 73.101562 161.058594 C 72.410156 161.058594 71.871094 161.359375 71.480469 161.96875 C 71.078125 162.578125 70.878906 163.421875 70.878906 164.480469 C 70.878906 165.53125 71.078125 166.359375 71.46875 166.96875 C 71.871094 167.589844 72.398438 167.898438 73.078125 167.898438 Z M 80.480469 169.300781 L 80.480469 159.648438 L 83.078125 159.648438 L 83.078125 161.46875 C 83.929688 160.109375 85.03125 159.429688 86.371094 159.429688 C 87.230469 159.429688 87.910156 159.710938 88.410156 160.25 C 88.910156 160.789062 89.160156 161.539062 89.160156 162.480469 L 89.160156 169.300781 L 86.558594 169.300781 L 86.558594 163.121094 C 86.558594 162.03125 86.191406 161.480469 85.46875 161.480469 C 84.640625 161.480469 83.851562 162.058594 83.078125 163.230469 L 83.078125 169.300781 Z M 100.160156 168.980469 C 98.921875 169.339844 97.75 169.519531 96.648438 169.519531 C 95.03125 169.519531 93.761719 169.070312 92.828125 168.148438 C 91.898438 167.238281 91.429688 165.988281 91.429688 164.410156 C 91.429688 162.910156 91.859375 161.710938 92.710938 160.800781 C 93.558594 159.890625 94.691406 159.429688 96.089844 159.429688 C 97.5 159.429688 98.539062 159.878906 99.191406 160.769531 C 99.839844 161.660156 100.160156 163.070312 100.160156 165 L 94.179688 165 C 94.351562 166.839844 95.359375 167.761719 97.210938 167.761719 C 98.078125 167.761719 99.070312 167.550781 100.160156 167.148438 Z M 94.140625 163.53125 L 97.601562 163.53125 C 97.601562 161.878906 97.070312 161.058594 96.011719 161.058594 C 94.929688 161.058594 94.308594 161.878906 94.140625 163.53125 Z M 102.851562 169.300781 L 102.851562 159.648438 L 105.449219 159.648438 L 105.449219 161.46875 C 106.300781 160.109375 107.398438 159.429688 108.738281 159.429688 C 109.601562 159.429688 110.28125 159.710938 110.78125 160.25 C 111.28125 160.789062 111.53125 161.539062 111.53125 162.480469 L 111.53125 169.300781 L 108.921875 169.300781 L 108.921875 163.121094 C 108.921875 162.03125 108.558594 161.480469 107.828125 161.480469 C 107.011719 161.480469 106.210938 162.058594 105.449219 163.230469 L 105.449219 169.300781 Z M 119.648438 169.25 C 119.03125 169.429688 118.539062 169.519531 118.179688 169.519531 C 115.921875 169.519531 114.789062 168.46875 114.789062 166.359375 L 114.789062 161.28125 L 113.710938 161.28125 L 113.710938 159.648438 L 114.789062 159.648438 L 114.789062 158.03125 L 117.398438 157.730469 L 117.398438 159.648438 L 119.460938 159.648438 L 119.460938 161.28125 L 117.398438 161.28125 L 117.398438 166.019531 C 117.398438 167.199219 117.878906 167.789062 118.851562 167.789062 C 119.070312 167.789062 119.339844 167.75 119.648438 167.671875 Z M 119.648438 169.25 "/>
<path fill-rule="nonzero" fill="rgb(0%, 0%, 0%)" fill-opacity="1" d="M 429.160156 173.359375 L 429.160156 168.398438 C 432.269531 169.699219 434.929688 170.359375 437.148438 170.359375 C 438.691406 170.359375 439.921875 170.011719 440.808594 169.320312 C 441.699219 168.628906 442.148438 167.691406 442.148438 166.511719 C 442.148438 165.570312 441.871094 164.78125 441.308594 164.128906 C 440.75 163.488281 439.679688 162.730469 438.121094 161.839844 L 436.191406 160.769531 C 433.601562 159.308594 431.769531 157.910156 430.699219 156.578125 C 429.628906 155.238281 429.101562 153.679688 429.101562 151.898438 C 429.101562 149.519531 429.96875 147.601562 431.730469 146.160156 C 433.480469 144.710938 435.789062 143.988281 438.671875 143.988281 C 440.96875 143.988281 443.570312 144.320312 446.460938 144.980469 L 446.460938 149.609375 C 443.511719 148.511719 441.171875 147.949219 439.449219 147.949219 C 438.121094 147.949219 437.058594 148.25 436.261719 148.839844 C 435.460938 149.429688 435.058594 150.210938 435.058594 151.179688 C 435.058594 151.96875 435.339844 152.671875 435.898438 153.269531 C 436.460938 153.859375 437.511719 154.601562 439.058594 155.46875 L 441.128906 156.621094 C 443.921875 158.191406 445.839844 159.628906 446.890625 160.941406 C 447.949219 162.261719 448.46875 163.859375 448.46875 165.75 C 448.46875 168.429688 447.480469 170.53125 445.488281 172.050781 C 443.488281 173.578125 440.75 174.339844 437.238281 174.339844 C 434.929688 174.339844 432.230469 174.011719 429.160156 173.359375 Z M 464.679688 173.5 C 463.300781 173.898438 462.21875 174.109375 461.421875 174.109375 C 456.410156 174.109375 453.898438 171.761719 453.898438 167.070312 L 453.898438 155.789062 L 451.5 155.789062 L 451.5 152.171875 L 453.898438 152.171875 L 453.898438 148.558594 L 459.679688 147.890625 L 459.679688 152.171875 L 464.269531 152.171875 L 464.269531 155.789062 L 459.679688 155.789062 L 459.679688 166.308594 C 459.679688 168.941406 460.761719 170.261719 462.910156 170.261719 C 463.398438 170.261719 463.988281 170.171875 464.679688 169.980469 Z M 478.839844 174.109375 C 475.5 174.109375 472.839844 173.089844 470.871094 171.070312 C 468.890625 169.039062 467.910156 166.320312 467.910156 162.890625 C 467.910156 159.429688 468.898438 156.699219 470.890625 154.691406 C 472.871094 152.691406 475.570312 151.679688 478.980469 151.679688 C 482.410156 151.679688 485.109375 152.691406 487.101562 154.691406 C 489.078125 156.699219 490.070312 159.421875 490.070312 162.859375 C 490.070312 166.371094 489.078125 169.121094 487.089844 171.121094 C 485.089844 173.109375 482.351562 174.109375 478.839844 174.109375 Z M 478.941406 170.488281 C 482.261719 170.488281 483.921875 167.949219 483.921875 162.859375 C 483.921875 160.519531 483.480469 158.679688 482.601562 157.328125 C 481.730469 155.96875 480.519531 155.300781 478.980469 155.300781 C 477.460938 155.300781 476.261719 155.96875 475.378906 157.328125 C 474.5 158.679688 474.058594 160.539062 474.058594 162.890625 C 474.058594 165.230469 474.5 167.070312 475.371094 168.441406 C 476.238281 169.808594 477.429688 170.488281 478.941406 170.488281 Z M 495.390625 173.621094 L 495.390625 152.171875 L 501.171875 152.171875 L 501.171875 156.210938 C 502.671875 153.191406 504.941406 151.679688 508 151.679688 C 508.371094 151.679688 508.730469 151.71875 509.078125 151.800781 L 509.078125 156.960938 C 508.261719 156.660156 507.5 156.511719 506.789062 156.511719 C 504.488281 156.511719 502.609375 157.671875 501.171875 160 L 501.171875 173.621094 Z M 531.03125 172.890625 C 528.28125 173.699219 525.679688 174.109375 523.21875 174.109375 C 519.640625 174.109375 516.808594 173.089844 514.738281 171.058594 C 512.671875 169.03125 511.640625 166.25 511.640625 162.738281 C 511.640625 159.421875 512.578125 156.75 514.480469 154.71875 C 516.371094 152.699219 518.878906 151.679688 521.988281 151.679688 C 525.128906 151.679688 527.421875 152.671875 528.859375 154.648438 C 530.308594 156.628906 531.03125 159.761719 531.03125 164.050781 L 517.730469 164.050781 C 518.121094 168.140625 520.371094 170.179688 524.46875 170.179688 C 526.410156 170.179688 528.601562 169.730469 531.03125 168.828125 Z M 517.648438 160.789062 L 525.351562 160.789062 C 525.351562 157.128906 524.171875 155.300781 521.808594 155.300781 C 519.421875 155.300781 518.03125 157.128906 517.648438 160.789062 Z M 517.648438 160.789062 "/>
<path fill-rule="nonzero" fill="rgb(0%, 0%, 0%)" fill-opacity="1" d="M 280.441406 42.621094 C 280.101562 41.648438 280.011719 40.589844 280.011719 39.539062 L 280.011719 30.71875 L 278.808594 30.71875 L 278.808594 34.351562 C 278.21875 34.03125 277.71875 33.859375 277 33.859375 C 275.609375 33.859375 273.53125 34.988281 273.53125 38.261719 C 273.53125 41.621094 275.449219 42.769531 276.949219 42.769531 C 277.941406 42.769531 278.328125 42.449219 279.050781 41.808594 L 279.300781 42.769531 Z M 278.808594 40.289062 C 278.488281 41.070312 277.910156 41.761719 276.980469 41.761719 C 276.179688 41.761719 274.730469 41.089844 274.730469 38.300781 C 274.730469 35.941406 275.910156 34.859375 277.191406 34.859375 C 277.800781 34.859375 278.339844 35.179688 278.808594 35.570312 Z M 286.300781 42.589844 L 287.5 42.589844 L 287.5 34.03125 L 283.859375 34.03125 L 283.859375 35.039062 L 286.300781 35.039062 Z M 286.859375 30.851562 C 286.300781 30.851562 285.851562 31.28125 285.851562 31.859375 C 285.851562 32.429688 286.300781 32.859375 286.859375 32.859375 C 287.421875 32.859375 287.859375 32.429688 287.859375 31.859375 C 287.859375 31.28125 287.421875 30.851562 286.859375 30.851562 Z M 298.898438 34.851562 C 298.058594 34.238281 297.210938 33.859375 296.140625 33.859375 C 294.648438 33.859375 293.5 34.859375 293.5 36.109375 C 293.5 37.648438 294.898438 38.21875 296.121094 38.691406 C 297 39.019531 297.898438 39.328125 297.898438 40.449219 C 297.898438 41.308594 297.210938 41.761719 296.410156 41.761719 C 295.398438 41.761719 294.300781 41.039062 293.621094 40.320312 L 292.96875 41.28125 C 293.910156 42.128906 295.191406 42.769531 296.488281 42.769531 C 297.820312 42.769531 299.101562 41.808594 299.101562 40.398438 C 299.101562 38.699219 297.691406 38.140625 296.339844 37.648438 C 295.691406 37.410156 294.699219 36.988281 294.699219 36.160156 C 294.699219 35.390625 295.371094 34.859375 296.089844 34.859375 C 296.949219 34.859375 297.699219 35.339844 298.378906 35.820312 Z M 303.640625 33.871094 L 302.5 34.019531 C 302.839844 35.058594 302.898438 36.101562 302.898438 37.179688 L 302.898438 45.871094 L 304.101562 45.871094 L 304.101562 42.269531 C 304.710938 42.589844 305.21875 42.769531 305.929688 42.769531 C 307.300781 42.769531 309.421875 41.621094 309.421875 38.371094 C 309.421875 35.011719 307.480469 33.859375 305.980469 33.859375 C 304.980469 33.859375 304.601562 34.179688 303.878906 34.820312 Z M 304.101562 36.351562 C 304.46875 35.570312 304.980469 34.859375 305.960938 34.859375 C 306.738281 34.859375 308.21875 35.519531 308.21875 38.320312 C 308.21875 40.539062 307.140625 41.761719 305.738281 41.761719 C 305.140625 41.761719 304.578125 41.441406 304.101562 41.058594 Z M 313.191406 35.5 C 313.878906 35.21875 314.578125 34.859375 315.339844 34.859375 C 316.230469 34.859375 316.808594 35.539062 316.808594 36.480469 L 316.808594 37.300781 C 316.261719 37.070312 315.660156 36.878906 315.019531 36.878906 C 313.289062 36.878906 312.28125 38.320312 312.28125 39.96875 C 312.28125 41.488281 313.191406 42.769531 314.820312 42.769531 C 315.71875 42.769531 316.378906 42.421875 316.949219 41.730469 L 317.261719 42.800781 L 318.378906 42.660156 C 318.121094 41.921875 318.011719 41.121094 318.011719 40.339844 L 318.011719 36.621094 C 318.011719 35.199219 317.019531 33.859375 315.378906 33.859375 C 314.488281 33.859375 313.738281 34.128906 312.921875 34.449219 Z M 316.808594 40.289062 C 316.308594 40.980469 315.75 41.761719 314.820312 41.761719 C 313.898438 41.761719 313.480469 40.828125 313.480469 40.03125 C 313.480469 38.941406 313.960938 37.890625 315.179688 37.890625 C 315.75 37.890625 316.300781 38.078125 316.808594 38.300781 Z M 327.671875 34.03125 L 324.621094 34.03125 L 324.621094 31.410156 L 323.421875 31.410156 L 323.421875 34.03125 L 321.578125 34.03125 L 321.578125 35.039062 L 323.421875 35.039062 L 323.421875 39.539062 C 323.421875 42.101562 324.300781 42.769531 325.691406 42.769531 C 327.128906 42.769531 328.101562 41.78125 328.679688 40.539062 L 327.53125 40.261719 C 327.191406 41.011719 326.628906 41.761719 325.71875 41.761719 C 324.628906 41.761719 324.621094 40.75 324.621094 39.921875 L 324.621094 35.039062 L 327.671875 35.039062 Z M 337.398438 40.351562 C 336.820312 41.039062 336.089844 41.761719 335.140625 41.761719 C 334.039062 41.761719 332.660156 40.960938 332.660156 38.289062 C 332.660156 35.761719 333.898438 34.859375 335.109375 34.859375 C 336.171875 34.859375 336.789062 35.578125 337.21875 36.449219 L 338.261719 35.761719 C 337.511719 34.621094 336.519531 33.859375 335.109375 33.859375 C 333.398438 33.859375 331.460938 34.980469 331.460938 38.398438 C 331.460938 41.789062 333.578125 42.769531 335.160156 42.769531 C 336.488281 42.769531 337.351562 42.128906 338.21875 41.199219 Z M 341.371094 42.589844 L 342.570312 42.589844 L 342.570312 39.410156 C 342.570312 38.339844 342.539062 37.378906 343 36.421875 C 343.371094 35.660156 344.171875 34.859375 345.058594 34.859375 C 346.148438 34.859375 346.148438 36.800781 346.148438 37.578125 L 346.148438 42.589844 L 347.351562 42.589844 L 347.351562 37.679688 C 347.351562 34.179688 346.171875 33.859375 345.140625 33.859375 C 344.089844 33.859375 343.179688 34.449219 342.570312 35.261719 L 342.570312 30.71875 L 341.371094 30.71875 Z M 355.660156 43.058594 C 353.769531 41.699219 353.078125 39.519531 353.078125 37.28125 C 353.078125 35.039062 353.769531 32.859375 355.660156 31.519531 L 355.078125 30.71875 C 352.890625 32.140625 351.878906 34.75 351.878906 37.28125 C 351.878906 39.808594 352.890625 42.449219 355.078125 43.839844 Z M 361.699219 31.519531 C 363.589844 32.859375 364.28125 35.058594 364.28125 37.28125 C 364.28125 39.519531 363.589844 41.710938 361.699219 43.058594 L 362.28125 43.839844 C 364.46875 42.429688 365.480469 39.808594 365.480469 37.28125 C 365.480469 34.75 364.46875 32.140625 362.28125 30.71875 Z M 361.699219 31.519531 "/>
<path fill-rule="nonzero" fill="rgb(0%, 0%, 0%)" fill-opacity="1" d="M 292.859375 278.570312 C 292.019531 277.960938 291.171875 277.578125 290.101562 277.578125 C 288.609375 277.578125 287.460938 278.578125 287.460938 279.828125 C 287.460938 281.371094 288.859375 281.941406 290.078125 282.410156 C 290.960938 282.738281 291.859375 283.050781 291.859375 284.171875 C 291.859375 285.03125 291.171875 285.480469 290.371094 285.480469 C 289.359375 285.480469 288.261719 284.761719 287.578125 284.039062 L 286.929688 285 C 287.871094 285.851562 289.148438 286.488281 290.449219 286.488281 C 291.78125 286.488281 293.058594 285.53125 293.058594 284.121094 C 293.058594 282.421875 291.648438 281.859375 290.300781 281.371094 C 289.648438 281.128906 288.660156 280.710938 288.660156 279.878906 C 288.660156 279.109375 289.328125 278.578125 290.050781 278.578125 C 290.910156 278.578125 291.660156 279.058594 292.339844 279.539062 Z M 303.328125 282.339844 L 303.328125 281.691406 C 303.328125 280.761719 302.878906 277.578125 300.03125 277.578125 C 297.46875 277.578125 296.429688 279.851562 296.429688 282.089844 C 296.429688 284.308594 297.441406 286.488281 299.96875 286.488281 C 301.148438 286.488281 302.179688 286.121094 303.25 285.640625 L 302.738281 284.570312 C 301.949219 285.050781 301.011719 285.480469 300.058594 285.480469 C 298.75 285.480469 297.699219 284.699219 297.628906 282.339844 Z M 297.621094 281.339844 C 297.941406 279.609375 298.589844 278.578125 299.941406 278.578125 C 301.28125 278.578125 302.078125 279.929688 302.128906 281.339844 Z M 308.929688 286.308594 L 310.128906 286.308594 L 310.128906 274.441406 L 306.5 274.441406 L 306.5 275.449219 L 308.929688 275.449219 Z M 322.53125 282.339844 L 322.53125 281.691406 C 322.53125 280.761719 322.078125 277.578125 319.230469 277.578125 C 316.671875 277.578125 315.628906 279.851562 315.628906 282.089844 C 315.628906 284.308594 316.640625 286.488281 319.171875 286.488281 C 320.351562 286.488281 321.378906 286.121094 322.449219 285.640625 L 321.941406 284.570312 C 321.148438 285.050781 320.210938 285.480469 319.261719 285.480469 C 317.949219 285.480469 316.898438 284.699219 316.828125 282.339844 Z M 316.820312 281.339844 C 317.140625 279.609375 317.789062 278.578125 319.140625 278.578125 C 320.480469 278.578125 321.28125 279.929688 321.328125 281.339844 Z M 331.359375 284.070312 C 330.78125 284.761719 330.050781 285.480469 329.101562 285.480469 C 328 285.480469 326.621094 284.679688 326.621094 282.011719 C 326.621094 279.480469 327.859375 278.578125 329.070312 278.578125 C 330.128906 278.578125 330.75 279.300781 331.179688 280.171875 L 332.21875 279.480469 C 331.46875 278.339844 330.480469 277.578125 329.070312 277.578125 C 327.359375 277.578125 325.421875 278.699219 325.421875 282.121094 C 325.421875 285.511719 327.539062 286.488281 329.121094 286.488281 C 330.449219 286.488281 331.308594 285.851562 332.179688 284.921875 Z M 340.828125 277.75 L 337.78125 277.75 L 337.78125 275.128906 L 336.578125 275.128906 L 336.578125 277.75 L 334.738281 277.75 L 334.738281 278.761719 L 336.578125 278.761719 L 336.578125 283.261719 C 336.578125 285.820312 337.460938 286.488281 338.851562 286.488281 C 340.289062 286.488281 341.261719 285.5 341.839844 284.261719 L 340.691406 283.980469 C 340.351562 284.730469 339.789062 285.480469 338.878906 285.480469 C 337.789062 285.480469 337.78125 284.46875 337.78125 283.640625 L 337.78125 278.761719 L 340.828125 278.761719 Z M 349.621094 286.78125 C 347.730469 285.421875 347.039062 283.238281 347.039062 281 C 347.039062 278.761719 347.730469 276.578125 349.621094 275.238281 L 349.039062 274.441406 C 346.851562 275.859375 345.839844 278.46875 345.839844 281 C 345.839844 283.53125 346.851562 286.171875 349.039062 287.558594 Z M 355.660156 275.238281 C 357.550781 276.578125 358.238281 278.78125 358.238281 281 C 358.238281 283.238281 357.550781 285.429688 355.660156 286.78125 L 356.238281 287.558594 C 358.429688 286.148438 359.441406 283.53125 359.441406 281 C 359.441406 278.46875 358.429688 275.859375 356.238281 274.441406 Z M 355.660156 275.238281 "/>
<path fill-rule="nonzero" fill="rgb(0%, 0%, 0%)" fill-opacity="1" d="M 169.078125 5 L 169.078125 312 C 169.078125 314.210938 170.871094 316 173.078125 316 L 257.039062 316 C 259.25 316 261.039062 314.210938 261.039062 312 L 261.039062 5 C 261.039062 2.789062 259.25 1 257.039062 1 L 173.078125 1 C 170.871094 1 169.078125 2.789062 169.078125 5 Z M 169.078125 5 "/>
<path fill-rule="nonzero" fill="rgb(100%, 100%, 100%)" fill-opacity="1" d="M 181.558594 166.058594 L 181.558594 151.609375 L 190.648438 151.609375 L 190.648438 153.589844 L 184.570312 153.589844 L 184.570312 157.980469 L 189.570312 157.980469 L 189.570312 159.96875 L 184.570312 159.96875 L 184.570312 166.058594 Z M 198.300781 164.910156 C 197.328125 165.839844 196.300781 166.300781 195.199219 166.300781 C 194.261719 166.300781 193.5 166.019531 192.921875 165.441406 C 192.328125 164.871094 192.039062 164.128906 192.039062 163.21875 C 192.039062 162.03125 192.511719 161.121094 193.460938 160.480469 C 194.410156 159.839844 195.761719 159.519531 197.53125 159.519531 L 198.300781 159.519531 L 198.300781 158.539062 C 198.300781 157.429688 197.660156 156.871094 196.390625 156.871094 C 195.269531 156.871094 194.128906 157.191406 192.980469 157.828125 L 192.980469 155.828125 C 194.28125 155.339844 195.578125 155.089844 196.859375 155.089844 C 199.671875 155.089844 201.070312 156.210938 201.070312 158.441406 L 201.070312 163.191406 C 201.070312 164.03125 201.339844 164.449219 201.878906 164.449219 C 201.980469 164.449219 202.109375 164.429688 202.261719 164.410156 L 202.328125 166.03125 C 201.71875 166.210938 201.179688 166.300781 200.710938 166.300781 C 199.519531 166.300781 198.761719 165.839844 198.421875 164.910156 Z M 198.300781 163.351562 L 198.300781 161.179688 L 197.609375 161.179688 C 195.75 161.179688 194.808594 161.761719 194.808594 162.929688 C 194.808594 163.328125 194.949219 163.660156 195.21875 163.929688 C 195.488281 164.199219 195.820312 164.339844 196.21875 164.339844 C 196.890625 164.339844 197.589844 164.011719 198.300781 163.351562 Z M 212.710938 165.820312 C 211.511719 166.140625 210.398438 166.300781 209.378906 166.300781 C 207.671875 166.300781 206.320312 165.800781 205.320312 164.789062 C 204.328125 163.789062 203.828125 162.421875 203.828125 160.691406 C 203.828125 158.941406 204.351562 157.570312 205.371094 156.578125 C 206.390625 155.589844 207.800781 155.089844 209.609375 155.089844 C 210.480469 155.089844 211.480469 155.230469 212.621094 155.511719 L 212.621094 157.601562 C 211.441406 157.21875 210.488281 157.03125 209.78125 157.03125 C 208.921875 157.03125 208.21875 157.359375 207.691406 158.019531 C 207.160156 158.691406 206.898438 159.570312 206.898438 160.671875 C 206.898438 161.789062 207.191406 162.699219 207.761719 163.371094 C 208.320312 164.050781 209.089844 164.390625 210.039062 164.390625 C 210.898438 164.390625 211.789062 164.199219 212.710938 163.820312 Z M 220.699219 164.910156 C 219.738281 165.839844 218.699219 166.300781 217.601562 166.300781 C 216.671875 166.300781 215.898438 166.019531 215.320312 165.441406 C 214.730469 164.871094 214.441406 164.128906 214.441406 163.21875 C 214.441406 162.03125 214.910156 161.121094 215.859375 160.480469 C 216.808594 159.839844 218.160156 159.519531 219.929688 159.519531 L 220.699219 159.519531 L 220.699219 158.539062 C 220.699219 157.429688 220.058594 156.871094 218.800781 156.871094 C 217.671875 156.871094 216.53125 157.191406 215.378906 157.828125 L 215.378906 155.828125 C 216.691406 155.339844 217.980469 155.089844 219.261719 155.089844 C 222.070312 155.089844 223.46875 156.210938 223.46875 158.441406 L 223.46875 163.191406 C 223.46875 164.03125 223.738281 164.449219 224.28125 164.449219 C 224.378906 164.449219 224.511719 164.429688 224.660156 164.410156 L 224.730469 166.03125 C 224.121094 166.210938 223.578125 166.300781 223.109375 166.300781 C 221.929688 166.300781 221.171875 165.839844 220.828125 164.910156 Z M 220.699219 163.351562 L 220.699219 161.179688 L 220.019531 161.179688 C 218.148438 161.179688 217.210938 161.761719 217.210938 162.929688 C 217.210938 163.328125 217.351562 163.660156 217.621094 163.929688 C 217.890625 164.199219 218.21875 164.339844 218.621094 164.339844 C 219.300781 164.339844 219.988281 164.011719 220.699219 163.351562 Z M 233.949219 166.058594 L 233.949219 164.039062 C 233.210938 165.550781 232.039062 166.300781 230.449219 166.300781 C 229.160156 166.300781 228.140625 165.828125 227.410156 164.890625 C 226.671875 163.941406 226.308594 162.640625 226.308594 160.988281 C 226.308594 159.191406 226.71875 157.761719 227.550781 156.691406 C 228.378906 155.628906 229.5 155.089844 230.890625 155.089844 C 232.011719 155.089844 233.03125 155.53125 233.949219 156.421875 L 233.949219 150.640625 L 236.851562 150.640625 L 236.851562 166.058594 Z M 233.949219 158.140625 C 233.25 157.359375 232.511719 156.96875 231.71875 156.96875 C 231.011719 156.96875 230.441406 157.308594 230.019531 157.988281 C 229.589844 158.679688 229.378906 159.589844 229.378906 160.75 C 229.378906 162.941406 230.078125 164.039062 231.488281 164.039062 C 232.351562 164.039062 233.171875 163.488281 233.949219 162.390625 Z M 249.191406 165.699219 C 247.808594 166.101562 246.511719 166.300781 245.28125 166.300781 C 243.488281 166.300781 242.078125 165.789062 241.039062 164.78125 C 240.011719 163.761719 239.488281 162.378906 239.488281 160.621094 C 239.488281 158.960938 239.960938 157.621094 240.910156 156.609375 C 241.859375 155.601562 243.109375 155.089844 244.660156 155.089844 C 246.230469 155.089844 247.378906 155.589844 248.101562 156.578125 C 248.820312 157.570312 249.191406 159.128906 249.191406 161.269531 L 242.539062 161.269531 C 242.730469 163.320312 243.851562 164.339844 245.898438 164.339844 C 246.871094 164.339844 247.96875 164.121094 249.191406 163.671875 Z M 242.5 159.640625 L 246.339844 159.640625 C 246.339844 157.808594 245.75 156.898438 244.578125 156.898438 C 243.378906 156.898438 242.691406 157.808594 242.5 159.640625 Z M 242.5 159.640625 "/>
<path fill-rule="nonzero" fill="rgb(0%, 0%, 0%)" fill-opacity="1" d="M 54.109375 39.949219 C 53.75 38.910156 53.648438 37.789062 53.648438 36.671875 L 53.648438 27.300781 L 52.378906 27.300781 L 52.378906 31.160156 C 51.75 30.820312 51.21875 30.628906 50.460938 30.628906 C 48.980469 30.628906 46.769531 31.839844 46.769531 35.308594 C 46.769531 38.878906 48.808594 40.101562 50.398438 40.101562 C 51.460938 40.101562 51.871094 39.761719 52.628906 39.078125 L 52.898438 40.101562 Z M 52.378906 37.46875 C 52.039062 38.300781 51.421875 39.03125 50.441406 39.03125 C 49.589844 39.03125 48.039062 38.320312 48.039062 35.359375 C 48.039062 32.839844 49.300781 31.699219 50.660156 31.699219 C 51.300781 31.699219 51.878906 32.039062 52.378906 32.449219 Z M 60.738281 40.101562 C 62.488281 40.101562 64.359375 38.890625 64.359375 35.378906 C 64.359375 33.898438 63.949219 30.628906 60.738281 30.628906 C 59.011719 30.628906 57.140625 31.859375 57.140625 35.378906 C 57.140625 39.050781 59.160156 40.101562 60.738281 40.101562 Z M 60.738281 39.03125 C 58.75 39.03125 58.410156 36.941406 58.410156 35.378906 C 58.410156 33.808594 58.75 31.699219 60.738281 31.699219 C 62.730469 31.699219 63.089844 33.808594 63.089844 35.378906 C 63.089844 36.941406 62.730469 39.03125 60.738281 39.03125 Z M 75.039062 27.671875 L 66.859375 27.671875 L 66.859375 28.738281 L 70.28125 28.738281 L 70.28125 39.910156 L 71.550781 39.910156 L 71.550781 28.738281 L 75.039062 28.738281 Z M 78.050781 39.910156 L 79.320312 39.910156 L 79.320312 36.53125 C 79.320312 35.390625 79.289062 34.371094 79.78125 33.351562 C 80.171875 32.550781 81.019531 31.699219 81.96875 31.699219 C 83.128906 31.699219 83.128906 33.761719 83.128906 34.589844 L 83.128906 39.910156 L 84.398438 39.910156 L 84.398438 34.699219 C 84.398438 30.96875 83.148438 30.628906 82.058594 30.628906 C 80.941406 30.628906 79.96875 31.261719 79.320312 32.128906 L 79.320312 27.300781 L 78.050781 27.300781 Z M 90.929688 39.910156 L 92.210938 39.910156 L 92.210938 30.820312 L 88.351562 30.820312 L 88.351562 31.890625 L 90.929688 31.890625 Z M 91.53125 27.441406 C 90.929688 27.441406 90.460938 27.890625 90.460938 28.511719 C 90.460938 29.121094 90.929688 29.578125 91.53125 29.578125 C 92.121094 29.578125 92.601562 29.121094 92.601562 28.511719 C 92.601562 27.890625 92.121094 27.441406 91.53125 27.441406 Z M 99.601562 36.121094 C 99.601562 32.929688 101.109375 31.699219 102.320312 31.699219 C 103.441406 31.699219 103.441406 33.011719 103.441406 33.878906 L 103.441406 39.910156 L 104.71875 39.910156 L 104.71875 33.511719 C 104.71875 31.960938 103.96875 30.628906 102.53125 30.628906 C 101.25 30.628906 100.078125 31.410156 99.429688 32.488281 L 99.140625 30.820312 L 97.921875 30.820312 C 98.261719 32.261719 98.328125 33.808594 98.328125 35.339844 L 98.328125 39.910156 L 99.601562 39.910156 Z M 114.101562 30.628906 L 113.871094 31.429688 C 113.171875 30.921875 112.511719 30.628906 111.640625 30.628906 C 109.121094 30.628906 108.171875 32.890625 108.171875 35.050781 C 108.171875 37.019531 109.238281 39.148438 111.46875 39.148438 C 112.371094 39.148438 112.949219 38.839844 113.640625 38.378906 L 113.640625 39.101562 C 113.640625 40.390625 113.03125 41.609375 111.691406 41.609375 C 110.839844 41.609375 110.058594 41.171875 109.550781 40.511719 L 108.648438 41.289062 C 109.359375 42.070312 110.46875 42.679688 111.539062 42.679688 C 112.851562 42.679688 114.921875 41.871094 114.921875 39.03125 L 114.921875 34.03125 C 114.921875 32.878906 115 31.738281 115.308594 30.628906 Z M 113.640625 36.890625 C 113.25 37.550781 112.320312 38.078125 111.539062 38.078125 C 110.300781 38.078125 109.449219 36.671875 109.449219 34.898438 C 109.449219 33.511719 109.96875 31.699219 111.660156 31.699219 C 112.441406 31.699219 113.238281 32.210938 113.640625 32.828125 Z M 124.730469 31.691406 C 123.828125 31.039062 122.929688 30.628906 121.789062 30.628906 C 120.210938 30.628906 118.980469 31.699219 118.980469 33.03125 C 118.980469 34.660156 120.480469 35.269531 121.769531 35.769531 C 122.699219 36.121094 123.660156 36.449219 123.660156 37.640625 C 123.660156 38.550781 122.929688 39.03125 122.078125 39.03125 C 121.011719 39.03125 119.828125 38.269531 119.121094 37.5 L 118.421875 38.519531 C 119.421875 39.421875 120.78125 40.101562 122.160156 40.101562 C 123.570312 40.101562 124.929688 39.078125 124.929688 37.578125 C 124.929688 35.78125 123.441406 35.191406 122.011719 34.660156 C 121.308594 34.410156 120.261719 33.960938 120.261719 33.078125 C 120.261719 32.261719 120.96875 31.699219 121.738281 31.699219 C 122.648438 31.699219 123.449219 32.210938 124.171875 32.71875 Z M 134.03125 40.410156 C 132.019531 38.960938 131.289062 36.648438 131.289062 34.269531 C 131.289062 31.890625 132.019531 29.578125 134.03125 28.148438 L 133.421875 27.300781 C 131.089844 28.808594 130.019531 31.578125 130.019531 34.269531 C 130.019531 36.960938 131.089844 39.761719 133.421875 41.238281 Z M 140.449219 28.148438 C 142.460938 29.578125 143.191406 31.910156 143.191406 34.269531 C 143.191406 36.648438 142.460938 38.980469 140.449219 40.410156 L 141.070312 41.238281 C 143.390625 39.738281 144.460938 36.960938 144.460938 34.269531 C 144.460938 31.578125 143.390625 28.808594 141.070312 27.300781 Z M 140.449219 28.148438 "/>
<path fill-rule="nonzero" fill="rgb(0%, 0%, 0%)" fill-opacity="1" d="M 93.011719 286.828125 C 92.648438 285.789062 92.550781 284.671875 92.550781 283.550781 L 92.550781 274.179688 L 91.28125 274.179688 L 91.28125 278.039062 C 90.648438 277.699219 90.121094 277.511719 89.359375 277.511719 C 87.878906 277.511719 85.671875 278.71875 85.671875 282.191406 C 85.671875 285.761719 87.710938 286.980469 89.300781 286.980469 C 90.359375 286.980469 90.769531 286.640625 91.53125 285.960938 L 91.800781 286.980469 Z M 91.28125 284.351562 C 90.941406 285.179688 90.320312 285.910156 89.339844 285.910156 C 88.488281 285.910156 86.941406 285.199219 86.941406 282.238281 C 86.941406 279.71875 88.199219 278.578125 89.558594 278.578125 C 90.199219 278.578125 90.78125 278.921875 91.28125 279.328125 Z M 97.210938 279.261719 C 97.941406 278.960938 98.691406 278.578125 99.488281 278.578125 C 100.441406 278.578125 101.050781 279.300781 101.050781 280.300781 L 101.050781 281.171875 C 100.46875 280.929688 99.828125 280.730469 99.148438 280.730469 C 97.308594 280.730469 96.238281 282.261719 96.238281 284.011719 C 96.238281 285.621094 97.210938 286.980469 98.941406 286.980469 C 99.898438 286.980469 100.589844 286.609375 101.199219 285.878906 L 101.53125 287.019531 L 102.71875 286.859375 C 102.449219 286.078125 102.328125 285.230469 102.328125 284.398438 L 102.328125 280.449219 C 102.328125 278.941406 101.269531 277.511719 99.539062 277.511719 C 98.589844 277.511719 97.789062 277.800781 96.921875 278.140625 Z M 101.050781 284.351562 C 100.519531 285.078125 99.929688 285.910156 98.941406 285.910156 C 97.960938 285.910156 97.519531 284.921875 97.519531 284.070312 C 97.519531 282.921875 98.019531 281.800781 99.320312 281.800781 C 99.929688 281.800781 100.511719 282 101.050781 282.238281 Z M 112.589844 277.699219 L 109.351562 277.699219 L 109.351562 274.910156 L 108.070312 274.910156 L 108.070312 277.699219 L 106.121094 277.699219 L 106.121094 278.769531 L 108.070312 278.769531 L 108.070312 283.550781 C 108.070312 286.269531 109.011719 286.980469 110.488281 286.980469 C 112.019531 286.980469 113.050781 285.929688 113.660156 284.621094 L 112.441406 284.308594 C 112.078125 285.109375 111.488281 285.910156 110.519531 285.910156 C 109.359375 285.910156 109.351562 284.839844 109.351562 283.960938 L 109.351562 278.769531 L 112.589844 278.769531 Z M 117.609375 279.261719 C 118.339844 278.960938 119.089844 278.578125 119.890625 278.578125 C 120.839844 278.578125 121.449219 279.300781 121.449219 280.300781 L 121.449219 281.171875 C 120.871094 280.929688 120.230469 280.730469 119.550781 280.730469 C 117.710938 280.730469 116.640625 282.261719 116.640625 284.011719 C 116.640625 285.621094 117.609375 286.980469 119.339844 286.980469 C 120.300781 286.980469 120.988281 286.609375 121.601562 285.878906 L 121.929688 287.019531 L 123.121094 286.859375 C 122.851562 286.078125 122.730469 285.230469 122.730469 284.398438 L 122.730469 280.449219 C 122.730469 278.941406 121.671875 277.511719 119.941406 277.511719 C 118.988281 277.511719 118.191406 277.800781 117.320312 278.140625 Z M 121.449219 284.351562 C 120.921875 285.078125 120.328125 285.910156 119.339844 285.910156 C 118.359375 285.910156 117.921875 284.921875 117.921875 284.070312 C 117.921875 282.921875 118.421875 281.800781 119.71875 281.800781 C 120.328125 281.800781 120.910156 282 121.449219 282.238281 Z M 130.769531 281.21875 C 131.699219 281.660156 132.039062 282.121094 132.039062 283 C 132.039062 283.820312 131.53125 284.378906 130.769531 284.601562 Z M 129.628906 284.578125 C 128.878906 284.46875 128.199219 283.988281 127.640625 283.460938 L 126.859375 284.378906 C 127.601562 285.109375 128.609375 285.660156 129.628906 285.71875 L 129.628906 287.300781 L 130.769531 287.300781 L 130.769531 285.71875 C 132.25 285.480469 133.320312 284.53125 133.320312 282.96875 C 133.320312 281.558594 132.53125 280.660156 130.769531 279.910156 L 130.769531 276.539062 C 131.410156 276.679688 132.058594 277.101562 132.53125 277.578125 L 133.28125 276.609375 C 132.589844 276 131.648438 275.539062 130.769531 275.421875 L 130.769531 274.179688 L 129.628906 274.179688 L 129.628906 275.441406 C 128.390625 275.660156 127.210938 276.609375 127.210938 277.988281 C 127.210938 278.699219 127.5 279.28125 127.929688 279.738281 C 128.371094 280.199219 129.03125 280.539062 129.628906 280.738281 Z M 129.640625 279.46875 C 128.78125 279.039062 128.488281 278.621094 128.488281 278.019531 C 128.488281 277.210938 128.898438 276.828125 129.640625 276.589844 Z M 129.640625 279.46875 "/>
<path fill="none" stroke-width="3" stroke-linecap="butt" stroke-linejoin="miter" stroke="rgb(0%, 0%, 0%)" stroke-opacity="1" stroke-miterlimit="1.45" d="M 875.28125 312 L 956.800781 312 L 956.800781 380.300781 " transform="matrix(1, 0, 0, 1, -321, -251)"/>
<path fill-rule="nonzero" fill="rgb(0%, 0%, 0%)" fill-opacity="1" d="M 635.800781 139.300781 L 642.050781 124.300781 L 635.800781 128.050781 L 629.550781 124.300781 Z M 635.800781 139.300781 "/>
<path fill="none" stroke-width="3" stroke-linecap="butt" stroke-linejoin="miter" stroke="rgb(0%, 0%, 0%)" stroke-opacity="1" stroke-miterlimit="1.45" d="M 956.800781 435.53125 L 956.800781 510 L 885.28125 510.289062 " transform="matrix(1, 0, 0, 1, -321, -251)"/>
<path fill-rule="nonzero" fill="rgb(0%, 0%, 0%)" fill-opacity="1" d="M 554.28125 259.339844 L 569.308594 265.519531 L 565.53125 259.289062 L 569.261719 253.019531 Z M 554.28125 259.339844 "/>
<path fill="none" stroke-width="5" stroke-linecap="butt" stroke-linejoin="miter" stroke="rgb(0%, 0%, 0%)" stroke-opacity="1" stroke-miterlimit="1.45" d="M 388 376.96875 L 388 312 L 478.078125 312 " transform="matrix(1, 0, 0, 1, -321, -251)"/>
<path fill-rule="nonzero" fill="rgb(0%, 0%, 0%)" fill-opacity="1" d="M 169.078125 61 L 151.078125 53.5 L 155.578125 61 L 151.078125 68.5 Z M 169.078125 61 "/>
<path fill="none" stroke-width="3" stroke-linecap="butt" stroke-linejoin="miter" stroke="rgb(0%, 0%, 0%)" stroke-opacity="1" stroke-miterlimit="1.45" d="M 727.308594 510.449219 L 592.011719 510.101562 " transform="matrix(1, 0, 0, 1, -321, -251)"/>
<path fill-rule="nonzero" fill="rgb(0%, 0%, 0%)" fill-opacity="1" d="M 261.011719 259.070312 L 275.988281 265.359375 L 272.261719 259.101562 L 276.019531 252.859375 Z M 261.011719 259.070312 "/>
<path fill="none" stroke-width="5" stroke-linecap="butt" stroke-linejoin="miter" stroke="rgb(0%, 0%, 0%)" stroke-opacity="1" stroke-miterlimit="1.45" d="M 490.078125 510 L 388 510 L 388 462.019531 " transform="matrix(1, 0, 0, 1, -321, -251)"/>
<path fill-rule="nonzero" fill="rgb(0%, 0%, 0%)" fill-opacity="1" d="M 67 199.019531 L 59.5 217.019531 L 67 212.519531 L 74.5 217.019531 Z M 67 199.019531 "/>
<path fill="none" stroke-width="3" stroke-linecap="butt" stroke-linejoin="miter" stroke="rgb(0%, 0%, 0%)" stroke-opacity="1" stroke-miterlimit="1.45" d="M 582.03125 312 L 717.28125 312 " transform="matrix(1, 0, 0, 1, -321, -251)"/>
<path fill-rule="nonzero" fill="rgb(0%, 0%, 0%)" fill-opacity="1" d="M 406.28125 61 L 391.28125 54.75 L 395.03125 61 L 391.28125 67.25 Z M 406.28125 61 "/>
</svg>
