<?xml version="1.0" encoding="UTF-8"?>
<svg xmlns="http://www.w3.org/2000/svg" xmlns:xlink="http://www.w3.org/1999/xlink" width="1127pt" height="378pt" viewBox="0 0 1127 378">
<rect x="-112.7" y="-37.8" width="1352.4" height="453.6" fill="rgb(100%, 100%, 100%)" fill-opacity="1"/>
<path fill-rule="nonzero" fill="rgb(86.66687%, 86.66687%, 86.66687%)" fill-opacity="1" d="M 203 4 L 203 374 C 203 376.210938 204.789062 378 207 378 L 848 378 C 850.199219 378 852 376.210938 852 374 L 852 4 C 852 1.789062 850.199219 0 848 0 L 207 0 C 204.789062 0 203 1.789062 203 4 Z M 203 4 "/>
<path fill-rule="nonzero" fill="rgb(0%, 0%, 0%)" fill-opacity="1" d="M 254 35 L 254 85 C 254 87.210938 255.789062 89 258 89 L 398 89 C 400.210938 89 402 87.210938 402 85 L 402 35 C 402 32.789062 400.210938 31 398 31 L 258 31 C 255.789062 31 254 32.789062 254 35 Z M 254 35 "/>
<path fill-rule="nonzero" fill="rgb(100%, 100%, 100%)" fill-opacity="1" d="M 292.011719 68.308594 L 298.199219 52.421875 L 301.5 52.421875 L 307.691406 68.308594 L 304.300781 68.308594 L 302.640625 64.070312 L 296.070312 64.070312 L 294.410156 68.308594 Z M 296.890625 61.960938 L 301.828125 61.960938 L 299.359375 55.621094 Z M 318.648438 68.058594 C 317.328125 68.410156 316.109375 68.578125 314.988281 68.578125 C 313.101562 68.578125 311.609375 68.03125 310.519531 66.921875 C 309.429688 65.820312 308.878906 64.308594 308.878906 62.410156 C 308.878906 60.480469 309.449219 58.96875 310.570312 57.878906 C 311.699219 56.800781 313.25 56.25 315.230469 56.25 C 316.191406 56.25 317.300781 56.398438 318.550781 56.710938 L 318.550781 59.011719 C 317.25 58.589844 316.210938 58.378906 315.429688 58.378906 C 314.46875 58.378906 313.710938 58.738281 313.128906 59.46875 C 312.550781 60.199219 312.261719 61.171875 312.261719 62.378906 C 312.261719 63.621094 312.570312 64.621094 313.199219 65.359375 C 313.820312 66.109375 314.660156 66.480469 315.710938 66.480469 C 316.660156 66.480469 317.640625 66.269531 318.648438 65.851562 Z M 327.738281 68.25 C 326.980469 68.46875 326.378906 68.578125 325.941406 68.578125 C 323.191406 68.578125 321.808594 67.289062 321.808594 64.71875 L 321.808594 58.511719 L 320.488281 58.511719 L 320.488281 56.519531 L 321.808594 56.519531 L 321.808594 54.53125 L 324.988281 54.171875 L 324.988281 56.519531 L 327.511719 56.519531 L 327.511719 58.511719 L 324.988281 58.511719 L 324.988281 64.300781 C 324.988281 65.738281 325.578125 66.46875 326.761719 66.46875 C 327.03125 66.46875 327.359375 66.421875 327.738281 66.320312 Z M 330.570312 68.308594 L 330.570312 56.519531 L 333.75 56.519531 L 333.75 68.308594 Z M 330.570312 54.53125 L 330.570312 51.878906 L 333.75 51.878906 L 333.75 54.53125 Z M 342.679688 68.578125 C 340.839844 68.578125 339.378906 68.03125 338.289062 66.910156 C 337.210938 65.800781 336.660156 64.300781 336.660156 62.421875 C 336.660156 60.511719 337.210938 59.011719 338.300781 57.910156 C 339.390625 56.800781 340.878906 56.25 342.75 56.25 C 344.640625 56.25 346.128906 56.800781 347.21875 57.910156 C 348.308594 59.011719 348.859375 60.5 348.859375 62.398438 C 348.859375 64.328125 348.308594 65.839844 347.210938 66.941406 C 346.121094 68.039062 344.609375 68.578125 342.679688 68.578125 Z M 342.730469 66.601562 C 344.558594 66.601562 345.46875 65.199219 345.46875 62.398438 C 345.46875 61.109375 345.230469 60.101562 344.75 59.359375 C 344.261719 58.609375 343.601562 58.238281 342.75 58.238281 C 341.921875 58.238281 341.261719 58.609375 340.769531 59.359375 C 340.289062 60.101562 340.050781 61.121094 340.050781 62.421875 C 340.050781 63.699219 340.289062 64.71875 340.769531 65.46875 C 341.25 66.21875 341.898438 66.601562 342.730469 66.601562 Z M 351.78125 68.308594 L 351.78125 56.519531 L 354.960938 56.519531 L 354.960938 58.738281 C 356 57.078125 357.339844 56.25 358.980469 56.25 C 360.03125 56.25 360.859375 56.578125 361.46875 57.25 C 362.078125 57.921875 362.378906 58.828125 362.378906 59.980469 L 362.378906 68.308594 L 359.199219 68.308594 L 359.199219 60.761719 C 359.199219 59.421875 358.761719 58.75 357.871094 58.75 C 356.859375 58.75 355.890625 59.46875 354.960938 60.890625 L 354.960938 68.308594 Z M 351.78125 68.308594 "/>
<path fill-rule="nonzero" fill="rgb(0%, 0%, 0%)" fill-opacity="1" d="M 436 133.5 L 436 183.5 C 436 185.710938 437.789062 187.5 440 187.5 L 580 187.5 C 582.199219 187.5 584 185.710938 584 183.5 L 584 133.5 C 584 131.289062 582.199219 129.5 580 129.5 L 440 129.5 C 437.789062 129.5 436 131.289062 436 133.5 Z M 436 133.5 "/>
<path fill-rule="nonzero" fill="rgb(100%, 100%, 100%)" fill-opacity="1" d="M 466.140625 166.808594 L 466.140625 150.921875 L 472.089844 150.921875 C 475.320312 150.921875 476.941406 152.230469 476.941406 154.859375 C 476.941406 155.839844 476.660156 156.730469 476.109375 157.539062 C 475.570312 158.339844 474.808594 158.960938 473.851562 159.390625 L 479.050781 166.808594 L 475.019531 166.808594 L 471.078125 160.320312 L 469.25 160.320312 L 469.25 166.808594 Z M 469.25 158.128906 L 470.019531 158.128906 C 472.421875 158.128906 473.621094 157.160156 473.621094 155.21875 C 473.621094 153.808594 472.550781 153.101562 470.398438 153.101562 L 469.25 153.101562 Z M 490.921875 166.421875 C 489.410156 166.859375 487.980469 167.078125 486.621094 167.078125 C 484.660156 167.078125 483.101562 166.519531 481.960938 165.410156 C 480.820312 164.289062 480.25 162.761719 480.25 160.828125 C 480.25 159 480.78125 157.53125 481.820312 156.421875 C 482.859375 155.308594 484.238281 154.75 485.949219 154.75 C 487.671875 154.75 488.929688 155.300781 489.730469 156.378906 C 490.519531 157.46875 490.921875 159.191406 490.921875 161.550781 L 483.609375 161.550781 C 483.820312 163.800781 485.058594 164.921875 487.308594 164.921875 C 488.378906 164.921875 489.578125 164.679688 490.921875 164.179688 Z M 483.558594 159.761719 L 487.800781 159.761719 C 487.800781 157.738281 487.148438 156.738281 485.851562 156.738281 C 484.53125 156.738281 483.769531 157.738281 483.558594 159.761719 Z M 501.628906 166.808594 L 501.628906 164.589844 C 500.820312 166.25 499.53125 167.078125 497.78125 167.078125 C 496.359375 167.078125 495.238281 166.558594 494.429688 165.53125 C 493.628906 164.488281 493.21875 163.058594 493.21875 161.238281 C 493.21875 159.261719 493.679688 157.691406 494.589844 156.511719 C 495.5 155.339844 496.730469 154.75 498.269531 154.75 C 499.5 154.75 500.621094 155.238281 501.628906 156.210938 L 501.628906 149.851562 L 504.820312 149.851562 L 504.820312 166.808594 Z M 501.628906 158.101562 C 500.871094 157.238281 500.050781 156.808594 499.171875 156.808594 C 498.390625 156.808594 497.769531 157.191406 497.300781 157.941406 C 496.839844 158.691406 496.601562 159.699219 496.601562 160.96875 C 496.601562 163.378906 497.378906 164.589844 498.921875 164.589844 C 499.871094 164.589844 500.769531 163.988281 501.628906 162.78125 Z M 516.101562 166.808594 L 516.101562 164.589844 C 515 166.25 513.699219 167.078125 512.101562 167.078125 C 511.011719 167.078125 510.179688 166.75 509.570312 166.078125 C 508.960938 165.421875 508.660156 164.511719 508.660156 163.359375 L 508.660156 155.019531 L 511.839844 155.019531 L 511.839844 162.570312 C 511.839844 163.910156 512.300781 164.578125 513.199219 164.578125 C 514.199219 164.578125 515.101562 163.871094 516.101562 162.441406 L 516.101562 155.019531 L 519.300781 155.019531 L 519.300781 166.808594 Z M 531.898438 166.558594 C 530.601562 166.910156 529.398438 167.078125 528.300781 167.078125 C 526.398438 167.078125 524.898438 166.53125 523.800781 165.421875 C 522.699219 164.320312 522.199219 162.808594 522.199219 160.910156 C 522.199219 158.980469 522.699219 157.46875 523.898438 156.378906 C 525 155.300781 526.5 154.75 528.5 154.75 C 529.5 154.75 530.601562 154.898438 531.800781 155.210938 L 531.800781 157.511719 C 530.5 157.089844 529.5 156.878906 528.699219 156.878906 C 527.800781 156.878906 527 157.238281 526.398438 157.96875 C 525.800781 158.699219 525.5 159.671875 525.5 160.878906 C 525.5 162.121094 525.898438 163.121094 526.5 163.859375 C 527.101562 164.609375 527.898438 164.980469 529 164.980469 C 529.898438 164.980469 530.898438 164.769531 531.898438 164.351562 Z M 544.5 166.421875 C 543 166.859375 541.601562 167.078125 540.199219 167.078125 C 538.300781 167.078125 536.699219 166.519531 535.601562 165.410156 C 534.398438 164.289062 533.898438 162.761719 533.898438 160.828125 C 533.898438 159 534.398438 157.53125 535.398438 156.421875 C 536.5 155.308594 537.898438 154.75 539.601562 154.75 C 541.300781 154.75 542.601562 155.300781 543.398438 156.378906 C 544.101562 157.46875 544.5 159.191406 544.5 161.550781 L 537.199219 161.550781 C 537.398438 163.800781 538.699219 164.921875 540.898438 164.921875 C 542 164.921875 543.199219 164.679688 544.5 164.179688 Z M 537.199219 159.761719 L 541.398438 159.761719 C 541.398438 157.738281 540.800781 156.738281 539.5 156.738281 C 538.199219 156.738281 537.398438 157.738281 537.199219 159.761719 Z M 547.800781 166.808594 L 547.800781 155.019531 L 551 155.019531 L 551 157.238281 C 551.800781 155.578125 553.101562 154.75 554.800781 154.75 C 555 154.75 555.199219 154.769531 555.398438 154.820312 L 555.398438 157.648438 C 554.898438 157.488281 554.5 157.398438 554.101562 157.398438 C 552.800781 157.398438 551.800781 158.050781 551 159.328125 L 551 166.808594 Z M 547.800781 166.808594 "/>
<path fill-rule="nonzero" fill="rgb(50.195312%, 50.195312%, 50.195312%)" fill-opacity="1" d="M 254 298 L 254 348 C 254 350.210938 255.789062 352 258 352 L 398 352 C 400.210938 352 402 350.210938 402 348 L 402 298 C 402 295.789062 400.210938 294 398 294 L 258 294 C 255.789062 294 254 295.789062 254 298 Z M 254 298 "/>
<path fill-rule="nonzero" fill="rgb(100%, 100%, 100%)" fill-opacity="1" d="M 300.980469 331.171875 L 300.980469 328.449219 C 302.691406 329.160156 304.160156 329.519531 305.378906 329.519531 C 306.230469 329.519531 306.898438 329.328125 307.390625 328.949219 C 307.878906 328.570312 308.128906 328.058594 308.128906 327.398438 C 308.128906 326.890625 307.96875 326.449219 307.671875 326.101562 C 307.359375 325.738281 306.769531 325.320312 305.910156 324.839844 L 304.851562 324.25 C 303.429688 323.441406 302.421875 322.679688 301.828125 321.941406 C 301.238281 321.210938 300.949219 320.351562 300.949219 319.371094 C 300.949219 318.058594 301.429688 317.011719 302.398438 316.210938 C 303.359375 315.421875 304.628906 315.019531 306.210938 315.019531 C 307.480469 315.019531 308.910156 315.199219 310.5 315.570312 L 310.5 318.109375 C 308.878906 317.5 307.589844 317.199219 306.640625 317.199219 C 305.910156 317.199219 305.328125 317.359375 304.890625 317.691406 C 304.449219 318.011719 304.230469 318.441406 304.230469 318.96875 C 304.230469 319.410156 304.378906 319.789062 304.691406 320.121094 C 305 320.449219 305.578125 320.859375 306.429688 321.328125 L 307.570312 321.96875 C 309.101562 322.828125 310.160156 323.621094 310.738281 324.339844 C 311.320312 325.070312 311.609375 325.949219 311.609375 326.988281 C 311.609375 328.460938 311.058594 329.621094 309.960938 330.460938 C 308.871094 331.289062 307.359375 331.710938 305.429688 331.710938 C 304.160156 331.710938 302.671875 331.53125 300.980469 331.171875 Z M 320.519531 331.25 C 319.761719 331.46875 319.171875 331.578125 318.730469 331.578125 C 315.96875 331.578125 314.589844 330.289062 314.589844 327.71875 L 314.589844 321.511719 L 313.269531 321.511719 L 313.269531 319.519531 L 314.589844 319.519531 L 314.589844 317.53125 L 317.769531 317.171875 L 317.769531 319.519531 L 320.300781 319.519531 L 320.300781 321.511719 L 317.769531 321.511719 L 317.769531 327.300781 C 317.769531 328.738281 318.359375 329.46875 319.550781 329.46875 C 319.820312 329.46875 320.140625 329.421875 320.519531 329.320312 Z M 329.140625 330.050781 C 328.078125 331.070312 326.941406 331.578125 325.730469 331.578125 C 324.699219 331.578125 323.859375 331.269531 323.21875 330.640625 C 322.578125 330.011719 322.25 329.191406 322.25 328.191406 C 322.25 326.890625 322.769531 325.878906 323.820312 325.179688 C 324.859375 324.46875 326.351562 324.121094 328.289062 324.121094 L 329.140625 324.121094 L 329.140625 323.039062 C 329.140625 321.820312 328.441406 321.210938 327.039062 321.210938 C 325.808594 321.210938 324.550781 321.558594 323.28125 322.261719 L 323.28125 320.070312 C 324.71875 319.519531 326.148438 319.25 327.558594 319.25 C 330.648438 319.25 332.191406 320.480469 332.191406 322.941406 L 332.191406 328.160156 C 332.191406 329.078125 332.488281 329.539062 333.078125 329.539062 C 333.191406 329.539062 333.328125 329.53125 333.5 329.5 L 333.578125 331.28125 C 332.898438 331.480469 332.308594 331.578125 331.789062 331.578125 C 330.488281 331.578125 329.648438 331.070312 329.28125 330.050781 Z M 329.140625 328.339844 L 329.140625 325.941406 L 328.390625 325.941406 C 326.328125 325.941406 325.300781 326.589844 325.300781 327.878906 C 325.300781 328.308594 325.449219 328.679688 325.75 328.980469 C 326.050781 329.28125 326.410156 329.421875 326.851562 329.421875 C 327.601562 329.421875 328.359375 329.058594 329.140625 328.339844 Z M 342.371094 331.25 C 341.609375 331.46875 341.019531 331.578125 340.578125 331.578125 C 337.820312 331.578125 336.441406 330.289062 336.441406 327.71875 L 336.441406 321.511719 L 335.121094 321.511719 L 335.121094 319.519531 L 336.441406 319.519531 L 336.441406 317.53125 L 339.621094 317.171875 L 339.621094 319.519531 L 342.148438 319.519531 L 342.148438 321.511719 L 339.621094 321.511719 L 339.621094 327.300781 C 339.621094 328.738281 340.210938 329.46875 341.398438 329.46875 C 341.671875 329.46875 341.988281 329.421875 342.371094 329.320312 Z M 354.808594 330.921875 C 353.300781 331.359375 351.871094 331.578125 350.519531 331.578125 C 348.550781 331.578125 346.988281 331.019531 345.851562 329.910156 C 344.710938 328.789062 344.148438 327.261719 344.148438 325.328125 C 344.148438 323.5 344.671875 322.03125 345.710938 320.921875 C 346.75 319.808594 348.128906 319.25 349.839844 319.25 C 351.558594 319.25 352.828125 319.800781 353.621094 320.878906 C 354.421875 321.96875 354.808594 323.691406 354.808594 326.050781 L 347.5 326.050781 C 347.710938 328.300781 348.949219 329.421875 351.199219 329.421875 C 352.269531 329.421875 353.46875 329.179688 354.808594 328.679688 Z M 347.449219 324.261719 L 351.691406 324.261719 C 351.691406 322.238281 351.039062 321.238281 349.738281 321.238281 C 348.421875 321.238281 347.660156 322.238281 347.449219 324.261719 Z M 347.449219 324.261719 "/>
<path fill-rule="nonzero" fill="rgb(50.195312%, 50.195312%, 50.195312%)" fill-opacity="1" d="M 0 156.5 L 0 221.5 C 0 223.710938 1.789062 225.5 4 225.5 L 144 225.5 C 146.210938 225.5 148 223.710938 148 221.5 L 148 156.5 C 148 154.289062 146.210938 152.5 144 152.5 L 4 152.5 C 1.789062 152.5 0 154.289062 0 156.5 Z M 0 156.5 "/>
<path fill-rule="nonzero" fill="rgb(100%, 100%, 100%)" fill-opacity="1" d="M 32.75 195.28125 C 31.488281 195.851562 29.988281 196.128906 28.238281 196.128906 C 26.109375 196.128906 24.449219 195.53125 23.261719 194.328125 C 22.070312 193.121094 21.480469 191.449219 21.480469 189.300781 C 21.480469 187.109375 22.078125 185.421875 23.269531 184.238281 C 24.46875 183.058594 26.179688 182.46875 28.398438 182.46875 C 29.820312 182.46875 31.230469 182.640625 32.628906 182.96875 L 32.628906 185.089844 C 31.039062 184.53125 29.710938 184.25 28.640625 184.25 C 27.269531 184.25 26.210938 184.691406 25.46875 185.558594 C 24.71875 186.429688 24.351562 187.660156 24.351562 189.261719 C 24.351562 190.828125 24.75 192.058594 25.550781 192.941406 C 26.351562 193.820312 27.460938 194.261719 28.890625 194.261719 C 30.160156 194.261719 31.449219 193.929688 32.75 193.289062 Z M 39.160156 196.019531 C 37.648438 196.019531 36.460938 195.570312 35.570312 194.660156 C 34.679688 193.738281 34.238281 192.519531 34.238281 190.980469 C 34.238281 189.421875 34.691406 188.191406 35.578125 187.289062 C 36.46875 186.378906 37.691406 185.929688 39.21875 185.929688 C 40.761719 185.929688 41.980469 186.378906 42.871094 187.289062 C 43.769531 188.191406 44.210938 189.410156 44.210938 190.960938 C 44.210938 192.539062 43.769531 193.78125 42.871094 194.679688 C 41.96875 195.570312 40.738281 196.019531 39.160156 196.019531 Z M 39.199219 194.398438 C 40.699219 194.398438 41.449219 193.25 41.449219 190.960938 C 41.449219 189.910156 41.25 189.078125 40.851562 188.46875 C 40.460938 187.859375 39.910156 187.558594 39.21875 187.558594 C 38.539062 187.558594 38 187.859375 37.601562 188.46875 C 37.199219 189.078125 37.011719 189.921875 37.011719 190.980469 C 37.011719 192.03125 37.199219 192.859375 37.601562 193.46875 C 37.988281 194.089844 38.519531 194.398438 39.199219 194.398438 Z M 46.601562 195.800781 L 46.601562 186.148438 L 49.101562 186.148438 L 49.101562 187.96875 C 49.859375 186.609375 50.949219 185.929688 52.351562 185.929688 C 53.078125 185.929688 53.679688 186.109375 54.148438 186.46875 C 54.609375 186.828125 54.898438 187.328125 55.011719 187.96875 C 55.910156 186.609375 57 185.929688 58.28125 185.929688 C 60.039062 185.929688 60.921875 186.910156 60.921875 188.851562 L 60.921875 195.800781 L 58.429688 195.800781 L 58.429688 189.699219 C 58.429688 188.558594 58.039062 187.988281 57.28125 187.988281 C 56.5 187.988281 55.75 188.550781 55.011719 189.679688 L 55.011719 195.800781 L 52.511719 195.800781 L 52.511719 189.699219 C 52.511719 188.550781 52.128906 187.980469 51.359375 187.980469 C 50.589844 187.980469 49.839844 188.550781 49.101562 189.679688 L 49.101562 195.800781 Z M 64.058594 199.269531 L 64.058594 186.148438 L 66.660156 186.148438 L 66.660156 187.96875 C 67.328125 186.609375 68.378906 185.929688 69.820312 185.929688 C 70.980469 185.929688 71.890625 186.359375 72.550781 187.210938 C 73.21875 188.058594 73.550781 189.230469 73.550781 190.710938 C 73.550781 192.328125 73.179688 193.621094 72.429688 194.578125 C 71.679688 195.539062 70.671875 196.019531 69.410156 196.019531 C 68.398438 196.019531 67.480469 195.621094 66.660156 194.828125 L 66.660156 199.269531 Z M 66.660156 193.28125 C 67.289062 193.980469 67.96875 194.328125 68.679688 194.328125 C 69.320312 194.328125 69.828125 194.03125 70.210938 193.410156 C 70.589844 192.789062 70.78125 191.960938 70.78125 190.929688 C 70.78125 188.960938 70.148438 187.96875 68.878906 187.96875 C 68.109375 187.96875 67.371094 188.46875 66.660156 189.460938 Z M 80.039062 196.019531 C 78.53125 196.019531 77.339844 195.570312 76.449219 194.660156 C 75.558594 193.738281 75.121094 192.519531 75.121094 190.980469 C 75.121094 189.421875 75.558594 188.191406 76.460938 187.289062 C 77.351562 186.378906 78.558594 185.929688 80.101562 185.929688 C 81.640625 185.929688 82.859375 186.378906 83.75 187.289062 C 84.648438 188.191406 85.089844 189.410156 85.089844 190.960938 C 85.089844 192.539062 84.640625 193.78125 83.75 194.679688 C 82.851562 195.570312 81.609375 196.019531 80.039062 196.019531 Z M 80.078125 194.398438 C 81.578125 194.398438 82.320312 193.25 82.320312 190.960938 C 82.320312 189.910156 82.128906 189.078125 81.730469 188.46875 C 81.328125 187.859375 80.789062 187.558594 80.101562 187.558594 C 79.410156 187.558594 78.871094 187.859375 78.480469 188.46875 C 78.078125 189.078125 77.878906 189.921875 77.878906 190.980469 C 77.878906 192.03125 78.078125 192.859375 78.46875 193.46875 C 78.871094 194.089844 79.398438 194.398438 80.078125 194.398438 Z M 87.480469 195.800781 L 87.480469 186.148438 L 90.078125 186.148438 L 90.078125 187.96875 C 90.929688 186.609375 92.03125 185.929688 93.371094 185.929688 C 94.230469 185.929688 94.910156 186.210938 95.410156 186.75 C 95.910156 187.289062 96.160156 188.039062 96.160156 188.980469 L 96.160156 195.800781 L 93.558594 195.800781 L 93.558594 189.621094 C 93.558594 188.53125 93.191406 187.980469 92.46875 187.980469 C 91.640625 187.980469 90.851562 188.558594 90.078125 189.730469 L 90.078125 195.800781 Z M 107.160156 195.480469 C 105.921875 195.839844 104.75 196.019531 103.648438 196.019531 C 102.03125 196.019531 100.761719 195.570312 99.828125 194.648438 C 98.898438 193.738281 98.429688 192.488281 98.429688 190.910156 C 98.429688 189.410156 98.859375 188.210938 99.710938 187.300781 C 100.558594 186.390625 101.691406 185.929688 103.089844 185.929688 C 104.5 185.929688 105.539062 186.378906 106.191406 187.269531 C 106.839844 188.160156 107.160156 189.570312 107.160156 191.5 L 101.179688 191.5 C 101.351562 193.339844 102.359375 194.261719 104.210938 194.261719 C 105.078125 194.261719 106.070312 194.050781 107.160156 193.648438 Z M 101.140625 190.03125 L 104.601562 190.03125 C 104.601562 188.378906 104.070312 187.558594 103.011719 187.558594 C 101.929688 187.558594 101.308594 188.378906 101.140625 190.03125 Z M 109.851562 195.800781 L 109.851562 186.148438 L 112.449219 186.148438 L 112.449219 187.96875 C 113.300781 186.609375 114.398438 185.929688 115.738281 185.929688 C 116.601562 185.929688 117.28125 186.210938 117.78125 186.75 C 118.28125 187.289062 118.53125 188.039062 118.53125 188.980469 L 118.53125 195.800781 L 115.921875 195.800781 L 115.921875 189.621094 C 115.921875 188.53125 115.558594 187.980469 114.828125 187.980469 C 114.011719 187.980469 113.210938 188.558594 112.449219 189.730469 L 112.449219 195.800781 Z M 126.648438 195.75 C 126.03125 195.929688 125.539062 196.019531 125.179688 196.019531 C 122.921875 196.019531 121.789062 194.96875 121.789062 192.859375 L 121.789062 187.78125 L 120.710938 187.78125 L 120.710938 186.148438 L 121.789062 186.148438 L 121.789062 184.53125 L 124.398438 184.230469 L 124.398438 186.148438 L 126.460938 186.148438 L 126.460938 187.78125 L 124.398438 187.78125 L 124.398438 192.519531 C 124.398438 193.699219 124.878906 194.289062 125.851562 194.289062 C 126.070312 194.289062 126.339844 194.25 126.648438 194.171875 Z M 126.648438 195.75 "/>
<path fill-rule="nonzero" fill="rgb(50.195312%, 50.195312%, 50.195312%)" fill-opacity="1" d="M 979 133.5 L 979 183.5 C 979 185.710938 980.800781 187.5 983 187.5 L 1123 187.5 C 1125.199219 187.5 1127 185.710938 1127 183.5 L 1127 133.5 C 1127 131.289062 1125.199219 129.5 1123 129.5 L 983 129.5 C 980.800781 129.5 979 131.289062 979 133.5 Z M 979 133.5 "/>
<path fill-rule="nonzero" fill="rgb(100%, 100%, 100%)" fill-opacity="1" d="M 1022.5 166.808594 L 1022.5 150.921875 L 1032.398438 150.921875 L 1032.398438 153.101562 L 1025.800781 153.101562 L 1025.800781 157.53125 L 1031.199219 157.53125 L 1031.199219 159.660156 L 1025.800781 159.660156 L 1025.800781 164.558594 L 1032.898438 164.558594 L 1032.898438 166.808594 Z M 1036 166.808594 L 1036 157.011719 L 1034.398438 157.011719 L 1034.398438 155.019531 L 1036 155.019531 L 1036 154.171875 C 1036 151.109375 1037.5 149.578125 1040.398438 149.578125 C 1041.300781 149.578125 1042.300781 149.71875 1043.300781 149.988281 L 1043.300781 152.140625 C 1042.398438 151.761719 1041.601562 151.570312 1040.898438 151.570312 C 1039.800781 151.570312 1039.199219 152.398438 1039.199219 154.050781 L 1039.199219 155.019531 L 1042.199219 155.019531 L 1042.199219 157.011719 L 1039.199219 157.011719 L 1039.199219 166.808594 Z M 1045.199219 166.808594 L 1045.199219 157.011719 L 1043.5 157.011719 L 1043.5 155.019531 L 1045.199219 155.019531 L 1045.199219 154.171875 C 1045.199219 151.109375 1046.601562 149.578125 1049.5 149.578125 C 1050.5 149.578125 1051.398438 149.71875 1052.398438 149.988281 L 1052.398438 152.140625 C 1051.5 151.761719 1050.699219 151.570312 1050 151.570312 C 1048.898438 151.570312 1048.300781 152.398438 1048.300781 154.050781 L 1048.300781 155.019531 L 1051.300781 155.019531 L 1051.300781 157.011719 L 1048.300781 157.011719 L 1048.300781 166.808594 Z M 1063.601562 166.421875 C 1062 166.859375 1060.601562 167.078125 1059.300781 167.078125 C 1057.300781 167.078125 1055.699219 166.519531 1054.601562 165.410156 C 1053.5 164.289062 1052.898438 162.761719 1052.898438 160.828125 C 1052.898438 159 1053.398438 157.53125 1054.5 156.421875 C 1055.5 155.308594 1056.898438 154.75 1058.601562 154.75 C 1060.300781 154.75 1061.601562 155.300781 1062.398438 156.378906 C 1063.199219 157.46875 1063.601562 159.191406 1063.601562 161.550781 L 1056.199219 161.550781 C 1056.5 163.800781 1057.699219 164.921875 1060 164.921875 C 1061 164.921875 1062.199219 164.679688 1063.601562 164.179688 Z M 1056.199219 159.761719 L 1060.398438 159.761719 C 1060.398438 157.738281 1059.800781 156.738281 1058.5 156.738281 C 1057.199219 156.738281 1056.398438 157.738281 1056.199219 159.761719 Z M 1075.5 166.558594 C 1074.199219 166.910156 1073 167.078125 1071.898438 167.078125 C 1070 167.078125 1068.5 166.53125 1067.398438 165.421875 C 1066.300781 164.320312 1065.800781 162.808594 1065.800781 160.910156 C 1065.800781 158.980469 1066.300781 157.46875 1067.5 156.378906 C 1068.601562 155.300781 1070.101562 154.75 1072.101562 154.75 C 1073.101562 154.75 1074.199219 154.898438 1075.5 155.210938 L 1075.5 157.511719 C 1074.101562 157.089844 1073.101562 156.878906 1072.300781 156.878906 C 1071.398438 156.878906 1070.601562 157.238281 1070 157.96875 C 1069.398438 158.699219 1069.199219 159.671875 1069.199219 160.878906 C 1069.199219 162.121094 1069.5 163.121094 1070.101562 163.859375 C 1070.699219 164.609375 1071.601562 164.980469 1072.601562 164.980469 C 1073.601562 164.980469 1074.5 164.769531 1075.5 164.351562 Z M 1084.601562 166.75 C 1083.898438 166.96875 1083.300781 167.078125 1082.800781 167.078125 C 1080.101562 167.078125 1078.699219 165.789062 1078.699219 163.21875 L 1078.699219 157.011719 L 1077.398438 157.011719 L 1077.398438 155.019531 L 1078.699219 155.019531 L 1078.699219 153.03125 L 1081.898438 152.671875 L 1081.898438 155.019531 L 1084.398438 155.019531 L 1084.398438 157.011719 L 1081.898438 157.011719 L 1081.898438 162.800781 C 1081.898438 164.238281 1082.5 164.96875 1083.699219 164.96875 C 1083.898438 164.96875 1084.300781 164.921875 1084.601562 164.820312 Z M 1084.601562 166.75 "/>
<path fill-rule="nonzero" fill="rgb(50.195312%, 50.195312%, 50.195312%)" fill-opacity="1" d="M 979 221.5 L 979 271.5 C 979 273.710938 980.800781 275.5 983 275.5 L 1123 275.5 C 1125.199219 275.5 1127 273.710938 1127 271.5 L 1127 221.5 C 1127 219.289062 1125.199219 217.5 1123 217.5 L 983 217.5 C 980.800781 217.5 979 219.289062 979 221.5 Z M 979 221.5 "/>
<path fill-rule="nonzero" fill="rgb(100%, 100%, 100%)" fill-opacity="1" d="M 1017.5 253.929688 L 1017.5 251.449219 C 1019.101562 252.101562 1020.398438 252.429688 1021.5 252.429688 C 1022.300781 252.429688 1022.898438 252.261719 1023.300781 251.910156 C 1023.800781 251.570312 1024 251.101562 1024 250.5 C 1024 250.039062 1023.898438 249.640625 1023.601562 249.320312 C 1023.300781 249 1022.800781 248.609375 1022 248.171875 L 1021 247.628906 C 1019.699219 246.898438 1018.800781 246.210938 1018.300781 245.539062 C 1017.699219 244.871094 1017.5 244.089844 1017.5 243.199219 C 1017.5 242.011719 1017.898438 241.050781 1018.800781 240.328125 C 1019.699219 239.609375 1020.800781 239.238281 1022.300781 239.238281 C 1023.398438 239.238281 1024.699219 239.410156 1026.199219 239.738281 L 1026.199219 242.058594 C 1024.699219 241.5 1023.5 241.230469 1022.699219 241.230469 C 1022 241.230469 1021.5 241.371094 1021.101562 241.671875 C 1020.699219 241.96875 1020.5 242.359375 1020.5 242.839844 C 1020.5 243.238281 1020.601562 243.578125 1020.898438 243.878906 C 1021.199219 244.179688 1021.699219 244.550781 1022.5 244.988281 L 1023.5 245.558594 C 1024.898438 246.339844 1025.898438 247.058594 1026.398438 247.71875 C 1026.898438 248.378906 1027.199219 249.179688 1027.199219 250.121094 C 1027.199219 251.460938 1026.699219 252.519531 1025.699219 253.28125 C 1024.699219 254.039062 1023.300781 254.421875 1021.601562 254.421875 C 1020.398438 254.421875 1019 254.261719 1017.5 253.929688 Z M 1038.5 253.699219 C 1037.101562 254.101562 1035.800781 254.300781 1034.601562 254.300781 C 1032.800781 254.300781 1031.398438 253.789062 1030.300781 252.78125 C 1029.300781 251.761719 1028.800781 250.378906 1028.800781 248.621094 C 1028.800781 246.960938 1029.300781 245.621094 1030.199219 244.609375 C 1031.101562 243.601562 1032.398438 243.089844 1034 243.089844 C 1035.5 243.089844 1036.699219 243.589844 1037.398438 244.578125 C 1038.101562 245.570312 1038.5 247.128906 1038.5 249.269531 L 1031.800781 249.269531 C 1032 251.320312 1033.101562 252.339844 1035.199219 252.339844 C 1036.199219 252.339844 1037.300781 252.121094 1038.5 251.671875 Z M 1031.800781 247.640625 L 1035.601562 247.640625 C 1035.601562 245.808594 1035 244.898438 1033.898438 244.898438 C 1032.699219 244.898438 1032 245.808594 1031.800781 247.640625 Z M 1041.5 254.058594 L 1041.5 243.339844 L 1044.398438 243.339844 L 1044.398438 245.359375 C 1045.101562 243.851562 1046.199219 243.089844 1047.800781 243.089844 C 1048 243.089844 1048.101562 243.109375 1048.300781 243.148438 L 1048.300781 245.730469 C 1047.898438 245.578125 1047.5 245.5 1047.199219 245.5 C 1046 245.5 1045.101562 246.089844 1044.398438 247.25 L 1044.398438 254.058594 Z M 1053.199219 254.058594 L 1049.101562 243.339844 L 1052.199219 243.339844 L 1055.199219 251.070312 L 1058.101562 243.339844 L 1060.199219 243.339844 L 1056.101562 254.058594 Z M 1062.398438 254.058594 L 1062.398438 243.339844 L 1065.300781 243.339844 L 1065.300781 254.058594 Z M 1062.398438 241.53125 L 1062.398438 239.121094 L 1065.300781 239.121094 L 1065.300781 241.53125 Z M 1076.800781 253.820312 C 1075.601562 254.140625 1074.5 254.300781 1073.5 254.300781 C 1071.800781 254.300781 1070.398438 253.800781 1069.5 252.789062 C 1068.5 251.789062 1068 250.421875 1068 248.691406 C 1068 246.941406 1068.5 245.570312 1069.5 244.578125 C 1070.5 243.589844 1071.898438 243.089844 1073.699219 243.089844 C 1074.601562 243.089844 1075.601562 243.230469 1076.800781 243.511719 L 1076.800781 245.601562 C 1075.601562 245.21875 1074.601562 245.03125 1073.898438 245.03125 C 1073 245.03125 1072.300781 245.359375 1071.800781 246.019531 C 1071.300781 246.691406 1071 247.570312 1071 248.671875 C 1071 249.789062 1071.300781 250.699219 1071.898438 251.371094 C 1072.5 252.050781 1073.199219 252.390625 1074.199219 252.390625 C 1075 252.390625 1075.898438 252.199219 1076.800781 251.820312 Z M 1088.300781 253.699219 C 1086.898438 254.101562 1085.601562 254.300781 1084.398438 254.300781 C 1082.601562 254.300781 1081.199219 253.789062 1080.199219 252.78125 C 1079.101562 251.761719 1078.601562 250.378906 1078.601562 248.621094 C 1078.601562 246.960938 1079.101562 245.621094 1080 244.609375 C 1081 243.601562 1082.199219 243.089844 1083.800781 243.089844 C 1085.398438 243.089844 1086.5 243.589844 1087.199219 244.578125 C 1087.898438 245.570312 1088.300781 247.128906 1088.300781 249.269531 L 1081.699219 249.269531 C 1081.800781 251.320312 1083 252.339844 1085 252.339844 C 1086 252.339844 1087.101562 252.121094 1088.300781 251.671875 Z M 1081.601562 247.640625 L 1085.5 247.640625 C 1085.5 245.808594 1084.898438 244.898438 1083.699219 244.898438 C 1082.5 244.898438 1081.800781 245.808594 1081.601562 247.640625 Z M 1081.601562 247.640625 "/>
<path fill-rule="nonzero" fill="rgb(75.292969%, 75.292969%, 75.292969%)" fill-opacity="1" d="M 979 312 L 979 362 C 979 364.210938 980.800781 366 983 366 L 1123 366 C 1125.199219 366 1127 364.210938 1127 362 L 1127 312 C 1127 309.789062 1125.199219 308 1123 308 L 983 308 C 980.800781 308 979 309.789062 979 312 Z M 979 312 "/>
<path fill-rule="nonzero" fill="rgb(100%, 100%, 100%)" fill-opacity="1" d="M 1033.101562 346.070312 L 1039.800781 328.730469 L 1043.5 328.730469 L 1050.199219 346.070312 L 1046.5 346.070312 L 1044.699219 341.441406 L 1037.5 341.441406 L 1035.699219 346.070312 Z M 1038.398438 339.128906 L 1043.800781 339.128906 L 1041.101562 332.21875 Z M 1052.699219 346.070312 L 1052.699219 328.730469 L 1058.699219 328.730469 C 1060.800781 328.730469 1062.300781 329.078125 1063.199219 329.789062 C 1064.101562 330.488281 1064.601562 331.679688 1064.601562 333.328125 C 1064.601562 335.210938 1064 336.671875 1062.800781 337.710938 C 1061.601562 338.75 1059.898438 339.269531 1057.699219 339.269531 L 1056.199219 339.269531 L 1056.199219 346.070312 Z M 1056.199219 336.890625 L 1056.898438 336.890625 C 1058.101562 336.890625 1059.101562 336.609375 1059.800781 336.03125 C 1060.5 335.460938 1060.898438 334.679688 1060.898438 333.699219 C 1060.898438 331.96875 1059.800781 331.109375 1057.601562 331.109375 L 1056.199219 331.109375 Z M 1067.398438 346.070312 L 1067.398438 328.730469 L 1071 328.730469 L 1071 346.070312 Z M 1067.398438 346.070312 "/>
<path fill-rule="nonzero" fill="rgb(0%, 0%, 0%)" fill-opacity="1" d="M 656 133.5 L 656 183.5 C 656 185.710938 657.800781 187.5 660 187.5 L 800 187.5 C 802.199219 187.5 804 185.710938 804 183.5 L 804 133.5 C 804 131.289062 802.199219 129.5 800 129.5 L 660 129.5 C 657.800781 129.5 656 131.289062 656 133.5 Z M 656 133.5 "/>
<path fill-rule="nonzero" fill="rgb(100%, 100%, 100%)" fill-opacity="1" d="M 694 166.808594 L 700.199219 150.921875 L 703.5 150.921875 L 709.699219 166.808594 L 706.300781 166.808594 L 704.601562 162.570312 L 698.101562 162.570312 L 696.398438 166.808594 Z M 698.898438 160.460938 L 703.800781 160.460938 L 701.398438 154.121094 Z M 720.601562 166.558594 C 719.300781 166.910156 718.101562 167.078125 717 167.078125 C 715.101562 167.078125 713.601562 166.53125 712.5 165.421875 C 711.398438 164.320312 710.898438 162.808594 710.898438 160.910156 C 710.898438 158.980469 711.398438 157.46875 712.601562 156.378906 C 713.699219 155.300781 715.199219 154.75 717.199219 154.75 C 718.199219 154.75 719.300781 154.898438 720.601562 155.210938 L 720.601562 157.511719 C 719.199219 157.089844 718.199219 156.878906 717.398438 156.878906 C 716.5 156.878906 715.699219 157.238281 715.101562 157.96875 C 714.5 158.699219 714.300781 159.671875 714.300781 160.878906 C 714.300781 162.121094 714.601562 163.121094 715.199219 163.859375 C 715.800781 164.609375 716.699219 164.980469 717.699219 164.980469 C 718.699219 164.980469 719.601562 164.769531 720.601562 164.351562 Z M 729.699219 166.75 C 729 166.96875 728.398438 167.078125 727.898438 167.078125 C 725.199219 167.078125 723.800781 165.789062 723.800781 163.21875 L 723.800781 157.011719 L 722.5 157.011719 L 722.5 155.019531 L 723.800781 155.019531 L 723.800781 153.03125 L 727 152.671875 L 727 155.019531 L 729.5 155.019531 L 729.5 157.011719 L 727 157.011719 L 727 162.800781 C 727 164.238281 727.601562 164.96875 728.800781 164.96875 C 729 164.96875 729.398438 164.921875 729.699219 164.820312 Z M 732.601562 166.808594 L 732.601562 155.019531 L 735.800781 155.019531 L 735.800781 166.808594 Z M 732.601562 153.03125 L 732.601562 150.378906 L 735.800781 150.378906 L 735.800781 153.03125 Z M 744.699219 167.078125 C 742.800781 167.078125 741.398438 166.53125 740.300781 165.410156 C 739.199219 164.300781 738.699219 162.800781 738.699219 160.921875 C 738.699219 159.011719 739.199219 157.511719 740.300781 156.410156 C 741.398438 155.300781 742.898438 154.75 744.800781 154.75 C 746.601562 154.75 748.101562 155.300781 749.199219 156.410156 C 750.300781 157.511719 750.898438 159 750.898438 160.898438 C 750.898438 162.828125 750.300781 164.339844 749.199219 165.441406 C 748.101562 166.539062 746.601562 167.078125 744.699219 167.078125 Z M 744.699219 165.101562 C 746.601562 165.101562 747.5 163.699219 747.5 160.898438 C 747.5 159.609375 747.199219 158.601562 746.699219 157.859375 C 746.300781 157.109375 745.601562 156.738281 744.800781 156.738281 C 743.898438 156.738281 743.300781 157.109375 742.800781 157.859375 C 742.300781 158.601562 742 159.621094 742 160.921875 C 742 162.199219 742.300781 163.21875 742.800781 163.96875 C 743.199219 164.71875 743.898438 165.101562 744.699219 165.101562 Z M 753.800781 166.808594 L 753.800781 155.019531 L 757 155.019531 L 757 157.238281 C 758 155.578125 759.300781 154.75 761 154.75 C 762 154.75 762.898438 155.078125 763.5 155.75 C 764.101562 156.421875 764.398438 157.328125 764.398438 158.480469 L 764.398438 166.808594 L 761.199219 166.808594 L 761.199219 159.261719 C 761.199219 157.921875 760.800781 157.25 759.898438 157.25 C 758.898438 157.25 757.898438 157.96875 757 159.390625 L 757 166.808594 Z M 753.800781 166.808594 "/>
<path fill-rule="nonzero" fill="rgb(0%, 0%, 0%)" fill-opacity="1" d="M 96.179688 89.390625 C 95.800781 88.289062 95.691406 87.109375 95.691406 85.921875 L 95.691406 76 L 94.339844 76 L 94.339844 80.089844 C 93.679688 79.730469 93.121094 79.53125 92.308594 79.53125 C 90.738281 79.53125 88.398438 80.808594 88.398438 84.480469 C 88.398438 88.261719 90.558594 89.550781 92.261719 89.550781 C 93.371094 89.550781 93.800781 89.191406 94.609375 88.46875 L 94.898438 89.550781 Z M 94.339844 86.761719 C 93.980469 87.648438 93.339844 88.421875 92.289062 88.421875 C 91.390625 88.421875 89.75 87.660156 89.75 84.53125 C 89.75 81.871094 91.089844 80.660156 92.53125 80.660156 C 93.210938 80.660156 93.820312 81.019531 94.339844 81.449219 Z M 102.769531 89.359375 L 104.121094 89.359375 L 104.121094 79.730469 L 100.03125 79.730469 L 100.03125 80.859375 L 102.769531 80.859375 Z M 103.398438 76.140625 C 102.769531 76.140625 102.261719 76.628906 102.261719 77.28125 C 102.261719 77.929688 102.769531 78.410156 103.398438 78.410156 C 104.03125 78.410156 104.53125 77.929688 104.53125 77.28125 C 104.53125 76.628906 104.03125 76.140625 103.398438 76.140625 Z M 116.949219 80.640625 C 116 79.960938 115.039062 79.53125 113.839844 79.53125 C 112.160156 79.53125 110.871094 80.660156 110.871094 82.070312 C 110.871094 83.789062 112.449219 84.441406 113.820312 84.960938 C 114.808594 85.339844 115.820312 85.679688 115.820312 86.941406 C 115.820312 87.921875 115.039062 88.421875 114.140625 88.421875 C 113.011719 88.421875 111.769531 87.609375 111.011719 86.800781 L 110.269531 87.878906 C 111.339844 88.828125 112.78125 89.550781 114.230469 89.550781 C 115.730469 89.550781 117.171875 88.46875 117.171875 86.890625 C 117.171875 84.980469 115.578125 84.351562 114.070312 83.789062 C 113.328125 83.519531 112.21875 83.058594 112.21875 82.121094 C 112.21875 81.261719 112.96875 80.660156 113.78125 80.660156 C 114.761719 80.660156 115.601562 81.199219 116.359375 81.738281 Z M 122.28125 79.550781 L 121 79.710938 C 121.378906 80.878906 121.449219 82.050781 121.449219 83.269531 L 121.449219 93.050781 L 122.800781 93.050781 L 122.800781 89 C 123.488281 89.359375 124.058594 89.550781 124.851562 89.550781 C 126.398438 89.550781 128.78125 88.261719 128.78125 84.601562 C 128.78125 80.820312 126.601562 79.53125 124.910156 79.53125 C 123.789062 79.53125 123.359375 79.890625 122.550781 80.609375 Z M 122.800781 82.339844 C 123.21875 81.449219 123.789062 80.660156 124.890625 80.660156 C 125.769531 80.660156 127.429688 81.398438 127.429688 84.550781 C 127.429688 87.050781 126.21875 88.421875 124.640625 88.421875 C 123.96875 88.421875 123.339844 88.058594 122.800781 87.628906 Z M 133.03125 81.378906 C 133.800781 81.058594 134.589844 80.660156 135.441406 80.660156 C 136.449219 80.660156 137.089844 81.421875 137.089844 82.480469 L 137.089844 83.398438 C 136.480469 83.148438 135.800781 82.929688 135.078125 82.929688 C 133.128906 82.929688 132 84.550781 132 86.398438 C 132 88.109375 133.03125 89.550781 134.859375 89.550781 C 135.871094 89.550781 136.609375 89.160156 137.261719 88.378906 L 137.601562 89.589844 L 138.859375 89.429688 C 138.570312 88.601562 138.441406 87.699219 138.441406 86.820312 L 138.441406 82.640625 C 138.441406 81.039062 137.328125 79.53125 135.488281 79.53125 C 134.480469 79.53125 133.640625 79.828125 132.71875 80.191406 Z M 137.089844 86.761719 C 136.539062 87.539062 135.910156 88.421875 134.859375 88.421875 C 133.820312 88.421875 133.351562 87.378906 133.351562 86.480469 C 133.351562 85.25 133.890625 84.058594 135.261719 84.058594 C 135.910156 84.058594 136.519531 84.28125 137.089844 84.53125 Z M 149.320312 79.730469 L 145.878906 79.730469 L 145.878906 76.769531 L 144.53125 76.769531 L 144.53125 79.730469 L 142.460938 79.730469 L 142.460938 80.859375 L 144.53125 80.859375 L 144.53125 85.921875 C 144.53125 88.800781 145.519531 89.550781 147.078125 89.550781 C 148.699219 89.550781 149.800781 88.441406 150.449219 87.050781 L 149.148438 86.730469 C 148.78125 87.570312 148.148438 88.421875 147.121094 88.421875 C 145.898438 88.421875 145.878906 87.289062 145.878906 86.351562 L 145.878906 80.859375 L 149.320312 80.859375 Z M 160.261719 86.839844 C 159.609375 87.609375 158.78125 88.421875 157.71875 88.421875 C 156.480469 88.421875 154.929688 87.519531 154.929688 84.511719 C 154.929688 81.671875 156.320312 80.660156 157.691406 80.660156 C 158.871094 80.660156 159.578125 81.46875 160.058594 82.441406 L 161.230469 81.671875 C 160.390625 80.390625 159.269531 79.53125 157.691406 79.53125 C 155.761719 79.53125 153.578125 80.789062 153.578125 84.640625 C 153.578125 88.460938 155.960938 89.550781 157.738281 89.550781 C 159.230469 89.550781 160.210938 88.828125 161.179688 87.789062 Z M 164.71875 89.359375 L 166.070312 89.359375 L 166.070312 85.769531 C 166.070312 84.570312 166.039062 83.488281 166.558594 82.410156 C 166.96875 81.558594 167.871094 80.660156 168.878906 80.660156 C 170.109375 80.660156 170.109375 82.839844 170.109375 83.71875 L 170.109375 89.359375 L 171.460938 89.359375 L 171.460938 83.828125 C 171.460938 79.890625 170.121094 79.53125 168.96875 79.53125 C 167.78125 79.53125 166.761719 80.191406 166.070312 81.109375 L 166.070312 76 L 164.71875 76 Z M 180.800781 89.878906 C 178.671875 88.351562 177.898438 85.898438 177.898438 83.378906 C 177.898438 80.859375 178.671875 78.410156 180.800781 76.898438 L 180.148438 76 C 177.679688 77.601562 176.550781 80.539062 176.550781 83.378906 C 176.550781 86.21875 177.679688 89.191406 180.148438 90.761719 Z M 187.601562 76.898438 C 189.730469 78.410156 190.5 80.878906 190.5 83.378906 C 190.5 85.898438 189.730469 88.371094 187.601562 89.878906 L 188.25 90.761719 C 190.71875 89.179688 191.851562 86.21875 191.851562 83.378906 C 191.851562 80.539062 190.71875 77.601562 188.25 76 Z M 187.601562 76.898438 "/>
<path fill-rule="nonzero" fill="rgb(0%, 0%, 0%)" fill-opacity="1" d="M 106.148438 299.640625 C 105.199219 298.960938 104.238281 298.53125 103.039062 298.53125 C 101.359375 298.53125 100.070312 299.660156 100.070312 301.070312 C 100.070312 302.789062 101.648438 303.441406 103.019531 303.960938 C 104.011719 304.339844 105.019531 304.679688 105.019531 305.941406 C 105.019531 306.921875 104.238281 307.421875 103.339844 307.421875 C 102.210938 307.421875 100.96875 306.609375 100.210938 305.800781 L 99.46875 306.878906 C 100.539062 307.828125 101.980469 308.550781 103.429688 308.550781 C 104.929688 308.550781 106.371094 307.46875 106.371094 305.890625 C 106.371094 303.980469 104.78125 303.351562 103.269531 302.789062 C 102.53125 302.519531 101.421875 302.058594 101.421875 301.121094 C 101.421875 300.261719 102.171875 299.660156 102.980469 299.660156 C 103.960938 299.660156 104.800781 300.199219 105.558594 300.738281 Z M 117.921875 303.890625 L 117.921875 303.148438 C 117.921875 302.109375 117.421875 298.53125 114.21875 298.53125 C 111.339844 298.53125 110.171875 301.078125 110.171875 303.601562 C 110.171875 306.109375 111.300781 308.550781 114.140625 308.550781 C 115.480469 308.550781 116.628906 308.140625 117.828125 307.601562 L 117.261719 306.390625 C 116.378906 306.929688 115.308594 307.421875 114.25 307.421875 C 112.78125 307.421875 111.589844 306.539062 111.519531 303.890625 Z M 111.5 302.761719 C 111.859375 300.808594 112.601562 299.660156 114.109375 299.660156 C 115.621094 299.660156 116.519531 301.171875 116.570312 302.761719 Z M 124.21875 308.359375 L 125.570312 308.359375 L 125.570312 295 L 121.488281 295 L 121.488281 296.128906 L 124.21875 296.128906 Z M 139.519531 303.890625 L 139.519531 303.148438 C 139.519531 302.109375 139.019531 298.53125 135.820312 298.53125 C 132.941406 298.53125 131.769531 301.078125 131.769531 303.601562 C 131.769531 306.109375 132.898438 308.550781 135.738281 308.550781 C 137.078125 308.550781 138.230469 308.140625 139.429688 307.601562 L 138.859375 306.390625 C 137.980469 306.929688 136.910156 307.421875 135.851562 307.421875 C 134.378906 307.421875 133.191406 306.539062 133.121094 303.890625 Z M 133.101562 302.761719 C 133.460938 300.808594 134.199219 299.660156 135.710938 299.660156 C 137.21875 299.660156 138.121094 301.171875 138.171875 302.761719 Z M 149.460938 305.839844 C 148.808594 306.609375 147.980469 307.421875 146.921875 307.421875 C 145.679688 307.421875 144.128906 306.519531 144.128906 303.511719 C 144.128906 300.671875 145.519531 299.660156 146.890625 299.660156 C 148.070312 299.660156 148.78125 300.46875 149.261719 301.441406 L 150.429688 300.671875 C 149.589844 299.390625 148.46875 298.53125 146.890625 298.53125 C 144.960938 298.53125 142.78125 299.789062 142.78125 303.640625 C 142.78125 307.460938 145.160156 308.550781 146.941406 308.550781 C 148.429688 308.550781 149.410156 307.828125 150.378906 306.789062 Z M 160.121094 298.730469 L 156.679688 298.730469 L 156.679688 295.769531 L 155.328125 295.769531 L 155.328125 298.730469 L 153.261719 298.730469 L 153.261719 299.859375 L 155.328125 299.859375 L 155.328125 304.921875 C 155.328125 307.800781 156.320312 308.550781 157.878906 308.550781 C 159.5 308.550781 160.601562 307.441406 161.25 306.050781 L 159.949219 305.730469 C 159.578125 306.570312 158.949219 307.421875 157.921875 307.421875 C 156.699219 307.421875 156.679688 306.289062 156.679688 305.351562 L 156.679688 299.859375 L 160.121094 299.859375 Z M 170 308.878906 C 167.871094 307.351562 167.101562 304.898438 167.101562 302.378906 C 167.101562 299.859375 167.871094 297.410156 170 295.898438 L 169.351562 295 C 166.878906 296.601562 165.75 299.539062 165.75 302.378906 C 165.75 305.21875 166.878906 308.191406 169.351562 309.761719 Z M 176.800781 295.898438 C 178.929688 297.410156 179.699219 299.878906 179.699219 302.378906 C 179.699219 304.898438 178.929688 307.371094 176.800781 308.878906 L 177.449219 309.761719 C 179.921875 308.179688 181.050781 305.21875 181.050781 302.378906 C 181.050781 299.539062 179.921875 296.601562 177.449219 295 Z M 176.800781 295.898438 "/>
<path fill-rule="nonzero" fill="rgb(0%, 0%, 0%)" fill-opacity="1" d="M 706.898438 345.859375 L 706.898438 340.898438 C 710 342.199219 712.699219 342.859375 714.898438 342.859375 C 716.398438 342.859375 717.601562 342.511719 718.5 341.820312 C 719.398438 341.128906 719.898438 340.191406 719.898438 339.011719 C 719.898438 338.070312 719.601562 337.28125 719 336.628906 C 718.5 335.988281 717.398438 335.230469 715.800781 334.339844 L 713.898438 333.269531 C 711.300781 331.808594 709.5 330.410156 708.398438 329.078125 C 707.398438 327.738281 706.800781 326.179688 706.800781 324.398438 C 706.800781 322.019531 707.699219 320.101562 709.398438 318.660156 C 711.199219 317.210938 713.5 316.488281 716.398438 316.488281 C 718.699219 316.488281 721.300781 316.820312 724.199219 317.480469 L 724.199219 322.109375 C 721.199219 321.011719 718.898438 320.449219 717.199219 320.449219 C 715.800781 320.449219 714.800781 320.75 714 321.339844 C 713.199219 321.929688 712.800781 322.710938 712.800781 323.679688 C 712.800781 324.46875 713.101562 325.171875 713.601562 325.769531 C 714.199219 326.359375 715.199219 327.101562 716.800781 327.96875 L 718.800781 329.121094 C 721.601562 330.691406 723.601562 332.128906 724.601562 333.441406 C 725.699219 334.761719 726.199219 336.359375 726.199219 338.25 C 726.199219 340.929688 725.199219 343.03125 723.199219 344.550781 C 721.199219 346.078125 718.5 346.839844 715 346.839844 C 712.601562 346.839844 709.898438 346.511719 706.898438 345.859375 Z M 742.398438 346 C 741 346.398438 739.898438 346.609375 739.101562 346.609375 C 734.101562 346.609375 731.601562 344.261719 731.601562 339.570312 L 731.601562 328.289062 L 729.199219 328.289062 L 729.199219 324.671875 L 731.601562 324.671875 L 731.601562 321.058594 L 737.398438 320.390625 L 737.398438 324.671875 L 742 324.671875 L 742 328.289062 L 737.398438 328.289062 L 737.398438 338.808594 C 737.398438 341.441406 738.5 342.761719 740.601562 342.761719 C 741.101562 342.761719 741.699219 342.671875 742.398438 342.480469 Z M 756.601562 346.609375 C 753.199219 346.609375 750.601562 345.589844 748.601562 343.570312 C 746.601562 341.539062 745.601562 338.820312 745.601562 335.390625 C 745.601562 331.929688 746.601562 329.199219 748.601562 327.191406 C 750.601562 325.191406 753.300781 324.179688 756.699219 324.179688 C 760.101562 324.179688 762.800781 325.191406 764.800781 327.191406 C 766.800781 329.199219 767.800781 331.921875 767.800781 335.359375 C 767.800781 338.871094 766.800781 341.621094 764.800781 343.621094 C 762.800781 345.609375 760.101562 346.609375 756.601562 346.609375 Z M 756.699219 342.988281 C 760 342.988281 761.601562 340.449219 761.601562 335.359375 C 761.601562 333.019531 761.199219 331.179688 760.300781 329.828125 C 759.398438 328.46875 758.199219 327.800781 756.699219 327.800781 C 755.199219 327.800781 754 328.46875 753.101562 329.828125 C 752.199219 331.179688 751.800781 333.039062 751.800781 335.390625 C 751.800781 337.730469 752.199219 339.570312 753.101562 340.941406 C 754 342.308594 755.199219 342.988281 756.699219 342.988281 Z M 773.101562 346.121094 L 773.101562 324.671875 L 778.898438 324.671875 L 778.898438 328.710938 C 780.398438 325.691406 782.699219 324.179688 785.699219 324.179688 C 786.101562 324.179688 786.398438 324.21875 786.800781 324.300781 L 786.800781 329.460938 C 786 329.160156 785.199219 329.011719 784.5 329.011719 C 782.199219 329.011719 780.300781 330.171875 778.898438 332.5 L 778.898438 346.121094 Z M 808.800781 345.390625 C 806 346.199219 803.398438 346.609375 800.898438 346.609375 C 797.398438 346.609375 794.5 345.589844 792.5 343.558594 C 790.398438 341.53125 789.398438 338.75 789.398438 335.238281 C 789.398438 331.921875 790.300781 329.25 792.199219 327.21875 C 794.101562 325.199219 796.601562 324.179688 799.699219 324.179688 C 802.800781 324.179688 805.101562 325.171875 806.601562 327.148438 C 808 329.128906 808.800781 332.261719 808.800781 336.550781 L 795.5 336.550781 C 795.800781 340.640625 798.101562 342.679688 802.199219 342.679688 C 804.101562 342.679688 806.300781 342.230469 808.800781 341.328125 Z M 795.398438 333.289062 L 803.101562 333.289062 C 803.101562 329.628906 801.898438 327.800781 799.5 327.800781 C 797.101562 327.800781 795.800781 329.628906 795.398438 333.289062 Z M 795.398438 333.289062 "/>
<path fill-rule="nonzero" fill="rgb(0%, 0%, 0%)" fill-opacity="1" d="M 481.660156 46.019531 C 480.78125 46.019531 480.101562 45.769531 479.601562 45.269531 C 479.109375 44.761719 478.859375 44.058594 478.859375 43.171875 L 478.859375 37.558594 L 477.671875 37.558594 L 477.671875 36.261719 L 478.859375 36.261719 L 478.859375 34.53125 L 480.601562 34.359375 L 480.601562 36.261719 L 483.089844 36.261719 L 483.089844 37.558594 L 480.601562 37.558594 L 480.601562 42.851562 C 480.601562 44.101562 481.140625 44.71875 482.210938 44.71875 C 482.441406 44.71875 482.71875 44.679688 483.050781 44.609375 L 483.050781 45.800781 C 482.519531 45.949219 482.050781 46.019531 481.660156 46.019531 Z M 485.53125 45.800781 L 485.53125 36.261719 L 487.261719 36.261719 L 487.261719 38.050781 C 487.941406 36.710938 488.941406 36.050781 490.25 36.050781 C 490.421875 36.050781 490.609375 36.058594 490.800781 36.089844 L 490.800781 37.710938 C 490.5 37.609375 490.238281 37.558594 490.011719 37.558594 C 488.910156 37.558594 488 38.210938 487.261719 39.511719 L 487.261719 45.800781 Z M 492.890625 45.800781 L 492.890625 36.261719 L 494.621094 36.261719 L 494.621094 45.800781 Z M 492.890625 34.53125 L 492.890625 32.789062 L 494.621094 32.789062 L 494.621094 34.53125 Z M 498.128906 48.980469 L 498.328125 47.46875 C 499.328125 47.949219 500.320312 48.179688 501.289062 48.179688 C 503.25 48.179688 504.21875 47.148438 504.21875 45.078125 L 504.21875 43.578125 C 503.578125 44.921875 502.53125 45.578125 501.070312 45.578125 C 499.929688 45.578125 499.019531 45.171875 498.351562 44.328125 C 497.679688 43.5 497.339844 42.378906 497.339844 40.96875 C 497.339844 39.519531 497.71875 38.328125 498.488281 37.421875 C 499.261719 36.5 500.25 36.050781 501.46875 36.050781 C 502.539062 36.050781 503.449219 36.480469 504.21875 37.351562 L 504.21875 36.261719 L 505.960938 36.261719 L 505.960938 43.199219 C 505.960938 44.699219 505.878906 45.800781 505.730469 46.519531 C 505.570312 47.238281 505.28125 47.820312 504.851562 48.28125 C 504.101562 49.078125 502.921875 49.488281 501.328125 49.488281 C 500.21875 49.488281 499.148438 49.320312 498.128906 48.980469 Z M 504.21875 42.5 L 504.21875 38.53125 C 503.460938 37.738281 502.628906 37.351562 501.730469 37.351562 C 500.941406 37.351562 500.308594 37.671875 499.859375 38.308594 C 499.410156 38.941406 499.191406 39.820312 499.191406 40.929688 C 499.191406 43.03125 499.921875 44.070312 501.390625 44.070312 C 502.390625 44.070312 503.339844 43.550781 504.21875 42.5 Z M 509.351562 48.980469 L 509.558594 47.46875 C 510.558594 47.949219 511.550781 48.179688 512.5 48.179688 C 514.5 48.179688 515.398438 47.148438 515.398438 45.078125 L 515.398438 43.578125 C 514.800781 44.921875 513.800781 45.578125 512.300781 45.578125 C 511.160156 45.578125 510.25 45.171875 509.570312 44.328125 C 508.898438 43.5 508.558594 42.378906 508.558594 40.96875 C 508.558594 39.519531 508.949219 38.328125 509.710938 37.421875 C 510.480469 36.5 511.480469 36.050781 512.699219 36.050781 C 513.800781 36.050781 514.699219 36.480469 515.398438 37.351562 L 515.398438 36.261719 L 517.199219 36.261719 L 517.199219 43.199219 C 517.199219 44.699219 517.101562 45.800781 517 46.519531 C 516.800781 47.238281 516.5 47.820312 516.101562 48.28125 C 515.300781 49.078125 514.101562 49.488281 512.601562 49.488281 C 511.441406 49.488281 510.371094 49.320312 509.351562 48.980469 Z M 515.398438 42.5 L 515.398438 38.53125 C 514.699219 37.738281 513.898438 37.351562 513 37.351562 C 512.199219 37.351562 511.539062 37.671875 511.089844 38.308594 C 510.628906 38.941406 510.410156 39.820312 510.410156 40.929688 C 510.410156 43.03125 511.140625 44.070312 512.601562 44.070312 C 513.601562 44.070312 514.601562 43.550781 515.398438 42.5 Z M 527.5 45.5 C 526.398438 45.851562 525.398438 46.019531 524.601562 46.019531 C 523.199219 46.019531 522 45.558594 521.101562 44.621094 C 520.199219 43.691406 519.800781 42.46875 519.800781 40.988281 C 519.800781 39.539062 520.199219 38.351562 521 37.429688 C 521.699219 36.5 522.699219 36.039062 524 36.039062 C 525.101562 36.039062 526 36.449219 526.601562 37.269531 C 527.300781 38.089844 527.601562 39.25 527.601562 40.769531 L 527.601562 41.300781 L 521.601562 41.300781 C 521.800781 43.570312 522.898438 44.699219 524.898438 44.699219 C 525.601562 44.699219 526.5 44.511719 527.5 44.121094 Z M 521.601562 40 L 525.800781 40 C 525.800781 38.230469 525.199219 37.339844 523.898438 37.339844 C 522.5 37.339844 521.800781 38.230469 521.601562 40 Z M 530.601562 45.800781 L 530.601562 36.261719 L 532.300781 36.261719 L 532.300781 38.050781 C 533 36.710938 534 36.050781 535.300781 36.050781 C 535.5 36.050781 535.699219 36.058594 535.800781 36.089844 L 535.800781 37.710938 C 535.5 37.609375 535.300781 37.558594 535.101562 37.558594 C 534 37.558594 533 38.210938 532.300781 39.511719 L 532.300781 45.800781 Z M 540.800781 46.019531 C 539.898438 46.019531 539.199219 45.769531 538.699219 45.269531 C 538.300781 44.761719 538 44.058594 538 43.171875 L 538 37.558594 L 536.800781 37.558594 L 536.800781 36.261719 L 538 36.261719 L 538 34.53125 L 539.699219 34.359375 L 539.699219 36.261719 L 542.199219 36.261719 L 542.199219 37.558594 L 539.699219 37.558594 L 539.699219 42.851562 C 539.699219 44.101562 540.300781 44.71875 541.398438 44.71875 C 541.601562 44.71875 541.898438 44.679688 542.199219 44.609375 L 542.199219 45.800781 C 541.699219 45.949219 541.199219 46.019531 540.800781 46.019531 Z M 540.800781 46.019531 "/>
<path fill-rule="nonzero" fill="rgb(0%, 0%, 0%)" fill-opacity="1" d="M 443.289062 348.5 C 442.128906 348.851562 441.140625 349.019531 440.308594 349.019531 C 438.910156 349.019531 437.761719 348.558594 436.871094 347.621094 C 435.988281 346.691406 435.539062 345.46875 435.539062 343.988281 C 435.539062 342.539062 435.929688 341.351562 436.71875 340.429688 C 437.5 339.5 438.5 339.039062 439.71875 339.039062 C 440.871094 339.039062 441.761719 339.449219 442.390625 340.269531 C 443.019531 341.089844 443.339844 342.25 443.339844 343.769531 L 443.328125 344.300781 L 437.308594 344.300781 C 437.558594 346.570312 438.671875 347.699219 440.640625 347.699219 C 441.359375 347.699219 442.25 347.511719 443.289062 347.121094 Z M 437.390625 343 L 441.601562 343 C 441.601562 341.230469 440.941406 340.339844 439.609375 340.339844 C 438.28125 340.339844 437.539062 341.230469 437.390625 343 Z M 446.328125 348.800781 L 446.328125 339.261719 L 448.058594 339.261719 L 448.058594 341.050781 C 448.738281 339.710938 449.738281 339.050781 451.050781 339.050781 C 451.21875 339.050781 451.410156 339.058594 451.601562 339.089844 L 451.601562 340.710938 C 451.300781 340.609375 451.039062 340.558594 450.808594 340.558594 C 449.710938 340.558594 448.800781 341.210938 448.058594 342.511719 L 448.058594 348.800781 Z M 453.039062 348.800781 L 453.039062 347.5 L 458.949219 340.558594 L 453.308594 340.558594 L 453.308594 339.261719 L 461.078125 339.261719 L 461.078125 340.558594 L 455.179688 347.5 L 461.199219 347.5 L 461.199219 348.800781 Z M 471.011719 348.5 C 469.851562 348.851562 468.851562 349.019531 468.03125 349.019531 C 466.621094 349.019531 465.46875 348.558594 464.589844 347.621094 C 463.699219 346.691406 463.25 345.46875 463.25 343.988281 C 463.25 342.539062 463.648438 341.351562 464.429688 340.429688 C 465.210938 339.5 466.210938 339.039062 467.429688 339.039062 C 468.578125 339.039062 469.480469 339.449219 470.101562 340.269531 C 470.730469 341.089844 471.050781 342.25 471.050781 343.769531 L 471.039062 344.300781 L 465.019531 344.300781 C 465.269531 346.570312 466.378906 347.699219 468.351562 347.699219 C 469.070312 347.699219 469.960938 347.511719 471.011719 347.121094 Z M 465.101562 343 L 469.308594 343 C 469.308594 341.230469 468.648438 340.339844 467.320312 340.339844 C 465.988281 340.339844 465.25 341.230469 465.101562 343 Z M 480.011719 348.800781 L 480.011719 347.011719 C 479.089844 348.351562 477.96875 349.019531 476.660156 349.019531 C 475.828125 349.019531 475.160156 348.761719 474.671875 348.238281 C 474.179688 347.710938 473.929688 347 473.929688 346.109375 L 473.929688 339.261719 L 475.660156 339.261719 L 475.660156 345.550781 C 475.660156 346.269531 475.769531 346.769531 475.980469 347.078125 C 476.179688 347.378906 476.53125 347.53125 477.019531 347.53125 C 478.070312 347.53125 479.070312 346.828125 480.011719 345.449219 L 480.011719 339.261719 L 481.738281 339.261719 L 481.738281 348.800781 Z M 485.238281 351.980469 L 485.449219 350.46875 C 486.449219 350.949219 487.441406 351.179688 488.410156 351.179688 C 490.359375 351.179688 491.328125 350.148438 491.328125 348.078125 L 491.328125 346.578125 C 490.699219 347.921875 489.648438 348.578125 488.191406 348.578125 C 487.050781 348.578125 486.140625 348.171875 485.460938 347.328125 C 484.789062 346.5 484.449219 345.378906 484.449219 343.96875 C 484.449219 342.519531 484.839844 341.328125 485.601562 340.421875 C 486.371094 339.5 487.371094 339.050781 488.578125 339.050781 C 489.648438 339.050781 490.570312 339.480469 491.328125 340.351562 L 491.328125 339.261719 L 493.078125 339.261719 L 493.078125 346.199219 C 493.078125 347.699219 493 348.800781 492.839844 349.519531 C 492.691406 350.238281 492.398438 350.820312 491.96875 351.28125 C 491.210938 352.078125 490.039062 352.488281 488.441406 352.488281 C 487.328125 352.488281 486.261719 352.320312 485.238281 351.980469 Z M 491.328125 345.5 L 491.328125 341.53125 C 490.570312 340.738281 489.738281 340.351562 488.851562 340.351562 C 488.050781 340.351562 487.429688 340.671875 486.980469 341.308594 C 486.519531 341.941406 486.300781 342.820312 486.300781 343.929688 C 486.300781 346.03125 487.03125 347.070312 488.5 347.070312 C 489.511719 347.070312 490.449219 346.550781 491.328125 345.5 Z M 499.300781 349.019531 C 498.421875 349.019531 497.730469 348.769531 497.238281 348.269531 C 496.75 347.761719 496.5 347.058594 496.5 346.171875 L 496.5 340.558594 L 495.308594 340.558594 L 495.308594 339.261719 L 496.5 339.261719 L 496.5 337.53125 L 498.230469 337.359375 L 498.230469 339.261719 L 500.730469 339.261719 L 500.730469 340.558594 L 498.230469 340.558594 L 498.230469 345.851562 C 498.230469 347.101562 498.769531 347.71875 499.851562 347.71875 C 500.078125 347.71875 500.359375 347.679688 500.691406 347.609375 L 500.691406 348.800781 C 500.148438 348.949219 499.691406 349.019531 499.300781 349.019531 Z M 499.300781 349.019531 "/>
<path fill-rule="nonzero" fill="rgb(0%, 0%, 0%)" fill-opacity="1" d="M 875.699219 142.800781 L 875.699219 128.921875 L 877.398438 128.921875 L 877.398438 142.800781 Z M 884.601562 143.019531 C 883.199219 143.019531 882.101562 142.570312 881.300781 141.660156 C 880.5 140.761719 880.101562 139.550781 880.101562 138.03125 C 880.101562 136.5 880.5 135.28125 881.300781 134.390625 C 882.101562 133.488281 883.300781 133.050781 884.699219 133.050781 C 886.101562 133.050781 887.199219 133.488281 888 134.390625 C 888.800781 135.28125 889.199219 136.488281 889.199219 138.011719 C 889.199219 139.570312 888.800781 140.800781 888 141.691406 C 887.199219 142.578125 886 143.019531 884.601562 143.019531 Z M 884.601562 141.71875 C 886.5 141.71875 887.398438 140.488281 887.398438 138.011719 C 887.398438 135.570312 886.5 134.351562 884.699219 134.351562 C 882.898438 134.351562 881.898438 135.578125 881.898438 138.03125 C 881.898438 140.488281 882.800781 141.71875 884.601562 141.71875 Z M 882.199219 131.53125 L 882.199219 130.011719 L 883.699219 130.011719 L 883.699219 131.53125 Z M 885.601562 131.53125 L 885.601562 130.011719 L 887.199219 130.011719 L 887.199219 131.53125 Z M 894.398438 143.019531 C 893.699219 143.019531 892.699219 142.839844 891.601562 142.46875 L 891.601562 140.878906 C 892.699219 141.441406 893.699219 141.71875 894.5 141.71875 C 895 141.71875 895.398438 141.589844 895.800781 141.320312 C 896.101562 141.050781 896.199219 140.710938 896.199219 140.308594 C 896.199219 139.710938 895.800781 139.230469 894.898438 138.839844 L 893.898438 138.410156 C 892.398438 137.789062 891.601562 136.890625 891.601562 135.730469 C 891.601562 134.898438 891.898438 134.238281 892.5 133.761719 C 893.101562 133.289062 893.898438 133.050781 894.898438 133.050781 C 895.5 133.050781 896.101562 133.121094 896.898438 133.269531 L 897.300781 133.339844 L 897.300781 134.78125 C 896.300781 134.488281 895.5 134.351562 895 134.351562 C 893.800781 134.351562 893.300781 134.75 893.300781 135.558594 C 893.300781 136.078125 893.699219 136.519531 894.601562 136.878906 L 895.398438 137.230469 C 896.300781 137.628906 897 138.050781 897.398438 138.488281 C 897.800781 138.929688 898 139.488281 898 140.148438 C 898 140.988281 897.601562 141.671875 897 142.210938 C 896.300781 142.75 895.5 143.019531 894.398438 143.019531 Z M 904 143.019531 C 903.101562 143.019531 902.398438 142.769531 901.898438 142.269531 C 901.398438 141.761719 901.199219 141.058594 901.199219 140.171875 L 901.199219 134.558594 L 900 134.558594 L 900 133.261719 L 901.199219 133.261719 L 901.199219 131.53125 L 902.898438 131.359375 L 902.898438 133.261719 L 905.398438 133.261719 L 905.398438 134.558594 L 902.898438 134.558594 L 902.898438 139.851562 C 902.898438 141.101562 903.398438 141.71875 904.5 141.71875 C 904.699219 141.71875 905 141.679688 905.300781 141.609375 L 905.300781 142.800781 C 904.800781 142.949219 904.300781 143.019531 904 143.019531 Z M 918.398438 141.589844 C 917.398438 142.539062 916.398438 143.019531 915.398438 143.019531 C 914.699219 143.019531 914 142.769531 913.5 142.28125 C 913 141.78125 912.699219 141.160156 912.699219 140.398438 C 912.699219 139.359375 913.101562 138.558594 914 138 C 914.898438 137.441406 916.101562 137.160156 917.800781 137.160156 L 918.199219 137.160156 L 918.199219 136.011719 C 918.199219 134.898438 917.601562 134.351562 916.5 134.351562 C 915.601562 134.351562 914.601562 134.628906 913.5 135.191406 L 913.5 133.761719 C 914.699219 133.28125 915.800781 133.050781 916.800781 133.050781 C 917.898438 133.050781 918.699219 133.289062 919.199219 133.769531 C 919.699219 134.25 919.898438 135 919.898438 136.011719 L 919.898438 140.328125 C 919.898438 141.320312 920.199219 141.820312 920.800781 141.820312 C 920.898438 141.820312 921 141.808594 921.199219 141.78125 L 921.300781 142.738281 C 920.898438 142.929688 920.5 143.019531 920 143.019531 C 919.199219 143.019531 918.699219 142.539062 918.398438 141.589844 Z M 918.199219 140.648438 L 918.199219 138.179688 L 917.601562 138.160156 C 916.699219 138.160156 915.898438 138.339844 915.300781 138.699219 C 914.699219 139.058594 914.398438 139.539062 914.398438 140.121094 C 914.398438 140.539062 914.601562 140.890625 914.898438 141.179688 C 915.199219 141.460938 915.5 141.609375 915.898438 141.609375 C 916.699219 141.609375 917.398438 141.289062 918.199219 140.648438 Z M 929.398438 142.800781 L 929.398438 141.011719 C 928.5 142.351562 927.398438 143.019531 926.101562 143.019531 C 925.199219 143.019531 924.601562 142.761719 924.101562 142.238281 C 923.601562 141.710938 923.398438 141 923.398438 140.109375 L 923.398438 133.261719 L 925.101562 133.261719 L 925.101562 139.550781 C 925.101562 140.269531 925.199219 140.769531 925.398438 141.078125 C 925.601562 141.378906 926 141.53125 926.398438 141.53125 C 927.5 141.53125 928.5 140.828125 929.398438 139.449219 L 929.398438 133.261719 L 931.199219 133.261719 L 931.199219 142.800781 Z M 937.199219 143.019531 C 936.398438 143.019531 935.398438 142.839844 934.300781 142.46875 L 934.300781 140.878906 C 935.398438 141.441406 936.398438 141.71875 937.199219 141.71875 C 937.699219 141.71875 938.101562 141.589844 938.5 141.320312 C 938.800781 141.050781 939 140.710938 939 140.308594 C 939 139.710938 938.5 139.230469 937.601562 138.839844 L 936.601562 138.410156 C 935.101562 137.789062 934.300781 136.890625 934.300781 135.730469 C 934.300781 134.898438 934.601562 134.238281 935.199219 133.761719 C 935.800781 133.289062 936.601562 133.050781 937.601562 133.050781 C 938.199219 133.050781 938.800781 133.121094 939.601562 133.269531 L 940 133.339844 L 940 134.78125 C 939 134.488281 938.199219 134.351562 937.699219 134.351562 C 936.601562 134.351562 936 134.75 936 135.558594 C 936 136.078125 936.398438 136.519531 937.300781 136.878906 L 938.101562 137.230469 C 939 137.628906 939.699219 138.050781 940.101562 138.488281 C 940.5 138.929688 940.699219 139.488281 940.699219 140.148438 C 940.699219 140.988281 940.398438 141.671875 939.699219 142.210938 C 939 142.75 938.199219 143.019531 937.199219 143.019531 Z M 937.199219 143.019531 "/>
<path fill-rule="nonzero" fill="rgb(0%, 0%, 0%)" fill-opacity="1" d="M 98.660156 45.800781 L 98.660156 31.921875 L 100.390625 31.921875 L 100.390625 45.800781 Z M 107.589844 46.019531 C 106.230469 46.019531 105.140625 45.570312 104.328125 44.660156 C 103.511719 43.761719 103.101562 42.550781 103.101562 41.03125 C 103.101562 39.5 103.511719 38.28125 104.328125 37.390625 C 105.148438 36.488281 106.261719 36.050781 107.660156 36.050781 C 109.058594 36.050781 110.171875 36.488281 110.980469 37.390625 C 111.800781 38.28125 112.210938 39.488281 112.210938 41.011719 C 112.210938 42.570312 111.800781 43.800781 110.980469 44.691406 C 110.160156 45.578125 109.03125 46.019531 107.589844 46.019531 Z M 107.621094 44.71875 C 109.460938 44.71875 110.371094 43.488281 110.371094 41.011719 C 110.371094 38.570312 109.46875 37.351562 107.660156 37.351562 C 105.851562 37.351562 104.949219 38.578125 104.949219 41.03125 C 104.949219 43.488281 105.839844 44.71875 107.621094 44.71875 Z M 105.160156 34.53125 L 105.160156 33.011719 L 106.679688 33.011719 L 106.679688 34.53125 Z M 108.628906 34.53125 L 108.628906 33.011719 L 110.148438 33.011719 L 110.148438 34.53125 Z M 117.449219 46.019531 C 116.660156 46.019531 115.699219 45.839844 114.558594 45.46875 L 114.558594 43.878906 C 115.699219 44.441406 116.679688 44.71875 117.519531 44.71875 C 118.019531 44.71875 118.429688 44.589844 118.761719 44.320312 C 119.078125 44.050781 119.25 43.710938 119.25 43.308594 C 119.25 42.710938 118.789062 42.230469 117.871094 41.839844 L 116.859375 41.410156 C 115.359375 40.789062 114.621094 39.890625 114.621094 38.730469 C 114.621094 37.898438 114.910156 37.238281 115.5 36.761719 C 116.089844 36.289062 116.898438 36.050781 117.921875 36.050781 C 118.460938 36.050781 119.109375 36.121094 119.898438 36.269531 L 120.261719 36.339844 L 120.261719 37.78125 C 119.289062 37.488281 118.53125 37.351562 117.960938 37.351562 C 116.839844 37.351562 116.289062 37.75 116.289062 38.558594 C 116.289062 39.078125 116.710938 39.519531 117.550781 39.878906 L 118.390625 40.230469 C 119.328125 40.628906 120 41.050781 120.390625 41.488281 C 120.78125 41.929688 120.980469 42.488281 120.980469 43.148438 C 120.980469 43.988281 120.648438 44.671875 119.988281 45.210938 C 119.328125 45.75 118.480469 46.019531 117.449219 46.019531 Z M 126.960938 46.019531 C 126.078125 46.019531 125.390625 45.769531 124.898438 45.269531 C 124.410156 44.761719 124.160156 44.058594 124.160156 43.171875 L 124.160156 37.558594 L 122.96875 37.558594 L 122.96875 36.261719 L 124.160156 36.261719 L 124.160156 34.53125 L 125.890625 34.359375 L 125.890625 36.261719 L 128.390625 36.261719 L 128.390625 37.558594 L 125.890625 37.558594 L 125.890625 42.851562 C 125.890625 44.101562 126.429688 44.71875 127.511719 44.71875 C 127.738281 44.71875 128.019531 44.679688 128.351562 44.609375 L 128.351562 45.800781 C 127.808594 45.949219 127.351562 46.019531 126.960938 46.019531 Z M 141.441406 44.589844 C 140.398438 45.539062 139.410156 46.019531 138.441406 46.019531 C 137.648438 46.019531 137 45.769531 136.480469 45.28125 C 135.949219 44.78125 135.691406 44.160156 135.691406 43.398438 C 135.691406 42.359375 136.128906 41.558594 137.011719 41 C 137.878906 40.441406 139.140625 40.160156 140.769531 40.160156 L 141.191406 40.160156 L 141.191406 39.011719 C 141.191406 37.898438 140.621094 37.351562 139.480469 37.351562 C 138.570312 37.351562 137.578125 37.628906 136.519531 38.191406 L 136.519531 36.761719 C 137.691406 36.28125 138.78125 36.050781 139.800781 36.050781 C 140.859375 36.050781 141.648438 36.289062 142.160156 36.769531 C 142.660156 37.25 142.921875 38 142.921875 39.011719 L 142.921875 43.328125 C 142.921875 44.320312 143.21875 44.820312 143.828125 44.820312 C 143.910156 44.820312 144.019531 44.808594 144.171875 44.78125 L 144.289062 45.738281 C 143.898438 45.929688 143.460938 46.019531 142.988281 46.019531 C 142.179688 46.019531 141.660156 45.539062 141.441406 44.589844 Z M 141.191406 43.648438 L 141.191406 41.179688 L 140.609375 41.160156 C 139.660156 41.160156 138.890625 41.339844 138.300781 41.699219 C 137.71875 42.058594 137.421875 42.539062 137.421875 43.121094 C 137.421875 43.539062 137.570312 43.890625 137.859375 44.179688 C 138.160156 44.460938 138.511719 44.609375 138.941406 44.609375 C 139.660156 44.609375 140.410156 44.289062 141.191406 43.648438 Z M 152.429688 45.800781 L 152.429688 44.011719 C 151.511719 45.351562 150.390625 46.019531 149.078125 46.019531 C 148.25 46.019531 147.578125 45.761719 147.089844 45.238281 C 146.601562 44.710938 146.351562 44 146.351562 43.109375 L 146.351562 36.261719 L 148.089844 36.261719 L 148.089844 42.550781 C 148.089844 43.269531 148.191406 43.769531 148.398438 44.078125 C 148.609375 44.378906 148.949219 44.53125 149.441406 44.53125 C 150.488281 44.53125 151.488281 43.828125 152.429688 42.449219 L 152.429688 36.261719 L 154.160156 36.261719 L 154.160156 45.800781 Z M 160.160156 46.019531 C 159.371094 46.019531 158.410156 45.839844 157.28125 45.46875 L 157.28125 43.878906 C 158.410156 44.441406 159.390625 44.71875 160.230469 44.71875 C 160.730469 44.71875 161.140625 44.589844 161.46875 44.320312 C 161.800781 44.050781 161.960938 43.710938 161.960938 43.308594 C 161.960938 42.710938 161.5 42.230469 160.578125 41.839844 L 159.570312 41.410156 C 158.078125 40.789062 157.328125 39.890625 157.328125 38.730469 C 157.328125 37.898438 157.628906 37.238281 158.21875 36.761719 C 158.800781 36.289062 159.609375 36.050781 160.640625 36.050781 C 161.171875 36.050781 161.828125 36.121094 162.609375 36.269531 L 162.96875 36.339844 L 162.96875 37.78125 C 162.011719 37.488281 161.238281 37.351562 160.671875 37.351562 C 159.558594 37.351562 159 37.75 159 38.558594 C 159 39.078125 159.421875 39.519531 160.269531 39.878906 L 161.101562 40.230469 C 162.050781 40.628906 162.710938 41.050781 163.109375 41.488281 C 163.5 41.929688 163.699219 42.488281 163.699219 43.148438 C 163.699219 43.988281 163.359375 44.671875 162.699219 45.210938 C 162.039062 45.75 161.191406 46.019531 160.160156 46.019531 Z M 160.160156 46.019531 "/>
<path fill-rule="nonzero" fill="rgb(0%, 0%, 0%)" fill-opacity="1" d="M 49.289062 348.800781 L 46.558594 339.261719 L 48.25 339.261719 L 50.339844 346.648438 L 52.601562 339.261719 L 54.328125 339.261719 L 56.308594 346.648438 L 58.710938 339.261719 L 60.199219 339.261719 L 57.078125 348.800781 L 55.339844 348.800781 L 53.320312 341.410156 L 51.039062 348.800781 Z M 62.050781 348.800781 L 62.050781 339.261719 L 63.78125 339.261719 L 63.78125 348.800781 Z M 62.050781 337.53125 L 62.050781 335.789062 L 63.78125 335.789062 L 63.78125 337.53125 Z M 67.25 348.800781 L 67.25 339.261719 L 68.988281 339.261719 L 68.988281 341.050781 C 69.671875 339.710938 70.671875 339.050781 71.96875 339.050781 C 72.148438 339.050781 72.328125 339.058594 72.53125 339.089844 L 72.53125 340.710938 C 72.230469 340.609375 71.960938 340.558594 71.738281 340.558594 C 70.640625 340.558594 69.71875 341.210938 68.988281 342.511719 L 68.988281 348.800781 Z M 80.75 348.800781 L 80.75 347.011719 C 80.039062 348.351562 78.980469 349.019531 77.558594 349.019531 C 76.421875 349.019531 75.511719 348.601562 74.851562 347.769531 C 74.191406 346.929688 73.859375 345.78125 73.859375 344.328125 C 73.859375 342.738281 74.238281 341.460938 74.980469 340.5 C 75.730469 339.53125 76.710938 339.050781 77.929688 339.050781 C 79.058594 339.050781 80 339.480469 80.75 340.351562 L 80.75 334.921875 L 82.488281 334.921875 L 82.488281 348.800781 Z M 80.75 341.53125 C 79.851562 340.738281 79 340.351562 78.199219 340.351562 C 76.539062 340.351562 75.710938 341.621094 75.710938 344.148438 C 75.710938 346.390625 76.449219 347.5 77.921875 347.5 C 78.878906 347.5 79.828125 346.980469 80.75 345.929688 Z M 91.679688 351.980469 L 91.878906 350.46875 C 92.878906 350.949219 93.871094 351.179688 94.839844 351.179688 C 96.789062 351.179688 97.769531 350.148438 97.769531 348.078125 L 97.769531 346.578125 C 97.128906 347.921875 96.078125 348.578125 94.621094 348.578125 C 93.480469 348.578125 92.570312 348.171875 91.898438 347.328125 C 91.21875 346.5 90.890625 345.378906 90.890625 343.96875 C 90.890625 342.519531 91.269531 341.328125 92.039062 340.421875 C 92.808594 339.5 93.800781 339.050781 95.019531 339.050781 C 96.078125 339.050781 97 339.480469 97.769531 340.351562 L 97.769531 339.261719 L 99.511719 339.261719 L 99.511719 346.199219 C 99.511719 347.699219 99.429688 348.800781 99.28125 349.519531 C 99.121094 350.238281 98.828125 350.820312 98.398438 351.28125 C 97.648438 352.078125 96.46875 352.488281 94.878906 352.488281 C 93.761719 352.488281 92.699219 352.320312 91.679688 351.980469 Z M 97.769531 345.5 L 97.769531 341.53125 C 97.011719 340.738281 96.179688 340.351562 95.28125 340.351562 C 94.488281 340.351562 93.859375 340.671875 93.410156 341.308594 C 92.960938 341.941406 92.730469 342.820312 92.730469 343.929688 C 92.730469 346.03125 93.46875 347.070312 94.941406 347.070312 C 95.941406 347.070312 96.878906 346.550781 97.769531 345.5 Z M 109.859375 348.5 C 108.699219 348.851562 107.710938 349.019531 106.878906 349.019531 C 105.480469 349.019531 104.328125 348.558594 103.441406 347.621094 C 102.558594 346.691406 102.109375 345.46875 102.109375 343.988281 C 102.109375 342.539062 102.5 341.351562 103.28125 340.429688 C 104.070312 339.5 105.070312 339.039062 106.289062 339.039062 C 107.441406 339.039062 108.328125 339.449219 108.960938 340.269531 C 109.589844 341.089844 109.910156 342.25 109.910156 343.769531 L 109.898438 344.300781 L 103.878906 344.300781 C 104.128906 346.570312 105.238281 347.699219 107.210938 347.699219 C 107.929688 347.699219 108.808594 347.511719 109.859375 347.121094 Z M 103.960938 343 L 108.171875 343 C 108.171875 341.230469 107.5 340.339844 106.179688 340.339844 C 104.851562 340.339844 104.109375 341.230469 103.960938 343 Z M 112.898438 352.269531 L 112.898438 339.261719 L 114.628906 339.261719 L 114.628906 341.050781 C 115.339844 339.710938 116.398438 339.050781 117.820312 339.050781 C 118.96875 339.050781 119.871094 339.46875 120.53125 340.300781 C 121.191406 341.140625 121.519531 342.289062 121.519531 343.738281 C 121.519531 345.320312 121.140625 346.601562 120.398438 347.570312 C 119.648438 348.539062 118.671875 349.019531 117.449219 349.019531 C 116.320312 349.019531 115.378906 348.589844 114.628906 347.71875 L 114.628906 352.269531 Z M 114.628906 346.53125 C 115.519531 347.320312 116.371094 347.71875 117.179688 347.71875 C 118.839844 347.71875 119.671875 346.449219 119.671875 343.921875 C 119.671875 341.679688 118.929688 340.558594 117.460938 340.558594 C 116.488281 340.558594 115.550781 341.078125 114.628906 342.128906 Z M 130.191406 348.800781 L 130.191406 347.011719 C 129.269531 348.351562 128.160156 349.019531 126.839844 349.019531 C 126.011719 349.019531 125.351562 348.761719 124.859375 348.238281 C 124.371094 347.710938 124.121094 347 124.121094 346.109375 L 124.121094 339.261719 L 125.851562 339.261719 L 125.851562 345.550781 C 125.851562 346.269531 125.949219 346.769531 126.160156 347.078125 C 126.371094 347.378906 126.71875 347.53125 127.199219 347.53125 C 128.261719 347.53125 129.25 346.828125 130.191406 345.449219 L 130.191406 339.261719 L 131.921875 339.261719 L 131.921875 348.800781 Z M 137.929688 349.019531 C 137.140625 349.019531 136.171875 348.839844 135.039062 348.46875 L 135.039062 346.878906 C 136.171875 347.441406 137.160156 347.71875 138 347.71875 C 138.5 347.71875 138.910156 347.589844 139.238281 347.320312 C 139.558594 347.050781 139.730469 346.710938 139.730469 346.308594 C 139.730469 345.710938 139.269531 345.230469 138.351562 344.839844 L 137.339844 344.410156 C 135.839844 343.789062 135.101562 342.890625 135.101562 341.730469 C 135.101562 340.898438 135.390625 340.238281 135.980469 339.761719 C 136.570312 339.289062 137.378906 339.050781 138.398438 339.050781 C 138.929688 339.050781 139.589844 339.121094 140.378906 339.269531 L 140.738281 339.339844 L 140.738281 340.78125 C 139.769531 340.488281 139 340.351562 138.441406 340.351562 C 137.320312 340.351562 136.769531 340.75 136.769531 341.558594 C 136.769531 342.078125 137.191406 342.519531 138.03125 342.878906 L 138.871094 343.230469 C 139.808594 343.628906 140.480469 344.050781 140.871094 344.488281 C 141.261719 344.929688 141.460938 345.488281 141.460938 346.148438 C 141.460938 346.988281 141.128906 347.671875 140.46875 348.210938 C 139.800781 348.75 138.960938 349.019531 137.929688 349.019531 Z M 144.570312 348.800781 L 144.570312 334.921875 L 146.300781 334.921875 L 146.300781 341.050781 C 147.21875 339.710938 148.339844 339.050781 149.660156 339.050781 C 150.488281 339.050781 151.148438 339.308594 151.640625 339.828125 C 152.128906 340.359375 152.378906 341.058594 152.378906 341.949219 L 152.378906 348.800781 L 150.640625 348.800781 L 150.640625 342.511719 C 150.640625 341.800781 150.539062 341.300781 150.328125 340.988281 C 150.121094 340.691406 149.78125 340.539062 149.300781 340.539062 C 148.238281 340.539062 147.238281 341.238281 146.300781 342.621094 L 146.300781 348.800781 Z M 158.609375 349.019531 C 157.730469 349.019531 157.039062 348.769531 156.550781 348.269531 C 156.058594 347.761719 155.808594 347.058594 155.808594 346.171875 L 155.808594 340.558594 L 154.621094 340.558594 L 154.621094 339.261719 L 155.808594 339.261719 L 155.808594 337.53125 L 157.539062 337.359375 L 157.539062 339.261719 L 160.039062 339.261719 L 160.039062 340.558594 L 157.539062 340.558594 L 157.539062 345.851562 C 157.539062 347.101562 158.078125 347.71875 159.160156 347.71875 C 159.390625 347.71875 159.671875 347.679688 160 347.609375 L 160 348.800781 C 159.460938 348.949219 159 349.019531 158.609375 349.019531 Z M 173.089844 347.589844 C 172.050781 348.539062 171.058594 349.019531 170.089844 349.019531 C 169.300781 349.019531 168.648438 348.769531 168.128906 348.28125 C 167.601562 347.78125 167.339844 347.160156 167.339844 346.398438 C 167.339844 345.359375 167.78125 344.558594 168.660156 344 C 169.53125 343.441406 170.789062 343.160156 172.421875 343.160156 L 172.839844 343.160156 L 172.839844 342.011719 C 172.839844 340.898438 172.269531 340.351562 171.128906 340.351562 C 170.21875 340.351562 169.230469 340.628906 168.171875 341.191406 L 168.171875 339.761719 C 169.339844 339.28125 170.429688 339.050781 171.449219 339.050781 C 172.511719 339.050781 173.300781 339.289062 173.808594 339.769531 C 174.308594 340.25 174.570312 341 174.570312 342.011719 L 174.570312 346.328125 C 174.570312 347.320312 174.871094 347.820312 175.480469 347.820312 C 175.558594 347.820312 175.671875 347.808594 175.820312 347.78125 L 175.941406 348.738281 C 175.550781 348.929688 175.109375 349.019531 174.640625 349.019531 C 173.828125 349.019531 173.308594 348.539062 173.089844 347.589844 Z M 172.839844 346.648438 L 172.839844 344.179688 L 172.261719 344.160156 C 171.308594 344.160156 170.539062 344.339844 169.949219 344.699219 C 169.371094 345.058594 169.078125 345.539062 169.078125 346.121094 C 169.078125 346.539062 169.21875 346.890625 169.511719 347.179688 C 169.808594 347.460938 170.171875 347.609375 170.589844 347.609375 C 171.308594 347.609375 172.058594 347.289062 172.839844 346.648438 Z M 178.109375 348.800781 L 178.109375 339.261719 L 179.839844 339.261719 L 179.839844 341.050781 C 180.761719 339.710938 181.878906 339.050781 183.199219 339.050781 C 184.03125 339.050781 184.679688 339.308594 185.179688 339.828125 C 185.671875 340.359375 185.921875 341.058594 185.921875 341.949219 L 185.921875 348.800781 L 184.179688 348.800781 L 184.179688 342.511719 C 184.179688 341.800781 184.078125 341.300781 183.871094 340.988281 C 183.660156 340.691406 183.320312 340.539062 182.839844 340.539062 C 181.78125 340.539062 180.78125 341.238281 179.839844 342.621094 L 179.839844 348.800781 Z M 178.109375 348.800781 "/>
<path fill="none" stroke-width="5" stroke-linecap="butt" stroke-linejoin="miter" stroke="rgb(0%, 0%, 0%)" stroke-opacity="1" stroke-miterlimit="1.45" d="M 998 439.539062 L 998 575 L 901.980469 575 " transform="matrix(1, 0, 0, 1, -488, -252)"/>
<path fill-rule="nonzero" fill="rgb(0%, 0%, 0%)" fill-opacity="1" d="M 401.980469 323 L 419.980469 330.5 L 415.480469 323 L 419.980469 315.5 Z M 401.980469 323 "/>
<path fill="none" stroke-width="5" stroke-linecap="butt" stroke-linejoin="miter" stroke="rgb(0%, 0%, 0%)" stroke-opacity="1" stroke-miterlimit="1.45" d="M 741.988281 575 L 562 575 L 562 489.480469 " transform="matrix(1, 0, 0, 1, -488, -252)"/>
<path fill-rule="nonzero" fill="rgb(0%, 0%, 0%)" fill-opacity="1" d="M 74 225.480469 L 66.5 243.480469 L 74 238.980469 L 81.5 243.480469 Z M 74 225.480469 "/>
<path fill="none" stroke-width="5" stroke-linecap="butt" stroke-linejoin="miter" stroke="rgb(0%, 0%, 0%)" stroke-opacity="1" stroke-miterlimit="1.45" d="M 562 404.5 L 562 312 L 729.988281 312 " transform="matrix(1, 0, 0, 1, -488, -252)"/>
<path fill-rule="nonzero" fill="rgb(0%, 0%, 0%)" fill-opacity="1" d="M 253.988281 60 L 235.988281 52.5 L 240.488281 60 L 235.988281 67.5 Z M 253.988281 60 "/>
<path fill="none" stroke-width="5" stroke-linecap="butt" stroke-linejoin="miter" stroke="rgb(0%, 0%, 0%)" stroke-opacity="1" stroke-miterlimit="1.45" d="M 890.03125 312 L 1541 312 L 1541 369.5 " transform="matrix(1, 0, 0, 1, -488, -252)"/>
<path fill-rule="nonzero" fill="rgb(0%, 0%, 0%)" fill-opacity="1" d="M 1053 129.5 L 1060.5 111.5 L 1053 116 L 1045.5 111.5 Z M 1053 129.5 "/>
<path fill="none" stroke-width="3" stroke-linecap="butt" stroke-linejoin="miter" stroke="rgb(0%, 0%, 0%)" stroke-opacity="1" stroke-miterlimit="1.45" d="M 1517 439.511719 L 1517 459.480469 " transform="matrix(1, 0, 0, 1, -488, -252)"/>
<path fill-rule="nonzero" fill="rgb(0%, 0%, 0%)" fill-opacity="1" d="M 1029 217.480469 L 1035.199219 202.480469 L 1029 206.230469 L 1022.800781 202.480469 Z M 1029 217.480469 "/>
<path fill="none" stroke-width="3" stroke-linecap="butt" stroke-linejoin="miter" stroke="rgb(0%, 0%, 0%)" stroke-opacity="1" stroke-miterlimit="1.45" d="M 1563 469.46875 L 1563 449.511719 " transform="matrix(1, 0, 0, 1, -488, -252)"/>
<path fill-rule="nonzero" fill="rgb(0%, 0%, 0%)" fill-opacity="1" d="M 1075 187.511719 L 1068.800781 202.511719 L 1075 198.761719 L 1081.199219 202.511719 Z M 1075 187.511719 "/>
<path fill="none" stroke-width="3" stroke-linecap="butt" stroke-linejoin="miter" stroke="rgb(0%, 0%, 0%)" stroke-opacity="1" stroke-miterlimit="1.45" d="M 1516 527.488281 L 1516 549.96875 " transform="matrix(1, 0, 0, 1, -488, -252)"/>
<path fill-rule="nonzero" fill="rgb(0%, 0%, 0%)" fill-opacity="1" d="M 1028 307.96875 L 1034.199219 292.96875 L 1028 296.71875 L 1021.800781 292.96875 Z M 1028 307.96875 "/>
<path fill="none" stroke-width="3" stroke-linecap="butt" stroke-linejoin="miter" stroke="rgb(0%, 0%, 0%)" stroke-opacity="1" stroke-miterlimit="1.45" d="M 1563 560.03125 L 1563 537.511719 " transform="matrix(1, 0, 0, 1, -488, -252)"/>
<path fill-rule="nonzero" fill="rgb(0%, 0%, 0%)" fill-opacity="1" d="M 1075 275.511719 L 1068.800781 290.511719 L 1075 286.761719 L 1081.199219 290.511719 Z M 1075 275.511719 "/>
<path fill="none" stroke-width="5" stroke-linecap="butt" stroke-linejoin="miter" stroke="rgb(0%, 0%, 0%)" stroke-opacity="1" stroke-miterlimit="1.45" d="M 1467 410.5 L 1304 410.5 " transform="matrix(1, 0, 0, 1, -488, -252)"/>
<path fill-rule="nonzero" fill="rgb(0%, 0%, 0%)" fill-opacity="1" d="M 804 158.5 L 822 166 L 817.5 158.5 L 822 151 Z M 804 158.5 "/>
<path fill="none" stroke-width="5" stroke-linecap="butt" stroke-linejoin="miter" stroke="rgb(0%, 0%, 0%)" stroke-opacity="1" stroke-miterlimit="1.45" d="M 1144 410.5 L 1084 410.5 " transform="matrix(1, 0, 0, 1, -488, -252)"/>
<path fill-rule="nonzero" fill="rgb(0%, 0%, 0%)" fill-opacity="1" d="M 584 158.5 L 602 166 L 597.5 158.5 L 602 151 Z M 584 158.5 "/>
<path fill="none" stroke-width="5" stroke-linecap="butt" stroke-linejoin="miter" stroke="rgb(0%, 0%, 0%)" stroke-opacity="1" stroke-miterlimit="1.45" d="M 889.980469 312 L 998 312 L 998 369.5 " transform="matrix(1, 0, 0, 1, -488, -252)"/>
<path fill-rule="nonzero" fill="rgb(0%, 0%, 0%)" fill-opacity="1" d="M 510 129.5 L 517.5 111.5 L 510 116 L 502.5 111.5 Z M 510 129.5 "/>
<rect x="90" y="293" width="110" height="29" fill="rgb(100%,100%,100%)"/><rect x="200" y="293" width="56" height="29" fill="rgb(86.66687%, 86.66687%, 86.66687%)"/><text x="116" y="315" fill="rgb(0%,0%,0%)" font-family="'DejaVu Sans Mono', Menlo, monospace" font-size="20">selectSignal()</text>
</svg>
